<svg xmlns:dc="http://purl.org/dc/elements/1.1/" xmlns:cc="http://creativecommons.org/ns#" xmlns:rdf="http://www.w3.org/1999/02/22-rdf-syntax-ns#" xmlns:svg="http://www.w3.org/2000/svg" xmlns="http://www.w3.org/2000/svg" xmlns:xlink="http://www.w3.org/1999/xlink" xmlns:sodipodi="http://sodipodi.sourceforge.net/DTD/sodipodi-0.dtd" xmlns:inkscape="http://www.inkscape.org/namespaces/inkscape" id="svg5173" version="1.1" viewBox="0 0 33.866667 33.866669" height="128" width="128">
  <defs id="defs5167">
    <linearGradient xlink:href="#linearGradient7587" id="linearGradient7721" gradientUnits="userSpaceOnUse" gradientTransform="matrix(1.2917935,0,0,1.2917935,-810.00411,22.848513)" x1="2383.6506" y1="-22.427191" x2="2383.6506" y2="37.364632"/>
    <linearGradient id="linearGradient7587">
      <stop style="stop-color:#deddda;stop-opacity:1" offset="0" id="stop7583"/>
      <stop style="stop-color:#ffffff;stop-opacity:0" offset="1" id="stop7585"/>
    </linearGradient>
    <linearGradient xlink:href="#linearGradient7587" id="linearGradient7723" gradientUnits="userSpaceOnUse" gradientTransform="matrix(1.281453,0.16312175,-0.16312175,1.281453,-786.49579,-360.94782)" x1="2383.6506" y1="-22.427191" x2="2383.6506" y2="37.364632"/>
    <linearGradient xlink:href="#linearGradient7587" id="linearGradient3816" gradientUnits="userSpaceOnUse" gradientTransform="matrix(0.70236372,0,0,1.2662535,564.65954,22.941045)" x1="2383.6506" y1="-22.427191" x2="2383.6506" y2="37.364632"/>
    <linearGradient xlink:href="#linearGradient7587" id="linearGradient3820" gradientUnits="userSpaceOnUse" gradientTransform="matrix(-0.55275425,0.32708703,0.57379127,1.0332641,3539.0389,-729.94792)" x1="2383.6506" y1="-22.427191" x2="2383.6506" y2="37.364632"/>
    <linearGradient xlink:href="#linearGradient7587" id="linearGradient3845" gradientUnits="userSpaceOnUse" gradientTransform="matrix(1.281453,0.16312175,-0.16312175,1.281453,-786.49579,-360.94782)" x1="2383.6506" y1="-22.427191" x2="2383.6506" y2="37.364632"/>
    <linearGradient xlink:href="#linearGradient7587" id="linearGradient3933" gradientUnits="userSpaceOnUse" gradientTransform="matrix(0.70236372,0,0,1.2662535,563.33078,-24.112848)" x1="2383.6506" y1="-22.427191" x2="2383.6506" y2="37.364632"/>
    <linearGradient xlink:href="#linearGradient7587" id="linearGradient3937" gradientUnits="userSpaceOnUse" gradientTransform="matrix(-0.70236372,0,0,1.2662535,3893.9129,-14.650538)" x1="2383.6506" y1="-22.427191" x2="2383.6506" y2="37.364632"/>
  </defs>
  <g transform="translate(-510.96542,57.324495)" id="layer1">
    <g id="g7637" transform="matrix(0.24036719,0,0,0.24013786,-7.4414763,-44.370594)" style="opacity:1;stroke-width:1.10128">
      <path d="m 2162.347,70.920551 c -0.6075,-13.823853 -0.5973,-30.142335 14.0494,-36.553446 0.9749,-11.95844 -12.0876,-24.8874517 -1.4969,-36.6532728 8.5918,-14.1372482 30.2998,-7.9708522 30.4054,8.4319009 0.6627,1.6822765 2.5382,9.3994709 2.3488,11.0204179 -0.1273,1.089046 -3.4225,2.606612 -3.4225,2.606612 0.7897,5.722313 -2.6336,10.620917 -7.6452,14.684728 8.9186,7.967214 8.6109,21.332465 5.6566,33.16583 l -0.1779,1.936827 -0.092,1.905497" style="font-variation-settings:normal;vector-effect:none;fill:url(#linearGradient7721);fill-opacity:1;stroke:#c0bfbc;stroke-width:3.30382;stroke-linecap:round;stroke-linejoin:round;stroke-miterlimit:4;stroke-dasharray:none;stroke-dashoffset:0;stroke-opacity:1;stop-color:#000000" id="path7524"/>
      <path d="m 2292.0003,80.568475 c 0.432,-10.734302 0.7752,-22.944123 -6.7654,-31.5564 -8.9555,-8.174172 -6.2159,-1.394681 -2.9657,-7.557333 1.9996,-8.232557 3.7745,-21.281759 0.015,-29.814027 -3.0514,-5.6842469 -7.81,-11.60586386 -14.8008,-12.03270182 -8.403,-1.08168198 -17.3797,5.05540092 -18.1705,13.70558482 -0.6805,3.335493 -3.2813,8.640509 -3.5669,12.041728 -0.1694,2.017501 1.4767,2.114741 2.0889,4.147004 0.7557,3.640949 2.5926,6.841614 4.9115,9.672261 1.3345,1.628961 7.3713,-0.389651 8.9107,1.007623 0.5559,1.548101 0.9814,2.784255 -0.5449,4.696241 -3.2609,4.084793 -10.3498,9.292523 -10.4552,13.05429 -1.3715,7.433278 0.7087,14.80524 1.6947,22.118335 l 0.022,1.06249" style="font-variation-settings:normal;opacity:1;vector-effect:none;fill:url(#linearGradient7723);fill-opacity:1;stroke:#c0bfbc;stroke-width:3.30382;stroke-linecap:round;stroke-linejoin:round;stroke-miterlimit:4;stroke-dasharray:none;stroke-dashoffset:0;stroke-opacity:1;stop-color:#000000;stop-opacity:1" id="path7548"/>
      <path d="m 2244.8698,41.845655 c -0.4872,-1.455277 -2.8794,-7.09269 -4.5585,-8.504252 -4.2296,-3.55569 -6.8335,-0.287317 -2.5026,-16.387033 2.0421,-3.485572 4.2093,-7.1982427 3.7534,-11.4188059 -0.27,-8.7288895 -8.4757,-17.3140091 -17.5652,-15.8898951 -3.5574,0.7224305 -8.8446,5.9093975 -10.1519,8.8764372 -1.0698,2.42816194 1.6351,2.44698394 0.8459,5.0418129 -0.702,3.119491 -2.8603,7.9443279 -2.1859,10.9703959 0.2767,1.241861 1.4221,0.946913 1.755,2.003087 0.4247,1.347498 0.064,2.491995 0.1984,4.062358 0.1855,2.167062 6.6197,3.519219 6.2506,5.760845 -0.9199,4.55343 -11.2129,8.686596 -10.5363,13.704032 -0.3088,4.248229 0.018,8.507101 -0.027,12.759718" style="font-variation-settings:normal;vector-effect:none;fill:url(#linearGradient3845);fill-opacity:1;stroke:#c0bfbc;stroke-width:3.30382;stroke-linecap:round;stroke-linejoin:round;stroke-miterlimit:4;stroke-dasharray:none;stroke-dashoffset:0;stroke-opacity:1;stop-color:#000000" id="path7524-8"/>
      <ellipse style="font-variation-settings:normal;opacity:1;vector-effect:none;fill:#ffffff;fill-opacity:1;stroke:#f5c211;stroke-width:3.30485;stroke-linecap:round;stroke-linejoin:round;stroke-miterlimit:4;stroke-dasharray:none;stroke-dashoffset:0;stroke-opacity:1;paint-order:normal;stop-color:#000000;stop-opacity:1" id="path3860" cx="2258.6462" cy="-29.255001" rx="18.397839" ry="14.057771"/>
      <ellipse style="font-variation-settings:normal;opacity:1;vector-effect:none;fill:#ffffff;fill-opacity:1;stroke:#f5c211;stroke-width:3.30485;stroke-linecap:round;stroke-linejoin:round;stroke-miterlimit:4;stroke-dasharray:none;stroke-dashoffset:0;stroke-opacity:1;paint-order:normal;stop-color:#000000;stop-opacity:1" id="ellipse3917" cx="2192.8572" cy="-36.537052" rx="14.910925" ry="11.325362"/>
      <ellipse style="font-variation-settings:normal;opacity:1;vector-effect:none;fill:#f5c211;fill-opacity:1;stroke:none;stroke-width:3.30485;stroke-linecap:round;stroke-linejoin:round;stroke-miterlimit:4;stroke-dasharray:none;stroke-dashoffset:0;stroke-opacity:1;paint-order:normal;stop-color:#000000;stop-opacity:1" id="path3919" cx="2186.073" cy="-36.23922" rx="2.3614588" ry="2.3637137"/>
      <ellipse style="font-variation-settings:normal;opacity:1;vector-effect:none;fill:#f5c211;fill-opacity:1;stroke:none;stroke-width:3.30485;stroke-linecap:round;stroke-linejoin:round;stroke-miterlimit:4;stroke-dasharray:none;stroke-dashoffset:0;stroke-opacity:1;paint-order:normal;stop-color:#000000;stop-opacity:1" id="ellipse3921" cx="2192.6772" cy="-36.239216" rx="2.3614588" ry="2.3637137"/>
      <ellipse style="font-variation-settings:normal;opacity:1;vector-effect:none;fill:#f5c211;fill-opacity:1;stroke:none;stroke-width:3.30485;stroke-linecap:round;stroke-linejoin:round;stroke-miterlimit:4;stroke-dasharray:none;stroke-dashoffset:0;stroke-opacity:1;paint-order:normal;stop-color:#000000;stop-opacity:1" id="ellipse3923" cx="2199.2815" cy="-36.239216" rx="2.3614588" ry="2.3637137"/>
      <ellipse style="font-variation-settings:normal;opacity:1;vector-effect:none;fill:#f5c211;fill-opacity:1;stroke:none;stroke-width:3.30485;stroke-linecap:round;stroke-linejoin:round;stroke-miterlimit:4;stroke-dasharray:none;stroke-dashoffset:0;stroke-opacity:1;paint-order:normal;stop-color:#000000;stop-opacity:1" id="ellipse3925" cx="2251.0178" cy="-29.352991" rx="2.3614588" ry="2.3637137"/>
      <ellipse style="font-variation-settings:normal;opacity:1;vector-effect:none;fill:#f5c211;fill-opacity:1;stroke:none;stroke-width:3.30485;stroke-linecap:round;stroke-linejoin:round;stroke-miterlimit:4;stroke-dasharray:none;stroke-dashoffset:0;stroke-opacity:1;paint-order:normal;stop-color:#000000;stop-opacity:1" id="ellipse3927" cx="2258.7229" cy="-29.352991" rx="2.3614588" ry="2.3637137"/>
      <ellipse style="font-variation-settings:normal;opacity:1;vector-effect:none;fill:#f5c211;fill-opacity:1;stroke:none;stroke-width:3.30485;stroke-linecap:round;stroke-linejoin:round;stroke-miterlimit:4;stroke-dasharray:none;stroke-dashoffset:0;stroke-opacity:1;paint-order:normal;stop-color:#000000;stop-opacity:1" id="ellipse3929" cx="2266.428" cy="-29.352991" rx="2.3614588" ry="2.3637137"/>
      <path style="font-variation-settings:normal;opacity:1;vector-effect:none;fill:url(#linearGradient3933);fill-opacity:1;stroke:#f5c211;stroke-width:3.30382;stroke-linecap:round;stroke-linejoin:round;stroke-miterlimit:4;stroke-dasharray:none;stroke-dashoffset:0;stroke-opacity:1;stop-color:#000000;stop-opacity:1" d="m 2196.6578,-16.757911 c 1.5484,-3.827543 -2.577,-7.73648 -2.577,-7.73648" id="path3931"/>
      <path style="font-variation-settings:normal;opacity:1;vector-effect:none;fill:url(#linearGradient3937);fill-opacity:1;stroke:#f5c211;stroke-width:3.30382;stroke-linecap:round;stroke-linejoin:round;stroke-miterlimit:4;stroke-dasharray:none;stroke-dashoffset:0;stroke-opacity:1;stop-color:#000000;stop-opacity:1" d="m 2260.5859,-7.2955999 c -1.5484,-3.8275441 2.577,-7.7364811 2.577,-7.7364811" id="path3935"/>
    </g>
  </g>
</svg>
