<?xml version="1.0" encoding="UTF-8" standalone="no"?>
<svg
   xmlns:dc="http://purl.org/dc/elements/1.1/"
   xmlns:cc="http://creativecommons.org/ns#"
   xmlns:rdf="http://www.w3.org/1999/02/22-rdf-syntax-ns#"
   xmlns:svg="http://www.w3.org/2000/svg"
   xmlns="http://www.w3.org/2000/svg"
   xmlns:xlink="http://www.w3.org/1999/xlink"
   xmlns:sodipodi="http://sodipodi.sourceforge.net/DTD/sodipodi-0.dtd"
   xmlns:inkscape="http://www.inkscape.org/namespaces/inkscape"
   sodipodi:docname="icon-github.svg"
   inkscape:version="1.0.2 (e86c870879, 2021-01-15)"
   id="svg5173"
   version="1.1"
   viewBox="0 0 33.866667 33.866669"
   height="128"
   width="128">
  <defs
     id="defs5167">
    <linearGradient
       inkscape:collect="always"
       id="linearGradient5882">
      <stop
         style="stop-color:#ffffff;stop-opacity:1"
         offset="0"
         id="stop5878" />
      <stop
         style="stop-color:#f9f8eb;stop-opacity:1"
         offset="0.52617562"
         id="stop5888" />
      <stop
         style="stop-color:#f9f06b;stop-opacity:1"
         offset="1"
         id="stop5880" />
    </linearGradient>
    <radialGradient
       inkscape:collect="always"
       xlink:href="#linearGradient5882"
       id="radialGradient5886"
       cx="524.84555"
       cy="-50.73959"
       fx="524.84555"
       fy="-50.73959"
       r="4.4542189"
       gradientTransform="matrix(1,0,0,1.0907169,0,4.6029364)"
       gradientUnits="userSpaceOnUse" />
    <radialGradient
       inkscape:collect="always"
       xlink:href="#linearGradient5882"
       id="radialGradient5910"
       gradientUnits="userSpaceOnUse"
       gradientTransform="matrix(1,0,0,1.0907169,-2.9652371,4.2687257)"
       cx="524.84555"
       cy="-50.73959"
       fx="524.84555"
       fy="-50.73959"
       r="4.4542189" />
    <radialGradient
       inkscape:collect="always"
       xlink:href="#linearGradient5882"
       id="radialGradient5965"
       gradientUnits="userSpaceOnUse"
       gradientTransform="matrix(1,0,0,1.0907169,-2.9652371,4.2687257)"
       cx="524.84555"
       cy="-50.73959"
       fx="524.84555"
       fy="-50.73959"
       r="4.4542189" />
  </defs>
  <sodipodi:namedview
     inkscape:window-maximized="0"
     inkscape:window-y="27"
     inkscape:window-x="1920"
     inkscape:window-height="1136"
     inkscape:window-width="1920"
     inkscape:bbox-nodes="true"
     inkscape:snap-bbox="true"
     inkscape:snap-intersection-paths="true"
     inkscape:object-paths="true"
     inkscape:snap-smooth-nodes="true"
     inkscape:snap-object-midpoints="true"
     units="px"
     fit-margin-bottom="0"
     fit-margin-right="0"
     fit-margin-left="0"
     fit-margin-top="0"
     showgrid="false"
     inkscape:document-rotation="0"
     inkscape:current-layer="layer1"
     inkscape:document-units="mm"
     inkscape:cy="73.82331"
     inkscape:cx="-5.366713"
     inkscape:zoom="4"
     inkscape:pageshadow="2"
     inkscape:pageopacity="0.0"
     borderopacity="1.0"
     bordercolor="#666666"
     pagecolor="#ffffff"
     id="base"
     inkscape:snap-global="false">
    <inkscape:grid
       id="grid5746"
       type="xygrid" />
  </sodipodi:namedview>
  <metadata
     id="metadata5170">
    <rdf:RDF>
      <cc:Work
         rdf:about="">
        <dc:format>image/svg+xml</dc:format>
        <dc:type
           rdf:resource="http://purl.org/dc/dcmitype/StillImage" />
        <dc:title></dc:title>
      </cc:Work>
    </rdf:RDF>
  </metadata>
  <g
     transform="translate(-510.96542,57.324495)"
     id="layer1"
     inkscape:groupmode="layer"
     inkscape:label="Layer 1">
    <g
       id="g65414"
       transform="matrix(0.37428235,0,0,0.37428235,-778.80429,12.841327)"
       style="mix-blend-mode:normal;stroke-width:0.706909">
      <g
         id="g3955"
         transform="matrix(0.93152479,0,0,0.96336949,2057.3351,-162.56624)"
         style="stroke-width:0.706909">
        <path
           id="path8414-3"
           d="m 1524.2441,62.041962 c -8.4359,-3.136044 -15.7854,-8.949738 -20.8249,-16.473372 -1.626,-2.427647 -4.0577,-7.419278 -4.9537,-10.169049 -2.827,-8.675991 -2.8201,-17.791707 0.022,-26.4225587 5.3089,-16.1334057 19.6582,-27.5188403 36.7872,-29.1884803 12.6281,-1.230915 25.4817,3.409193 34.5419,12.4694142 8.8828,8.8827162 13.4557,21.5698678 12.2139,33.8851848 -0.2949,2.922826 -1.0824,6.702555 -1.9397,9.308681 -0.8938,2.717124 -3.3387,7.719665 -4.9442,10.116808 -4.3048,6.426637 -9.9904,11.387971 -16.883,14.732507 -4.8925,2.374064 -6.6947,2.779891 -7.7341,1.741585 -0.4171,-0.416895 -0.4323,-0.645725 -0.5366,-8.229794 -0.1031,-7.494048 -0.1256,-7.85315 -0.5796,-9.127507 -0.2602,-0.729631 -0.834,-1.856689 -1.2753,-2.504626 -0.5348,-0.784973 -0.7162,-1.20314 -0.5431,-1.253177 0.1413,-0.04153 1.2239,-0.230866 2.4025,-0.421219 4.1529,-0.670813 8.1401,-2.344826 10.6491,-4.471042 2.7927,-2.366685 4.8225,-6.169542 5.5684,-10.431824 1.1786,-6.736353 0.1547,-12.04806 -3.1087,-16.1146319 l -0.7915,-0.9871325 0.372,-1.3427858 c 0.5101,-1.8401182 0.4982,-5.098674 -0.025,-7.28665752 -0.6205,-2.58818428 -0.7214,-2.73855048 -1.8367,-2.73855048 -2.0799,0 -5.3735,1.1989539 -8.6532,3.14980171 l -2.1675,1.28943239 -1.5845,-0.3650264 c -3.2181,-0.74132544 -4.8472,-0.9021345 -9.1358,-0.9021345 -4.2888,0 -5.9176,0.16086961 -9.1357,0.9021345 l -1.5845,0.3650264 -2.1675,-1.28943239 c -3.2795,-1.95084781 -6.5733,-3.14980171 -8.6532,-3.14980171 -1.1153,0 -1.216,0.1503528 -1.8365,2.73855048 -0.5247,2.18798352 -0.5366,5.44653932 -0.025,7.28665752 l 0.3723,1.3427858 -0.7918,0.9871325 c -2.6221,3.2683349 -3.8343,7.4289649 -3.5477,12.1768669 0.4583,7.591393 2.8765,12.459465 7.78,15.660447 2.3354,1.524553 5.7484,2.743567 9.1826,3.2797 2.6454,0.412998 2.4826,0.268663 1.6233,1.439446 -0.7494,1.020313 -1.713,3.374208 -1.7211,4.20298 0,1.075207 -4.8906,1.882903 -7.2604,1.201665 -2.1928,-0.630385 -3.7488,-1.891886 -5.2739,-4.276053 -0.9723,-1.51985 -2.3278,-2.791233 -3.8289,-3.591283 -2.4933,-1.329021 -5.5854,-0.890209 -4.4,0.624452 0.1368,0.17475 0.7568,0.69073 1.377,1.146731 1.9348,1.421256 3.123,2.912749 4.3797,5.496982 1.3358,2.746695 2.4247,3.985465 4.3643,4.964623 2.0238,1.021616 3.593,1.296375 6.6584,1.165756 1.4591,-0.06187 2.9055,-0.173988 3.2142,-0.248579 l 0.5611,-0.135508 v 4.322979 c 0,2.574683 -0.085,4.481772 -0.2108,4.715621 -0.2756,0.515209 -1.2564,1.011651 -1.9738,0.999192 -0.3143,-0.0054 -1.277,-0.272308 -2.1394,-0.592924 z m -0.6712,-12.531089 c -0.5399,-0.39486 -0.2637,-0.947891 0.473,-0.947891 0.3262,0 0.716,0.147729 0.866,0.328244 0.2314,0.278834 0.213,0.37096 -0.1166,0.612249 -0.4864,0.355703 -0.745,0.357315 -1.223,0.0074 z m 3.1573,-0.33299 c -0.5092,-0.324432 0.025,-0.92106 0.8214,-0.92106 0.7763,0 0.9757,0.316463 0.4992,0.7926 -0.3705,0.370792 -0.8656,0.418846 -1.321,0.1284 z m -6.7325,-0.30621 c -0.3593,-0.433252 -0.1009,-0.920975 0.4872,-0.920975 0.6086,0 1.169,0.512242 1.0111,0.92428 -0.1502,0.390114 -1.1734,0.387825 -1.4981,-0.0034 z m -2.8185,-1.574049 c -0.1346,-0.134678 -0.2449,-0.456135 -0.2449,-0.714289 0,-0.353756 0.1144,-0.469358 0.4694,-0.469358 0.5985,0 0.9593,0.361129 0.9593,0.959199 0,0.353756 -0.1144,0.469356 -0.4696,0.469356 -0.2583,0 -0.5797,-0.110169 -0.7144,-0.244933 z m -2.1213,-2.719862 c -0.1794,-0.393588 -0.1772,-0.573772 0,-0.760734 0.355,-0.354772 0.9324,0.06525 1.0124,0.735816 0.052,0.43283 -0.022,0.540635 -0.3619,0.540635 -0.2576,0 -0.5187,-0.203833 -0.6611,-0.515717 z m -1.7015,-2.361972 c -0.2086,-0.653945 0.2152,-0.946316 0.7159,-0.494018 0.5604,0.506986 0.523,0.922738 -0.085,0.922738 -0.3253,0 -0.5431,-0.147886 -0.6321,-0.428677 z m -1.8413,-1.629915 c -0.076,-0.122032 -0.034,-0.326635 0.096,-0.454611 0.2568,-0.256375 0.8474,0.0036 0.9916,0.435965 0.1009,0.30587 -0.8992,0.323074 -1.0873,0.01861 z"
           style="fill:#f6f5f4;fill-opacity:1;stroke-width:1.58517" />
      </g>
    </g>
  </g>
</svg>
