<svg xmlns:dc="http://purl.org/dc/elements/1.1/" xmlns:cc="http://creativecommons.org/ns#" xmlns:rdf="http://www.w3.org/1999/02/22-rdf-syntax-ns#" xmlns:svg="http://www.w3.org/2000/svg" xmlns="http://www.w3.org/2000/svg" xmlns:xlink="http://www.w3.org/1999/xlink" xmlns:sodipodi="http://sodipodi.sourceforge.net/DTD/sodipodi-0.dtd" xmlns:inkscape="http://www.inkscape.org/namespaces/inkscape" id="svg5173" version="1.1" viewBox="0 0 33.866667 33.866669" height="128" width="128">
  <defs id="defs5167">
    <linearGradient id="linearGradient7587">
      <stop style="stop-color:#deddda;stop-opacity:1" offset="0" id="stop7583"/>
      <stop style="stop-color:#ffffff;stop-opacity:0" offset="1" id="stop7585"/>
    </linearGradient>
    <linearGradient xlink:href="#linearGradient7587" id="linearGradient7723" gradientUnits="userSpaceOnUse" gradientTransform="matrix(1.3262762,0.16916161,-0.1688275,1.328901,-850.91341,-371.33066)" x1="2383.6506" y1="-22.427191" x2="2383.6506" y2="37.364632"/>
    <linearGradient xlink:href="#linearGradient7587" id="linearGradient1713" gradientUnits="userSpaceOnUse" gradientTransform="matrix(-1.0621687,0.13598808,0.1352081,1.0682961,4682.2217,-325.53922)" x1="2383.6506" y1="-22.427191" x2="2383.6506" y2="37.364632"/>
    <linearGradient xlink:href="#linearGradient7587" id="linearGradient7629" gradientUnits="userSpaceOnUse" x1="2383.6506" y1="-22.427191" x2="2383.6506" y2="37.364632" gradientTransform="matrix(0.69261701,0,0,0.70974211,615.38019,-29.759257)"/>
    <linearGradient xlink:href="#linearGradient7587" id="linearGradient2382" gradientUnits="userSpaceOnUse" gradientTransform="matrix(0.36568535,0,0,0.37601893,1381.4635,-21.21614)" x1="2383.6506" y1="-22.427191" x2="2383.6506" y2="37.364632"/>
  </defs>
  <g transform="translate(-510.96542,57.324495)" id="layer1">
    <g id="g7637" transform="matrix(0.24036719,0,0,0.24013786,-7.4414763,-44.370594)" style="opacity:1;stroke-width:1.10128">
      <path d="m 2259.5398,-5.0490303 c 0.1223,-3.1245711 0.2195,-6.6786407 -1.9151,-9.1855257 -2.5352,-2.379361 -1.7597,-0.405968 -0.8396,-2.199811 0.5661,-2.396355 1.0685,-6.194754 0.01,-8.67835 -0.8638,-1.654587 -2.2109,-3.378268 -4.1899,-3.502514 -2.3787,-0.314858 -4.9198,1.471541 -5.1437,3.989461 -0.1927,0.970905 -0.9289,2.515104 -1.0098,3.50514 -0.048,0.58726 0.4181,0.615565 0.5914,1.207122 0.337,1.669714 1.4338,3.021324 2.6269,4.134808 -0.5797,1.218794 -1.8446,3.280707 -1.8885,4.888228 -0.3882,2.163699 -3.2117,-0.495919 -4.6717,-0.446722 l -5.7602,-8.714762 c 1.4291,-1.146598 0.5201,-4.378414 -0.3491,-5.205803" style="font-variation-settings:normal;opacity:1;vector-effect:none;fill:url(#linearGradient2382);fill-opacity:1;stroke:#c0bfbc;stroke-width:3.30382;stroke-linecap:round;stroke-linejoin:round;stroke-miterlimit:4;stroke-dasharray:none;stroke-dashoffset:0;stroke-opacity:1;stop-color:#000000" id="path7548"/>
      <path d="m 2286.4845,46.376932 c -0.5042,-1.509162 -2.9801,-7.35531 -4.7179,-8.819136 -4.3776,-3.687347 -7.0725,-0.297957 -2.5902,-16.993792 2.1135,-3.61463 4.3566,-7.46477 3.8847,-11.841607 -0.2794,-9.05209242 -8.7721,-17.9550882 -18.1795,-16.4782462 -3.6819,0.74918 -7.3065,4.4418485 -8.6596,7.51874788 -1.1072,2.51806862 -1.9169,4.12500472 -2.7337,6.81591222 -0.7265,3.2349951 -0.7087,3.4608161 -0.011,6.5989311 0.2864,1.287842 0.036,3.876884 1.3265,6.953856 0.5665,1.350831 0.066,2.584266 0.2054,4.212773 0.1919,2.247302 6.8512,3.649523 6.4692,5.97415 -0.9521,4.722028 -12.4523,7.064007 -14.1743,9.888179 0,0 -7.676,5.622814 -9.5359,8.016744 -1.5935,-2.09002 -5.6406,-12.099 -8.5283,-14.944242 -1.602,-1.578438 3.5729,-8.403202 -0.2705,-6.609295 -2.2894,1.068546 -3.8875,3.819243 -5.9872,2.928274 -2.2659,-0.961446 -4.0018,-8.747373 -6.7445,-7.745352 -4.8144,1.758899 -5.0029,14.839512 6.6577,16.434076 0.9526,3.484824 6.3136,22.951654 8.9015,24.17698 2.0053,0.949441 9.1663,-2.595668 12.03,-1.677967 1.8317,0.586976 -0.026,8.900678 0.5454,9.121541" style="font-variation-settings:normal;opacity:1;vector-effect:none;fill:url(#linearGradient7723);fill-opacity:1;stroke:#c0bfbc;stroke-width:3.30382;stroke-linecap:round;stroke-linejoin:round;stroke-miterlimit:4;stroke-dasharray:none;stroke-dashoffset:0;stroke-opacity:1;stop-color:#000000" id="path7524-8"/>
      <path style="font-variation-settings:normal;opacity:1;vector-effect:none;fill:none;fill-opacity:1;stroke:#c0bfbc;stroke-width:3.30382;stroke-linecap:round;stroke-linejoin:round;stroke-miterlimit:4;stroke-dasharray:none;stroke-dashoffset:0;stroke-opacity:1;stop-color:#000000" d="m 2189.6874,-1.0967134 c 2.7324,2.5481537 9.0486,6.9718457 8.6606,9.8655406 0.1538,2.1283178 6.469,2.1657148 10.5332,3.4459718 1.2708,-3.0649021 4.3581,-6.6374038 6.9192,-14.5681916 -4.0105,-2.504032 -2.4803,-8.4864064 -1.0222,-10.1715894" id="path2386"/>
      <path style="font-variation-settings:normal;opacity:1;vector-effect:none;fill:url(#linearGradient1713);fill-opacity:1;stroke:#c0bfbc;stroke-width:3.30382;stroke-linecap:round;stroke-linejoin:round;stroke-miterlimit:4;stroke-dasharray:none;stroke-dashoffset:0;stroke-opacity:1;stop-color:#000000" d="m 2169.5884,10.253592 c 0.4038,-1.2132069 2.3866,-5.9128927 3.7784,-7.0896542 3.5058,-2.96423736 5.6641,-0.239526 2.0744,-13.6612148 -1.6927,-2.905781 -3.4891,-6.000886 -3.1112,-9.519401 0.2238,-7.276927 7.0253,-14.433997 14.5594,-13.246771 2.9487,0.602261 7.3311,4.926428 8.4147,7.399931 0.8868,2.024262 -1.3553,2.039953 -0.7011,4.203158 0.5818,2.600594 2.3708,6.622868 1.8119,9.145581 -0.2294,1.035289 -1.1788,0.789404 -1.4547,1.669893 -0.3521,1.1233554 -0.053,2.0774774 -0.1645,3.3866254 -0.1537,1.806593 -5.4869,2.933831 -5.181,4.802586" id="path1711"/>
      <path style="fill:#f5c211;stroke:none;stroke-width:5.3329;stroke-miterlimit:4;stroke-dasharray:none;stroke-dashoffset:59.5276;paint-order:stroke fill markers;stop-color:#000000" id="path986" d="m 36.877897,68.493078 c -0.745752,0.745751 -16.831781,0.745751 -17.577533,0 -0.745751,-0.745752 -0.745752,-16.831781 0,-17.577533 0.745752,-0.745751 16.831781,-0.745752 17.577533,0 0.745751,0.745752 0.745751,16.831781 0,17.577533 z" transform="matrix(0.79695908,-0.04491945,0.04487657,0.79772019,2202.597,-32.78809)"/>
      <path style="fill:#f5c211;stroke:none;stroke-width:5.3329;stroke-miterlimit:4;stroke-dasharray:none;stroke-dashoffset:59.5276;paint-order:stroke fill markers;stop-color:#000000" id="path1715" d="m 36.877897,68.493078 c -0.745752,0.745751 -16.831781,0.745751 -17.577533,0 -0.745751,-0.745752 -0.745752,-16.831781 0,-17.577533 0.745752,-0.745751 16.831781,-0.745752 17.577533,0 0.745751,0.745752 0.745751,16.831781 0,17.577533 z" transform="matrix(0.79803467,-0.01728871,0.0172722,0.79879682,2203.2044,-51.537066)"/>
      <path style="fill:#f5c211;stroke:none;stroke-width:5.3329;stroke-miterlimit:4;stroke-dasharray:none;stroke-dashoffset:59.5276;paint-order:stroke fill markers;stop-color:#000000" id="path1717" d="m 36.877897,68.493078 c -0.745752,0.745751 -16.831781,0.745751 -17.577533,0 -0.745751,-0.745752 -0.745752,-16.831781 0,-17.577533 0.745752,-0.745751 16.831781,-0.745752 17.577533,0 0.745751,0.745752 0.745751,16.831781 0,17.577533 z" transform="matrix(-0.79788747,0.02311413,0.0230921,0.79864948,2247.7024,-69.190619)"/>
      <path style="fill:#f5c211;stroke:none;stroke-width:5.3329;stroke-miterlimit:4;stroke-dasharray:none;stroke-dashoffset:59.5276;paint-order:stroke fill markers;stop-color:#000000" id="path1719" d="m 36.877897,68.493078 c -0.745752,0.745751 -16.831781,0.745751 -17.577533,0 -0.745751,-0.745752 -0.745752,-16.831781 0,-17.577533 0.745752,-0.745751 16.831781,-0.745752 17.577533,0 0.745751,0.745752 0.745751,16.831781 0,17.577533 z" transform="matrix(0.797687,-0.02923604,0.02920814,0.79844882,2202.9541,-83.89151)"/>
      <path d="m 2248.0385,39.840729 c -0.9511,-2.693833 -4.9563,-11.22022 -5.4089,-12.462029 -0.6464,-1.773509 -2.8544,0.812081 -5.2433,-4.718633 4.9903,-1.158826 3.1773,-4.854432 3.2382,-5.790316 0.096,-1.477135 -2.4854,-4.516319 -2.983,-5.914921 7.0369,-3.0330313 9.2715,5.80552 8.745,10.642034 1.136,2.724693 10.3278,11.381109 12.0466,12.647928" style="font-variation-settings:normal;opacity:1;vector-effect:none;fill:none;fill-opacity:1;stroke:#c0bfbc;stroke-width:3.30382;stroke-linecap:round;stroke-linejoin:round;stroke-miterlimit:4;stroke-dasharray:none;stroke-dashoffset:0;stroke-opacity:1;stop-color:#000000" id="path2378"/>
    </g>
  </g>
</svg>
