<svg xmlns:dc="http://purl.org/dc/elements/1.1/" xmlns:cc="http://creativecommons.org/ns#" xmlns:rdf="http://www.w3.org/1999/02/22-rdf-syntax-ns#" xmlns:svg="http://www.w3.org/2000/svg" xmlns="http://www.w3.org/2000/svg" xmlns:xlink="http://www.w3.org/1999/xlink" xmlns:sodipodi="http://sodipodi.sourceforge.net/DTD/sodipodi-0.dtd" xmlns:inkscape="http://www.inkscape.org/namespaces/inkscape" id="svg5173" version="1.1" viewBox="0 0 33.866667 33.866669" height="128" width="128">
  <defs id="defs5167">
    <linearGradient id="linearGradient7587">
      <stop style="stop-color:#deddda;stop-opacity:1" offset="0" id="stop7583"/>
      <stop style="stop-color:#ffffff;stop-opacity:0" offset="1" id="stop7585"/>
    </linearGradient>
    <linearGradient xlink:href="#linearGradient7587" id="linearGradient7723" gradientUnits="userSpaceOnUse" gradientTransform="matrix(-1.4777941,0.18817504,0.18811487,1.4782668,5706.0853,-433.37893)" x1="2383.6506" y1="-22.427191" x2="2383.6506" y2="37.364632"/>
  </defs>
  <g transform="translate(-510.96542,57.324495)" id="layer1">
    <g id="g7637" transform="matrix(0.24036719,0,0,0.24013786,-7.4414763,-44.370594)" style="opacity:1;stroke-width:1.10128">
      <path style="font-variation-settings:normal;opacity:1;vector-effect:none;fill:url(#linearGradient7723);fill-opacity:1;stroke:#c0bfbc;stroke-width:3.30381581;stroke-linecap:round;stroke-linejoin:round;stroke-miterlimit:4;stroke-dasharray:none;stroke-dashoffset:0;stroke-opacity:1;stop-color:#000000;stop-opacity:1" d="m 2202.9615,70.164007 c 0.3695,-0.908861 1.5014,-14.929672 0.6059,-13.639572 -0.7307,1.052838 -3.6504,0.863939 -4.2226,0.713972 -2.3326,2.085033 -20.1869,-27.777334 -24.4081,-37.316236 -6.3663,-5.886711 -14.0932,-10.6499027 -10.689,-15.9409668 0.6461,-2.0383671 10.2559,7.9899928 14.4045,7.2704318 2.9326,0.870507 6.5679,-2.2870277 7.6062,0.01588 1.0383,2.302911 -0.8148,3.497067 -3.3971,4.257991 -8.7252,2.571057 8.911,7.091614 18.01,24.614914 1.5701,-2.735144 2.1913,-14.263682 9.522,-19.092947 7.5832,-2.112201 14.2084,-3.27295 11.4167,-14.7206648 -5.6511,-4.869276 -8.26,-12.0666991 -7.7342,-16.9354842 0.3114,-10.069529 9.7743,-19.973204 20.2565,-18.330367 4.1024,0.833386 10.1997,6.817 11.7074,10.239737 1.2337,2.801095 -1.8857,2.822808 -0.9755,5.816167 0.8095,3.5986024 4.8947,5.7927005 4.117,9.2835329 -0.3191,1.4325928 -3.4387,2.0870097 -3.8225,3.30539784 -0.4898,1.55445416 0.1286,5.25183546 -0.027,7.06338346 -0.2139,2.499895 -7.6339,4.0597228 -7.2083,6.6456318 1.0609,5.252775 12.9309,10.020741 12.1506,15.808785 0.2141,2.945083 2.786,9.032066 4.1556,14.626218 1.6621,0.468365 10.3154,-12.051248 16.2577,-15.576326 1.5467,-0.917476 -1.639,-6.439135 1.6852,-7.119479 2.5422,-0.520271 3.8962,3.318774 5.1086,3.461338 5.0268,0.591082 12.1889,-2.14823 13.3575,0.360344 1.1006,2.362699 -5.928,5.942863 -13.0918,7.055654 -2.4174,4.07811 -14.2714,23.364153 -23.6286,30.997033 -1.7749,1.447816 -5.2122,-1.706665 -5.3584,0.186861 -0.1272,1.647202 0.5513,6.596154 0.5513,6.596154" id="path3038"/>
      <g aria-label="?" transform="matrix(0.98247248,0.18400616,-0.18383061,0.98341079,0,0)" id="text3052" style="font-style:normal;font-weight:normal;font-size:53.8623px;line-height:1.25;font-family:sans-serif;letter-spacing:0px;word-spacing:0px;fill:#f4c435;fill-opacity:1;stroke:none;stroke-width:1.21281">
        <path d="m 2137.1573,-412.29658 h 11.0956 c 0,-4.14739 8.618,-5.60168 8.618,-13.84261 0,-6.73279 -6.3019,-10.2877 -14.7583,-10.2877 -8.6179,0 -14.058,3.55491 -16.805,8.72569 l 9.5875,4.79375 c 1.1311,-2.26222 3.2856,-3.66264 5.6017,-3.66264 1.9929,0 3.6087,0.8618 3.6087,2.53153 0,3.2856 -6.9482,5.22464 -6.9482,11.74198 z m 5.5478,14.97372 c 4.2013,0 7.1098,-2.90856 7.1098,-6.46347 0,-3.60878 -2.9085,-6.35576 -7.1098,-6.35576 -4.2012,0 -7.1098,2.74698 -7.1098,6.35576 0,3.55491 2.9086,6.46347 7.1098,6.46347 z" style="font-style:normal;font-variant:normal;font-weight:900;font-stretch:normal;font-family:Montserrat;-inkscape-font-specification:'Montserrat Heavy';fill:#f4c435;fill-opacity:1;stroke-width:1.21281" id="path3105"/>
      </g>
      <g aria-label="?!" transform="matrix(0.99004835,-0.137427,0.13729589,0.99099387,0,0)" id="text3084" style="font-style:normal;font-weight:normal;font-size:35.2407px;line-height:1.25;font-family:sans-serif;letter-spacing:0px;word-spacing:0px;fill:#241e30;fill-opacity:1;stroke:none;stroke-width:1.21281">
        <path d="m 2249.7516,320.16319 h 7.2596 c 0,-2.71353 5.6385,-3.66503 5.6385,-9.05686 0,-4.40509 -4.1232,-6.73097 -9.6559,-6.73097 -5.6386,0 -9.1979,2.32588 -10.9951,5.70899 l 6.2728,3.13642 c 0.7401,-1.48011 2.1497,-2.39637 3.665,-2.39637 1.3039,0 2.3612,0.56385 2.3612,1.65632 0,2.14968 -4.5461,3.41834 -4.5461,7.68247 z m 3.6298,9.79691 c 2.7488,0 4.6518,-1.90299 4.6518,-4.22888 0,-2.36113 -1.903,-4.1584 -4.6518,-4.1584 -2.7488,0 -4.6518,1.79727 -4.6518,4.1584 0,2.32589 1.903,4.22888 4.6518,4.22888 z" style="font-style:normal;font-variant:normal;font-weight:900;font-stretch:normal;font-size:35.2407px;font-family:Montserrat;-inkscape-font-specification:'Montserrat Heavy';fill:#241e30;fill-opacity:1;stroke-width:1.21281" id="path3100"/>
        <path d="m 2266.1737,320.16319 h 6.3434 l 1.5858,-15.22398 h -9.515 z m 3.1717,9.79691 c 2.7488,0 4.6518,-1.90299 4.6518,-4.22888 0,-2.36113 -1.903,-4.1584 -4.6518,-4.1584 -2.7488,0 -4.6518,1.79727 -4.6518,4.1584 0,2.32589 1.903,4.22888 4.6518,4.22888 z" style="font-style:normal;font-variant:normal;font-weight:900;font-stretch:normal;font-size:35.2407px;font-family:Montserrat;-inkscape-font-specification:'Montserrat Heavy';fill:#241e30;fill-opacity:1;stroke-width:1.21281" id="path3102"/>
      </g>
    </g>
  </g>
</svg>
