<svg xmlns:dc="http://purl.org/dc/elements/1.1/" xmlns:cc="http://creativecommons.org/ns#" xmlns:rdf="http://www.w3.org/1999/02/22-rdf-syntax-ns#" xmlns:svg="http://www.w3.org/2000/svg" xmlns="http://www.w3.org/2000/svg" xmlns:sodipodi="http://sodipodi.sourceforge.net/DTD/sodipodi-0.dtd" xmlns:inkscape="http://www.inkscape.org/namespaces/inkscape" id="svg5173" version="1.1" viewBox="0 0 12.7 12.700001" height="48" width="48">
  <defs id="defs5167"/>
  <g transform="translate(-510.96542,57.324495)" id="layer1">
    <path id="path8414" d="m 515.54035,-46.145373 c -0.99536,-0.370026 -1.86253,-1.055991 -2.45716,-1.943714 -0.19186,-0.286441 -0.47877,-0.87541 -0.58449,-1.199859 -0.33355,-1.023691 -0.33274,-2.099266 0.002,-3.117631 0.6264,-1.903601 2.31951,-3.246983 4.34059,-3.443986 1.48999,-0.145237 3.00661,0.402255 4.07563,1.471282 1.04809,1.048083 1.58766,2.545056 1.44113,3.998156 -0.0348,0.344868 -0.12771,0.790843 -0.22886,1.098343 -0.10546,0.320597 -0.39393,0.910853 -0.58339,1.193695 -0.50792,0.758287 -1.17876,1.343681 -1.99203,1.738307 -0.57728,0.280119 -0.78993,0.328003 -0.91256,0.205492 -0.0492,-0.04919 -0.051,-0.07619 -0.0633,-0.971044 -0.0121,-0.884232 -0.0148,-0.926603 -0.0684,-1.076966 -0.0307,-0.08609 -0.0984,-0.219073 -0.15047,-0.295524 -0.0631,-0.09262 -0.0845,-0.14196 -0.0641,-0.147864 0.0168,-0.0049 0.14443,-0.02724 0.2835,-0.0497 0.49,-0.07915 0.96045,-0.276669 1.25649,-0.527544 0.32951,-0.279248 0.56902,-0.727952 0.65702,-1.230864 0.13907,-0.794831 0.0182,-1.421566 -0.3668,-1.901386 l -0.0934,-0.116473 0.0439,-0.158437 c 0.0602,-0.217118 0.0588,-0.601599 -0.003,-0.859762 -0.0732,-0.305383 -0.0851,-0.323125 -0.2167,-0.323125 -0.24541,0 -0.63404,0.141466 -1.021,0.371649 l -0.25576,0.152142 -0.18696,-0.04307 c -0.3797,-0.08747 -0.5719,-0.106444 -1.07793,-0.106444 -0.50603,0 -0.69823,0.01898 -1.07793,0.106444 l -0.18696,0.04307 -0.25576,-0.152142 c -0.38695,-0.230183 -0.77559,-0.371649 -1.021,-0.371649 -0.13158,0 -0.14348,0.01774 -0.21669,0.323125 -0.0619,0.258163 -0.0633,0.642644 -0.003,0.859762 l 0.0439,0.158437 -0.0934,0.116473 c -0.3094,0.385635 -0.45243,0.876553 -0.41862,1.436764 0.0541,0.895718 0.33943,1.470108 0.91799,1.847796 0.27556,0.179884 0.67826,0.323717 1.08346,0.386976 0.31212,0.04873 0.29292,0.0317 0.19152,0.169842 -0.0884,0.120388 -0.20209,0.398127 -0.20305,0.495915 -10e-4,0.126865 -0.57706,0.222166 -0.85668,0.141786 -0.25873,-0.07438 -0.44232,-0.223226 -0.62227,-0.504537 -0.11472,-0.179329 -0.27465,-0.329341 -0.45176,-0.42374 -0.29421,-0.156813 -0.65904,-0.105037 -0.51919,0.07368 0.0161,0.02062 0.0893,0.0815 0.1625,0.135304 0.22828,0.167696 0.36849,0.343679 0.51676,0.648596 0.15759,0.324086 0.28608,0.47025 0.51495,0.585782 0.23879,0.120542 0.42395,0.152961 0.78562,0.137549 0.17217,-0.0073 0.34284,-0.02053 0.37926,-0.02933 l 0.0662,-0.01599 v 0.510074 c 0,0.30379 -0.01,0.52881 -0.0248,0.556402 -0.0325,0.06079 -0.14823,0.119366 -0.23287,0.117896 -0.0371,-6.35e-4 -0.15068,-0.03213 -0.25245,-0.06996 z m -0.0792,-1.478559 c -0.0637,-0.04659 -0.0311,-0.111843 0.0558,-0.111843 0.0385,0 0.0845,0.01743 0.10219,0.03873 0.0273,0.0329 0.0252,0.04377 -0.0137,0.07224 -0.0574,0.04197 -0.0879,0.04216 -0.14431,8.74e-4 z m 0.37255,-0.03929 c -0.0601,-0.03828 0.003,-0.108677 0.0969,-0.108677 0.0916,0 0.11512,0.03734 0.0589,0.09352 -0.0437,0.04375 -0.10211,0.04942 -0.15587,0.01515 z m -0.79439,-0.03613 c -0.0424,-0.05112 -0.012,-0.108667 0.0575,-0.108667 0.0718,0 0.13793,0.06044 0.11928,0.109057 -0.0177,0.04603 -0.13845,0.04576 -0.17675,-3.97e-4 z m -0.33256,-0.185724 c -0.0159,-0.01589 -0.0289,-0.05382 -0.0289,-0.08428 0,-0.04174 0.0136,-0.05538 0.0554,-0.05538 0.0706,0 0.11318,0.04261 0.11318,0.113177 0,0.04174 -0.0136,0.05538 -0.0554,0.05538 -0.0305,0 -0.0684,-0.013 -0.0843,-0.0289 z m -0.2503,-0.32092 c -0.0212,-0.04644 -0.0209,-0.0677 10e-4,-0.08976 0.0419,-0.04186 0.11002,0.0077 0.11948,0.08682 0.006,0.05107 -0.002,0.06379 -0.0427,0.06379 -0.0304,0 -0.0612,-0.02405 -0.078,-0.06085 z m -0.20077,-0.278692 c -0.0245,-0.07716 0.0255,-0.111657 0.0845,-0.05829 0.0661,0.05982 0.0617,0.108875 -0.01,0.108875 -0.0384,0 -0.0641,-0.01745 -0.0746,-0.05058 z m -0.21725,-0.192316 c -0.009,-0.0144 -0.004,-0.03854 0.0113,-0.05364 0.0303,-0.03025 0.1,4.23e-4 0.11701,0.05144 0.012,0.03609 -0.10609,0.03812 -0.12829,0.0022 z" style="opacity:1;fill:#241f31;stroke-width:0.264583"/>
  </g>
</svg>
