<?xml version="1.0" encoding="UTF-8" standalone="no"?>
<svg
   xmlns:dc="http://purl.org/dc/elements/1.1/"
   xmlns:cc="http://creativecommons.org/ns#"
   xmlns:rdf="http://www.w3.org/1999/02/22-rdf-syntax-ns#"
   xmlns:svg="http://www.w3.org/2000/svg"
   xmlns="http://www.w3.org/2000/svg"
   xmlns:sodipodi="http://sodipodi.sourceforge.net/DTD/sodipodi-0.dtd"
   xmlns:inkscape="http://www.inkscape.org/namespaces/inkscape"
   width="50.711021"
   height="47.654362"
   viewBox="0 0 13.417291 12.60855"
   version="1.1"
   id="svg2983"
   inkscape:version="1.0.2 (e86c870879, 2021-01-15)"
   sodipodi:docname="icon-bug.svg">
  <defs
     id="defs2977" />
  <sodipodi:namedview
     id="base"
     pagecolor="#ffffff"
     bordercolor="#666666"
     borderopacity="1.0"
     inkscape:pageopacity="0.0"
     inkscape:pageshadow="2"
     inkscape:zoom="1"
     inkscape:cx="937.09476"
     inkscape:cy="149.07088"
     inkscape:document-units="mm"
     inkscape:current-layer="layer1"
     inkscape:document-rotation="0"
     showgrid="false"
     units="px"
     fit-margin-top="2"
     lock-margins="true"
     fit-margin-left="2"
     fit-margin-right="2"
     fit-margin-bottom="2"
     inkscape:window-width="3840"
     inkscape:window-height="1136"
     inkscape:window-x="0"
     inkscape:window-y="27"
     inkscape:window-maximized="1" />
  <metadata
     id="metadata2980">
    <rdf:RDF>
      <cc:Work
         rdf:about="">
        <dc:format>image/svg+xml</dc:format>
        <dc:type
           rdf:resource="http://purl.org/dc/dcmitype/StillImage" />
        <dc:title></dc:title>
      </cc:Work>
    </rdf:RDF>
  </metadata>
  <g
     inkscape:label="Layer 1"
     inkscape:groupmode="layer"
     id="layer1"
     transform="translate(-173.208,62.244763)">
    <g
       id="g6283"
       transform="matrix(0.21354713,0.02826294,-0.02641348,0.22849961,-542.9456,-180.68078)"
       style="mix-blend-mode:normal;stroke-width:1.18872">
      <path
         id="path6184"
         style="fill:#c01c28;stroke:none;stroke-width:5.63896;stroke-linejoin:round;stop-color:#000000"
         d="m 3330.8965,736.57812 a 1.5,1.5 0 0 0 -1.2988,0.85547 l -4.0528,8.54102 a 1.50015,1.50015 0 0 0 0.3321,1.73828 l 4.4941,4.20117 a 6.6232882,6.6232882 0 0 0 0.016,0.10938 l -3.8515,-1.17774 -6.3067,-8.67773 a 1.5,1.5 0 0 0 -1.2422,-0.61914 1.5,1.5 0 0 0 -0.8535,0.28711 1.5,1.5 0 0 0 -0.332,2.0957 l 6.6035,9.08398 a 1.50015,1.50015 0 0 0 0.7734,0.55274 l 3.084,0.94336 -5.9219,1.81055 a 1.50015,1.50015 0 0 0 -0.7753,0.55273 l -8.2676,11.37695 a 1.5,1.5 0 0 0 0.332,2.09571 1.5,1.5 0 0 0 2.0938,-0.33204 l 7.9746,-10.9707 2.2011,-0.67187 a 13.746576,13.746576 0 0 0 -2.7226,8.20703 13.746576,13.746576 0 0 0 13.748,13.74609 13.746576,13.746576 0 0 0 13.7461,-13.74609 13.746576,13.746576 0 0 0 -2.6836,-8.16016 l 2.041,0.625 7.9727,10.9707 a 1.5,1.5 0 0 0 2.0957,0.33204 1.5,1.5 0 0 0 0.332,-2.09571 l -8.2695,-11.37695 a 1.50015,1.50015 0 0 0 -0.7734,-0.55273 l -5.9239,-1.81055 3.086,-0.94336 a 1.50015,1.50015 0 0 0 0.7734,-0.55274 l 6.6035,-9.08398 a 1.5,1.5 0 0 0 -0.332,-2.0957 1.5,1.5 0 0 0 -0.8652,-0.28711 1.5,1.5 0 0 0 -1.2305,0.61914 l -6.3066,8.67773 -3.7227,1.13868 a 6.6232882,6.6232882 0 0 0 0.027,-0.20118 l 4.3536,-4.07031 a 1.50015,1.50015 0 0 0 0.332,-1.73828 l -4.0527,-8.54102 a 1.5,1.5 0 0 0 -1.4141,-0.85547 1.5,1.5 0 0 0 -0.584,0.14258 1.5,1.5 0 0 0 -0.7129,1.99805 l 3.582,7.55078 -2.0585,1.92383 a 6.6232882,6.6232882 0 0 0 -6.0157,-3.85547 6.6232882,6.6232882 0 0 0 -6.0527,3.93555 l -2.1445,-2.00391 3.582,-7.55078 a 1.5,1.5 0 0 0 -0.7129,-1.99805 1.5,1.5 0 0 0 -0.6992,-0.14258 z"
         transform="translate(65,-633)" />
      <path
         style="color:#000000;font-style:normal;font-variant:normal;font-weight:normal;font-stretch:normal;font-size:medium;line-height:normal;font-family:sans-serif;font-variant-ligatures:normal;font-variant-position:normal;font-variant-caps:normal;font-variant-numeric:normal;font-variant-alternates:normal;font-variant-east-asian:normal;font-feature-settings:normal;font-variation-settings:normal;text-indent:0;text-align:start;text-decoration:none;text-decoration-line:none;text-decoration-style:solid;text-decoration-color:#000000;letter-spacing:normal;word-spacing:normal;text-transform:none;writing-mode:lr-tb;direction:ltr;text-orientation:mixed;dominant-baseline:auto;baseline-shift:baseline;text-anchor:start;white-space:normal;shape-padding:0;shape-margin:0;inline-size:0;clip-rule:nonzero;display:inline;overflow:visible;visibility:visible;opacity:1;isolation:auto;mix-blend-mode:normal;color-interpolation:sRGB;color-interpolation-filters:linearRGB;solid-color:#000000;solid-opacity:1;vector-effect:none;fill:#ffffff;fill-opacity:1;fill-rule:nonzero;stroke:none;stroke-width:1.18872;stroke-linecap:round;stroke-linejoin:round;stroke-miterlimit:4;stroke-dasharray:none;stroke-dashoffset:0;stroke-opacity:1;color-rendering:auto;image-rendering:auto;shape-rendering:auto;text-rendering:auto;enable-background:accumulate;stop-color:#000000;stop-opacity:1"
         d="m 3402.0312,119.79492 a 2.1500001,2.1500001 0 0 0 -2.1503,2.15039 v 9.15235 a 2.1500001,2.1500001 0 0 0 2.1503,2.14843 2.1500001,2.1500001 0 0 0 2.1485,-2.14843 v -9.15235 a 2.1500001,2.1500001 0 0 0 -2.1485,-2.15039 z"
         id="path6202" />
      <path
         style="color:#000000;font-style:normal;font-variant:normal;font-weight:normal;font-stretch:normal;font-size:medium;line-height:normal;font-family:sans-serif;font-variant-ligatures:normal;font-variant-position:normal;font-variant-caps:normal;font-variant-numeric:normal;font-variant-alternates:normal;font-variant-east-asian:normal;font-feature-settings:normal;font-variation-settings:normal;text-indent:0;text-align:start;text-decoration:none;text-decoration-line:none;text-decoration-style:solid;text-decoration-color:#000000;letter-spacing:normal;word-spacing:normal;text-transform:none;writing-mode:lr-tb;direction:ltr;text-orientation:mixed;dominant-baseline:auto;baseline-shift:baseline;text-anchor:start;white-space:normal;shape-padding:0;shape-margin:0;inline-size:0;clip-rule:nonzero;display:inline;overflow:visible;visibility:visible;opacity:1;isolation:auto;mix-blend-mode:normal;color-interpolation:sRGB;color-interpolation-filters:linearRGB;solid-color:#000000;solid-opacity:1;vector-effect:none;fill:#ffffff;fill-opacity:1;fill-rule:nonzero;stroke:none;stroke-width:1.18872;stroke-linecap:round;stroke-linejoin:round;stroke-miterlimit:4;stroke-dasharray:none;stroke-dashoffset:0;stroke-opacity:1;color-rendering:auto;image-rendering:auto;shape-rendering:auto;text-rendering:auto;enable-background:accumulate;stop-color:#000000;stop-opacity:1"
         d="m 3402.0312,135.60352 a 2.1500001,2.1500001 0 0 0 -2.1503,2.15039 v 0.1875 a 2.1500001,2.1500001 0 0 0 2.1503,2.14843 2.1500001,2.1500001 0 0 0 2.1485,-2.14843 v -0.1875 a 2.1500001,2.1500001 0 0 0 -2.1485,-2.15039 z"
         id="path6221" />
    </g>
  </g>
</svg>
