<svg xmlns:dc="http://purl.org/dc/elements/1.1/" xmlns:cc="http://creativecommons.org/ns#" xmlns:rdf="http://www.w3.org/1999/02/22-rdf-syntax-ns#" xmlns:svg="http://www.w3.org/2000/svg" xmlns="http://www.w3.org/2000/svg" xmlns:xlink="http://www.w3.org/1999/xlink" xmlns:sodipodi="http://sodipodi.sourceforge.net/DTD/sodipodi-0.dtd" xmlns:inkscape="http://www.inkscape.org/namespaces/inkscape" id="svg5173" version="1.1" viewBox="0 0 33.866667 33.866669" height="128" width="128">
  <defs id="defs5167">
    <linearGradient id="linearGradient5882">
      <stop style="stop-color:#ffffff;stop-opacity:1" offset="0" id="stop5878"/>
      <stop style="stop-color:#f9f8eb;stop-opacity:1" offset="0.52617562" id="stop5888"/>
      <stop style="stop-color:#f9f06b;stop-opacity:1" offset="1" id="stop5880"/>
    </linearGradient>
    <linearGradient xlink:href="#linearGradient7587" id="linearGradient7723" gradientUnits="userSpaceOnUse" gradientTransform="matrix(-0.39975684,0.05083824,0.05088679,0.39937544,1460.7725,-151.61866)" x1="2383.6506" y1="-22.427191" x2="2383.6506" y2="37.364632"/>
    <linearGradient id="linearGradient7587">
      <stop style="stop-color:#deddda;stop-opacity:1" offset="0" id="stop7583"/>
      <stop style="stop-color:#ffffff;stop-opacity:0" offset="1" id="stop7585"/>
    </linearGradient>
    <radialGradient xlink:href="#linearGradient5882" id="radialGradient5886" cx="524.84555" cy="-50.73959" fx="524.84555" fy="-50.73959" r="4.4542189" gradientTransform="matrix(1,0,0,1.0907169,0,4.6029364)" gradientUnits="userSpaceOnUse"/>
    <radialGradient xlink:href="#linearGradient5882" id="radialGradient5910" gradientUnits="userSpaceOnUse" gradientTransform="matrix(1,0,0,1.0907169,-2.9652371,4.2687257)" cx="524.84555" cy="-50.73959" fx="524.84555" fy="-50.73959" r="4.4542189"/>
    <radialGradient xlink:href="#linearGradient5882" id="radialGradient5965" gradientUnits="userSpaceOnUse" gradientTransform="matrix(1,0,0,1.0907169,-2.9652371,4.2687257)" cx="524.84555" cy="-50.73959" fx="524.84555" fy="-50.73959" r="4.4542189"/>
    <radialGradient xlink:href="#linearGradient5882" id="radialGradient6071" gradientUnits="userSpaceOnUse" gradientTransform="matrix(1,0,0,1.0907169,-2.9652371,4.2687257)" cx="524.84555" cy="-50.73959" fx="524.84555" fy="-50.73959" r="4.4542189"/>
  </defs>
  <g transform="translate(-510.96542,57.324495)" id="layer1">
    <path d="m 515.12001,-26.084748 c 0.15199,-0.453549 0.10403,-2.012057 0.62784,-2.451982 1.31945,-1.108161 3.18478,-2.279531 1.57491,-5.305593 -0.63704,-1.086307 -1.31312,-2.243391 -1.1709,-3.558765 0.0842,-2.72043 2.64404,-5.396054 5.47956,-4.952217 1.10975,0.225152 2.75912,1.841713 3.16696,2.766415 0.33372,0.756757 -0.51009,0.762623 -0.26388,1.571323 0.21897,0.972215 1.67471,2.367383 0.75617,2.667325 -0.56092,0.183161 -0.22244,0.836053 -0.32632,1.165218 -0.13249,0.419959 -0.31538,0.987401 -0.35738,1.476817 -0.0579,0.675383 -2.06504,1.096794 -1.94991,1.795415 0.28698,1.419114 0.98777,2.005101 2.80897,2.485845 0.7109,0.08262 1.7243,1.411806 1.70448,3.482916" style="font-variation-settings:normal;opacity:1;vector-effect:none;fill:url(#linearGradient7723);fill-opacity:1;stroke:#c0bfbc;stroke-width:0.79375;stroke-linecap:round;stroke-linejoin:round;stroke-miterlimit:4;stroke-dasharray:none;stroke-dashoffset:0;stroke-opacity:1;stop-color:#000000" id="path7524-8"/>
    <g id="g6133" transform="translate(0.9995635,1.4946318)">
      <g id="g6007" transform="matrix(0.26458333,0,0,0.26458333,89.985936,-59.786159)">
        <path style="color:#000000;font-style:normal;font-variant:normal;font-weight:normal;font-stretch:normal;font-size:medium;line-height:normal;font-family:sans-serif;font-variant-ligatures:normal;font-variant-position:normal;font-variant-caps:normal;font-variant-numeric:normal;font-variant-alternates:normal;font-variant-east-asian:normal;font-feature-settings:normal;font-variation-settings:normal;text-indent:0;text-align:start;text-decoration:none;text-decoration-line:none;text-decoration-style:solid;text-decoration-color:#000000;letter-spacing:normal;word-spacing:normal;text-transform:none;writing-mode:lr-tb;direction:ltr;text-orientation:mixed;dominant-baseline:auto;baseline-shift:baseline;text-anchor:start;white-space:normal;shape-padding:0;shape-margin:0;inline-size:0;clip-rule:nonzero;display:inline;overflow:visible;visibility:visible;opacity:1;isolation:auto;mix-blend-mode:normal;color-interpolation:sRGB;color-interpolation-filters:linearRGB;solid-color:#000000;solid-opacity:1;vector-effect:none;fill:#f5c211;fill-opacity:1;fill-rule:nonzero;stroke:none;stroke-width:3;stroke-linecap:round;stroke-linejoin:round;stroke-miterlimit:4;stroke-dasharray:none;stroke-dashoffset:0;stroke-opacity:1;color-rendering:auto;image-rendering:auto;shape-rendering:auto;text-rendering:auto;enable-background:accumulate;stop-color:#000000;stop-opacity:1" d="m 1691.4627,39.366461 c -0.9335,0 -1.6904,0.756796 -1.6904,1.690358 0,0.933561 0.7569,1.690357 1.6904,1.690357 2.871,-7.9e-5 5.1058,9e-5 6.8275,0 0.9335,0 1.6903,-0.756796 1.6903,-1.690357 0,-0.933562 -0.7568,-1.690358 -1.6903,-1.690358 -1.7216,9e-5 -3.9565,-7.9e-5 -6.8275,0 z" id="path5990"/>
        <path style="color:#000000;font-style:normal;font-variant:normal;font-weight:normal;font-stretch:normal;font-size:medium;line-height:normal;font-family:sans-serif;font-variant-ligatures:normal;font-variant-position:normal;font-variant-caps:normal;font-variant-numeric:normal;font-variant-alternates:normal;font-variant-east-asian:normal;font-feature-settings:normal;font-variation-settings:normal;text-indent:0;text-align:start;text-decoration:none;text-decoration-line:none;text-decoration-style:solid;text-decoration-color:#000000;letter-spacing:normal;word-spacing:normal;text-transform:none;writing-mode:lr-tb;direction:ltr;text-orientation:mixed;dominant-baseline:auto;baseline-shift:baseline;text-anchor:start;white-space:normal;shape-padding:0;shape-margin:0;inline-size:0;clip-rule:nonzero;display:inline;overflow:visible;visibility:visible;opacity:1;isolation:auto;mix-blend-mode:normal;color-interpolation:sRGB;color-interpolation-filters:linearRGB;solid-color:#000000;solid-opacity:1;vector-effect:none;fill:#f5c211;fill-opacity:1;fill-rule:nonzero;stroke:none;stroke-width:3;stroke-linecap:round;stroke-linejoin:round;stroke-miterlimit:4;stroke-dasharray:none;stroke-dashoffset:0;stroke-opacity:1;color-rendering:auto;image-rendering:auto;shape-rendering:auto;text-rendering:auto;enable-background:accumulate;stop-color:#000000;stop-opacity:1" d="m 1636.4618,39.383528 c -0.9335,0 -1.6904,0.756796 -1.6904,1.690358 0,0.933561 0.7569,1.690357 1.6904,1.690357 2.871,-7.9e-5 5.1058,9e-5 6.8275,0 0.9335,0 1.6903,-0.756796 1.6903,-1.690357 0,-0.933562 -0.7568,-1.690358 -1.6903,-1.690358 -1.7216,9e-5 -3.9565,-7.9e-5 -6.8275,0 z" id="path6003"/>
      </g>
      <g id="g6013" transform="matrix(0.22913589,0.13229166,-0.13229166,0.22913589,154.51057,-278.91763)">
        <path style="color:#000000;font-style:normal;font-variant:normal;font-weight:normal;font-stretch:normal;font-size:medium;line-height:normal;font-family:sans-serif;font-variant-ligatures:normal;font-variant-position:normal;font-variant-caps:normal;font-variant-numeric:normal;font-variant-alternates:normal;font-variant-east-asian:normal;font-feature-settings:normal;font-variation-settings:normal;text-indent:0;text-align:start;text-decoration:none;text-decoration-line:none;text-decoration-style:solid;text-decoration-color:#000000;letter-spacing:normal;word-spacing:normal;text-transform:none;writing-mode:lr-tb;direction:ltr;text-orientation:mixed;dominant-baseline:auto;baseline-shift:baseline;text-anchor:start;white-space:normal;shape-padding:0;shape-margin:0;inline-size:0;clip-rule:nonzero;display:inline;overflow:visible;visibility:visible;opacity:1;isolation:auto;mix-blend-mode:normal;color-interpolation:sRGB;color-interpolation-filters:linearRGB;solid-color:#000000;solid-opacity:1;vector-effect:none;fill:#f5c211;fill-opacity:1;fill-rule:nonzero;stroke:none;stroke-width:3;stroke-linecap:round;stroke-linejoin:round;stroke-miterlimit:4;stroke-dasharray:none;stroke-dashoffset:0;stroke-opacity:1;color-rendering:auto;image-rendering:auto;shape-rendering:auto;text-rendering:auto;enable-background:accumulate;stop-color:#000000;stop-opacity:1" d="m 1688.99,39.275419 c -0.9335,0 -1.6904,0.756796 -1.6904,1.690358 0,0.933561 0.7569,1.690357 1.6904,1.690357 2.871,-7.9e-5 5.1058,9e-5 6.8275,0 0.9335,0 1.6903,-0.756796 1.6903,-1.690357 0,-0.933562 -0.7568,-1.690358 -1.6903,-1.690358 -1.7216,9e-5 -3.9565,-7.9e-5 -6.8275,0 z" id="path6009"/>
        <path style="color:#000000;font-style:normal;font-variant:normal;font-weight:normal;font-stretch:normal;font-size:medium;line-height:normal;font-family:sans-serif;font-variant-ligatures:normal;font-variant-position:normal;font-variant-caps:normal;font-variant-numeric:normal;font-variant-alternates:normal;font-variant-east-asian:normal;font-feature-settings:normal;font-variation-settings:normal;text-indent:0;text-align:start;text-decoration:none;text-decoration-line:none;text-decoration-style:solid;text-decoration-color:#000000;letter-spacing:normal;word-spacing:normal;text-transform:none;writing-mode:lr-tb;direction:ltr;text-orientation:mixed;dominant-baseline:auto;baseline-shift:baseline;text-anchor:start;white-space:normal;shape-padding:0;shape-margin:0;inline-size:0;clip-rule:nonzero;display:inline;overflow:visible;visibility:visible;opacity:1;isolation:auto;mix-blend-mode:normal;color-interpolation:sRGB;color-interpolation-filters:linearRGB;solid-color:#000000;solid-opacity:1;vector-effect:none;fill:#f5c211;fill-opacity:1;fill-rule:nonzero;stroke:none;stroke-width:3;stroke-linecap:round;stroke-linejoin:round;stroke-miterlimit:4;stroke-dasharray:none;stroke-dashoffset:0;stroke-opacity:1;color-rendering:auto;image-rendering:auto;shape-rendering:auto;text-rendering:auto;enable-background:accumulate;stop-color:#000000;stop-opacity:1" d="m 1636.7791,39.188146 c -0.9335,0 -1.6904,0.756796 -1.6904,1.690358 0,0.933561 0.7569,1.690357 1.6904,1.690357 2.871,-7.9e-5 5.1058,9e-5 6.8275,0 0.9335,0 1.6903,-0.756796 1.6903,-1.690357 0,-0.933562 -0.7568,-1.690358 -1.6903,-1.690358 -1.7216,9e-5 -3.9565,-7.9e-5 -6.8275,0 z" id="path6011"/>
      </g>
      <g id="g6019" transform="matrix(0.13229167,0.22913589,-0.22913589,0.13229167,319.95628,-436.42874)">
        <path style="color:#000000;font-style:normal;font-variant:normal;font-weight:normal;font-stretch:normal;font-size:medium;line-height:normal;font-family:sans-serif;font-variant-ligatures:normal;font-variant-position:normal;font-variant-caps:normal;font-variant-numeric:normal;font-variant-alternates:normal;font-variant-east-asian:normal;font-feature-settings:normal;font-variation-settings:normal;text-indent:0;text-align:start;text-decoration:none;text-decoration-line:none;text-decoration-style:solid;text-decoration-color:#000000;letter-spacing:normal;word-spacing:normal;text-transform:none;writing-mode:lr-tb;direction:ltr;text-orientation:mixed;dominant-baseline:auto;baseline-shift:baseline;text-anchor:start;white-space:normal;shape-padding:0;shape-margin:0;inline-size:0;clip-rule:nonzero;display:inline;overflow:visible;visibility:visible;opacity:1;isolation:auto;mix-blend-mode:normal;color-interpolation:sRGB;color-interpolation-filters:linearRGB;solid-color:#000000;solid-opacity:1;vector-effect:none;fill:#f5c211;fill-opacity:1;fill-rule:nonzero;stroke:none;stroke-width:3;stroke-linecap:round;stroke-linejoin:round;stroke-miterlimit:4;stroke-dasharray:none;stroke-dashoffset:0;stroke-opacity:1;color-rendering:auto;image-rendering:auto;shape-rendering:auto;text-rendering:auto;enable-background:accumulate;stop-color:#000000;stop-opacity:1" d="m 1638.99,39.275419 c -0.9335,0 -1.6904,0.756796 -1.6904,1.690358 0,0.933561 0.7569,1.690357 1.6904,1.690357 2.871,-7.9e-5 5.1058,9e-5 6.8275,0 0.9335,0 1.6903,-0.756796 1.6903,-1.690357 0,-0.933562 -0.7568,-1.690358 -1.6903,-1.690358 -1.7216,9e-5 -3.9565,-7.9e-5 -6.8275,0 z" id="path6017"/>
      </g>
      <g id="g6025" transform="matrix(0,0.26458333,-0.26458333,0,541.99202,-490.11451)">
        <path style="color:#000000;font-style:normal;font-variant:normal;font-weight:normal;font-stretch:normal;font-size:medium;line-height:normal;font-family:sans-serif;font-variant-ligatures:normal;font-variant-position:normal;font-variant-caps:normal;font-variant-numeric:normal;font-variant-alternates:normal;font-variant-east-asian:normal;font-feature-settings:normal;font-variation-settings:normal;text-indent:0;text-align:start;text-decoration:none;text-decoration-line:none;text-decoration-style:solid;text-decoration-color:#000000;letter-spacing:normal;word-spacing:normal;text-transform:none;writing-mode:lr-tb;direction:ltr;text-orientation:mixed;dominant-baseline:auto;baseline-shift:baseline;text-anchor:start;white-space:normal;shape-padding:0;shape-margin:0;inline-size:0;clip-rule:nonzero;display:inline;overflow:visible;visibility:visible;opacity:1;isolation:auto;mix-blend-mode:normal;color-interpolation:sRGB;color-interpolation-filters:linearRGB;solid-color:#000000;solid-opacity:1;vector-effect:none;fill:#f5c211;fill-opacity:1;fill-rule:nonzero;stroke:none;stroke-width:3;stroke-linecap:round;stroke-linejoin:round;stroke-miterlimit:4;stroke-dasharray:none;stroke-dashoffset:0;stroke-opacity:1;color-rendering:auto;image-rendering:auto;shape-rendering:auto;text-rendering:auto;enable-background:accumulate;stop-color:#000000;stop-opacity:1" d="m 1636.4484,39.151472 c -0.9335,0 -1.6904,0.756796 -1.6904,1.690358 0,0.933561 0.7569,1.690357 1.6904,1.690357 2.871,-7.9e-5 5.1058,9e-5 6.8275,0 0.9335,0 1.6903,-0.756796 1.6903,-1.690357 0,-0.933562 -0.7568,-1.690358 -1.6903,-1.690358 -1.7216,9e-5 -3.9565,-7.9e-5 -6.8275,0 z" id="path6023"/>
      </g>
      <g id="g6031" transform="matrix(-0.13229166,0.22913589,-0.22913589,-0.13229166,761.12349,-425.58987)">
        <path style="color:#000000;font-style:normal;font-variant:normal;font-weight:normal;font-stretch:normal;font-size:medium;line-height:normal;font-family:sans-serif;font-variant-ligatures:normal;font-variant-position:normal;font-variant-caps:normal;font-variant-numeric:normal;font-variant-alternates:normal;font-variant-east-asian:normal;font-feature-settings:normal;font-variation-settings:normal;text-indent:0;text-align:start;text-decoration:none;text-decoration-line:none;text-decoration-style:solid;text-decoration-color:#000000;letter-spacing:normal;word-spacing:normal;text-transform:none;writing-mode:lr-tb;direction:ltr;text-orientation:mixed;dominant-baseline:auto;baseline-shift:baseline;text-anchor:start;white-space:normal;shape-padding:0;shape-margin:0;inline-size:0;clip-rule:nonzero;display:inline;overflow:visible;visibility:visible;opacity:1;isolation:auto;mix-blend-mode:normal;color-interpolation:sRGB;color-interpolation-filters:linearRGB;solid-color:#000000;solid-opacity:1;vector-effect:none;fill:#f5c211;fill-opacity:1;fill-rule:nonzero;stroke:none;stroke-width:3;stroke-linecap:round;stroke-linejoin:round;stroke-miterlimit:4;stroke-dasharray:none;stroke-dashoffset:0;stroke-opacity:1;color-rendering:auto;image-rendering:auto;shape-rendering:auto;text-rendering:auto;enable-background:accumulate;stop-color:#000000;stop-opacity:1" d="m 1638.99,39.275419 c -0.9335,0 -1.6904,0.756796 -1.6904,1.690358 0,0.933561 0.7569,1.690357 1.6904,1.690357 2.871,-7.9e-5 5.1058,9e-5 6.8275,0 0.9335,0 1.6903,-0.756796 1.6903,-1.690357 0,-0.933562 -0.7568,-1.690358 -1.6903,-1.690358 -1.7216,9e-5 -3.9565,-7.9e-5 -6.8275,0 z" id="path6029"/>
      </g>
      <g id="g6037" transform="matrix(-0.22913589,0.13229166,-0.13229166,-0.22913589,918.6346,-260.14416)">
        <path style="color:#000000;font-style:normal;font-variant:normal;font-weight:normal;font-stretch:normal;font-size:medium;line-height:normal;font-family:sans-serif;font-variant-ligatures:normal;font-variant-position:normal;font-variant-caps:normal;font-variant-numeric:normal;font-variant-alternates:normal;font-variant-east-asian:normal;font-feature-settings:normal;font-variation-settings:normal;text-indent:0;text-align:start;text-decoration:none;text-decoration-line:none;text-decoration-style:solid;text-decoration-color:#000000;letter-spacing:normal;word-spacing:normal;text-transform:none;writing-mode:lr-tb;direction:ltr;text-orientation:mixed;dominant-baseline:auto;baseline-shift:baseline;text-anchor:start;white-space:normal;shape-padding:0;shape-margin:0;inline-size:0;clip-rule:nonzero;display:inline;overflow:visible;visibility:visible;opacity:1;isolation:auto;mix-blend-mode:normal;color-interpolation:sRGB;color-interpolation-filters:linearRGB;solid-color:#000000;solid-opacity:1;vector-effect:none;fill:#f5c211;fill-opacity:1;fill-rule:nonzero;stroke:none;stroke-width:3;stroke-linecap:round;stroke-linejoin:round;stroke-miterlimit:4;stroke-dasharray:none;stroke-dashoffset:0;stroke-opacity:1;color-rendering:auto;image-rendering:auto;shape-rendering:auto;text-rendering:auto;enable-background:accumulate;stop-color:#000000;stop-opacity:1" d="m 1690.703,38.905779 c -0.9335,0 -1.6904,0.756796 -1.6904,1.690358 0,0.933561 0.7569,1.690357 1.6904,1.690357 2.871,-7.9e-5 5.1058,9e-5 6.8275,0 0.9335,0 1.6903,-0.756796 1.6903,-1.690357 0,-0.933562 -0.7568,-1.690358 -1.6903,-1.690358 -1.7216,9e-5 -3.9565,-7.9e-5 -6.8275,0 z" id="path6033"/>
        <path style="color:#000000;font-style:normal;font-variant:normal;font-weight:normal;font-stretch:normal;font-size:medium;line-height:normal;font-family:sans-serif;font-variant-ligatures:normal;font-variant-position:normal;font-variant-caps:normal;font-variant-numeric:normal;font-variant-alternates:normal;font-variant-east-asian:normal;font-feature-settings:normal;font-variation-settings:normal;text-indent:0;text-align:start;text-decoration:none;text-decoration-line:none;text-decoration-style:solid;text-decoration-color:#000000;letter-spacing:normal;word-spacing:normal;text-transform:none;writing-mode:lr-tb;direction:ltr;text-orientation:mixed;dominant-baseline:auto;baseline-shift:baseline;text-anchor:start;white-space:normal;shape-padding:0;shape-margin:0;inline-size:0;clip-rule:nonzero;display:inline;overflow:visible;visibility:visible;opacity:1;isolation:auto;mix-blend-mode:normal;color-interpolation:sRGB;color-interpolation-filters:linearRGB;solid-color:#000000;solid-opacity:1;vector-effect:none;fill:#f5c211;fill-opacity:1;fill-rule:nonzero;stroke:none;stroke-width:3;stroke-linecap:round;stroke-linejoin:round;stroke-miterlimit:4;stroke-dasharray:none;stroke-dashoffset:0;stroke-opacity:1;color-rendering:auto;image-rendering:auto;shape-rendering:auto;text-rendering:auto;enable-background:accumulate;stop-color:#000000;stop-opacity:1" d="m 1636.9302,39.180903 c -0.9335,0 -1.6904,0.756796 -1.6904,1.690358 0,0.933561 0.7569,1.690357 1.6904,1.690357 2.871,-7.9e-5 5.1058,9e-5 6.8275,0 0.9335,0 1.6903,-0.756796 1.6903,-1.690357 0,-0.933562 -0.7568,-1.690358 -1.6903,-1.690358 -1.7216,9e-5 -3.9565,-7.9e-5 -6.8275,0 z" id="path6035"/>
      </g>
      <g id="g6082">
        <path style="color:#000000;font-style:normal;font-variant:normal;font-weight:normal;font-stretch:normal;font-size:medium;line-height:normal;font-family:sans-serif;font-variant-ligatures:normal;font-variant-position:normal;font-variant-caps:normal;font-variant-numeric:normal;font-variant-alternates:normal;font-variant-east-asian:normal;font-feature-settings:normal;font-variation-settings:normal;text-indent:0;text-align:start;text-decoration:none;text-decoration-line:none;text-decoration-style:solid;text-decoration-color:#000000;letter-spacing:normal;word-spacing:normal;text-transform:none;writing-mode:lr-tb;direction:ltr;text-orientation:mixed;dominant-baseline:auto;baseline-shift:baseline;text-anchor:start;white-space:normal;shape-padding:0;shape-margin:0;inline-size:0;clip-rule:nonzero;display:inline;overflow:visible;visibility:visible;isolation:auto;mix-blend-mode:normal;color-interpolation:sRGB;color-interpolation-filters:linearRGB;solid-color:#000000;solid-opacity:1;vector-effect:none;fill:#77767b;fill-opacity:1;fill-rule:nonzero;stroke:none;stroke-width:0.294;stroke-linecap:round;stroke-linejoin:round;stroke-miterlimit:4;stroke-dasharray:none;stroke-dashoffset:0;stroke-opacity:1;color-rendering:auto;image-rendering:auto;shape-rendering:auto;text-rendering:auto;enable-background:accumulate;stop-color:#000000" d="m 531.35056,-43.047978 c 0.003,0.0079 -0.028,0.0024 0,0 z" id="path5943"/>
        <g id="g6069" transform="translate(0,0.59531249)">
          <g id="g5959" style="opacity:1" transform="translate(9.2724395,1.7694697)">
            <path style="color:#000000;font-style:normal;font-variant:normal;font-weight:normal;font-stretch:normal;font-size:medium;line-height:normal;font-family:sans-serif;font-variant-ligatures:normal;font-variant-position:normal;font-variant-caps:normal;font-variant-numeric:normal;font-variant-alternates:normal;font-variant-east-asian:normal;font-feature-settings:normal;font-variation-settings:normal;text-indent:0;text-align:start;text-decoration:none;text-decoration-line:none;text-decoration-style:solid;text-decoration-color:#000000;letter-spacing:normal;word-spacing:normal;text-transform:none;writing-mode:lr-tb;direction:ltr;text-orientation:mixed;dominant-baseline:auto;baseline-shift:baseline;text-anchor:start;white-space:normal;shape-padding:0;shape-margin:0;inline-size:0;clip-rule:nonzero;display:inline;overflow:visible;visibility:visible;isolation:auto;mix-blend-mode:normal;color-interpolation:sRGB;color-interpolation-filters:linearRGB;solid-color:#000000;solid-opacity:1;vector-effect:none;fill:url(#radialGradient6071);fill-opacity:1;fill-rule:nonzero;stroke:none;stroke-width:0.793747;stroke-linecap:round;stroke-linejoin:round;stroke-miterlimit:4;stroke-dasharray:none;stroke-dashoffset:0;stroke-opacity:1;color-rendering:auto;image-rendering:auto;shape-rendering:auto;text-rendering:auto;enable-background:accumulate;stop-color:#000000;stop-opacity:1" d="m 521.88047,-55.53532 c -2.24777,0 -4.05763,1.809865 -4.05763,4.057634 v 0.807702 c 0,1.549463 0.86008,2.890646 2.13062,3.574459 -0.005,0.06224 -0.008,2.241602 -0.008,2.305286 0,1.189284 0.86319,1.882055 1.93528,1.882055 1.07208,0 1.93477,-0.692771 1.93477,-1.882055 0,-0.06368 -0.003,-2.243042 -0.008,-2.305286 1.27055,-0.683811 2.13062,-2.024991 2.13062,-3.574459 v -0.807702 c 0,-2.247769 -1.80935,-4.057634 -4.05712,-4.057634 z" id="path5961"/>
            <path style="color:#000000;font-style:normal;font-variant:normal;font-weight:normal;font-stretch:normal;font-size:medium;line-height:normal;font-family:sans-serif;font-variant-ligatures:normal;font-variant-position:normal;font-variant-caps:normal;font-variant-numeric:normal;font-variant-alternates:normal;font-variant-east-asian:normal;font-feature-settings:normal;font-variation-settings:normal;text-indent:0;text-align:start;text-decoration:none;text-decoration-line:none;text-decoration-style:solid;text-decoration-color:#000000;letter-spacing:normal;word-spacing:normal;text-transform:none;writing-mode:lr-tb;direction:ltr;text-orientation:mixed;dominant-baseline:auto;baseline-shift:baseline;text-anchor:start;white-space:normal;shape-padding:0;shape-margin:0;inline-size:0;clip-rule:nonzero;display:inline;overflow:visible;visibility:visible;isolation:auto;mix-blend-mode:normal;color-interpolation:sRGB;color-interpolation-filters:linearRGB;solid-color:#000000;solid-opacity:1;vector-effect:none;fill:#f5c211;fill-opacity:1;fill-rule:nonzero;stroke:none;stroke-width:0.793747;stroke-linecap:round;stroke-linejoin:round;stroke-miterlimit:4;stroke-dasharray:none;stroke-dashoffset:0;stroke-opacity:1;color-rendering:auto;image-rendering:auto;shape-rendering:auto;text-rendering:auto;enable-background:accumulate;stop-color:#000000;stop-opacity:1" d="m 521.88086,-55.931641 c -2.46081,0 -4.45508,1.99232 -4.45508,4.453125 v 0.808594 c 0,1.59044 0.87523,2.935434 2.12891,3.722656 -4.8e-4,0.06298 -0.002,0.134358 -0.002,0.226563 -9.8e-4,0.214613 -10e-4,0.494952 -0.002,0.775391 -10e-4,0.560876 -0.002,1.116222 -0.002,1.154296 0,0.69066 0.26157,1.282408 0.69336,1.679688 0.43178,0.397279 1.01714,0.599609 1.63867,0.599609 0.62153,0 1.20701,-0.202301 1.63867,-0.599609 0.43166,-0.397309 0.69336,-0.989083 0.69336,-1.679688 0,-0.03807 -5.8e-4,-0.59342 -0.002,-1.154296 -6.9e-4,-0.280439 -0.003,-0.560778 -0.004,-0.775391 -4.2e-4,-0.0922 4.8e-4,-0.163578 0,-0.226563 1.25368,-0.787221 2.12891,-2.132214 2.12891,-3.722656 v -0.808594 c 0,-2.460745 -1.99427,-4.453125 -4.45508,-4.453125 z m 0,0.792969 c 2.03473,0 3.66016,1.625364 3.66016,3.660156 v 0.808594 c 0,1.402605 -0.77621,2.608009 -1.92188,3.22461 -0.13836,0.07473 -0.21956,0.224103 -0.20703,0.380859 -0.003,-0.04138 -2.7e-4,-0.008 0,0.0098 2.7e-4,0.01778 -2.8e-4,0.04383 0,0.07617 5.5e-4,0.06469 10e-4,0.154962 0.002,0.261719 9.8e-4,0.213513 10e-4,0.493295 0.002,0.773438 10e-4,0.560285 0.002,1.126736 0.002,1.152343 0,0.49868 -0.1698,0.849306 -0.4375,1.095704 -0.60301,0.122529 -1.54388,0.223819 -2.20117,0 -0.34452,-0.117316 -0.4375,-0.597079 -0.4375,-1.095704 0,-0.02561 5.8e-4,-0.592058 0.002,-1.152343 6.9e-4,-0.280143 0.003,-0.559925 0.004,-0.773438 4.9e-4,-0.106756 -5.6e-4,-0.197033 0,-0.261719 2.7e-4,-0.03234 0.002,-0.05839 0.002,-0.07617 2.7e-4,-0.01778 0.003,-0.05116 0,-0.0098 0.0122,-0.157193 -0.0699,-0.306681 -0.20899,-0.380859 -1.14566,-0.616603 -1.92187,-1.822012 -1.92187,-3.22461 v -0.808594 c 0,-2.034732 1.62738,-3.660156 3.66211,-3.660156 z" id="path5963"/>
          </g>
          <g id="g5957" transform="matrix(0.74860828,0,0,0.74860828,140.52849,-9.0902393)" style="fill:#f5c211;fill-opacity:1;stroke-width:1.33581">
            <path style="color:#000000;font-style:normal;font-variant:normal;font-weight:normal;font-stretch:normal;font-size:medium;line-height:normal;font-family:sans-serif;font-variant-ligatures:normal;font-variant-position:normal;font-variant-caps:normal;font-variant-numeric:normal;font-variant-alternates:normal;font-variant-east-asian:normal;font-feature-settings:normal;font-variation-settings:normal;text-indent:0;text-align:start;text-decoration:none;text-decoration-line:none;text-decoration-style:solid;text-decoration-color:#000000;letter-spacing:normal;word-spacing:normal;text-transform:none;writing-mode:lr-tb;direction:ltr;text-orientation:mixed;dominant-baseline:auto;baseline-shift:baseline;text-anchor:start;white-space:normal;shape-padding:0;shape-margin:0;inline-size:0;clip-rule:nonzero;display:inline;overflow:visible;visibility:visible;isolation:auto;mix-blend-mode:normal;color-interpolation:sRGB;color-interpolation-filters:linearRGB;solid-color:#000000;solid-opacity:1;vector-effect:none;fill:#f5c211;fill-opacity:1;fill-rule:nonzero;stroke:none;stroke-width:0.392729;stroke-linecap:round;stroke-linejoin:round;stroke-miterlimit:4;stroke-dasharray:none;stroke-dashoffset:0;stroke-opacity:1;color-rendering:auto;image-rendering:auto;shape-rendering:auto;text-rendering:auto;enable-background:accumulate;stop-color:#000000" d="m 522.92188,-47.212891 c -0.20283,0.02529 -0.39706,0.09983 -0.59609,0.146444 -0.55733,0.151526 -1.11646,0.295046 -1.67318,0.449525 -0.22834,0.07974 -0.32008,0.396397 -0.16283,0.582713 0.1077,0.144994 0.31231,0.180344 0.47423,0.113181 0.69757,-0.188655 1.39313,-0.369979 2.09021,-0.561517 0.23223,-0.07965 0.32429,-0.402499 0.16084,-0.589412 -0.0701,-0.08788 -0.18075,-0.141144 -0.29318,-0.140934 z" id="path5939"/>
            <path style="color:#000000;font-style:normal;font-variant:normal;font-weight:normal;font-stretch:normal;font-size:medium;line-height:normal;font-family:sans-serif;font-variant-ligatures:normal;font-variant-position:normal;font-variant-caps:normal;font-variant-numeric:normal;font-variant-alternates:normal;font-variant-east-asian:normal;font-feature-settings:normal;font-variation-settings:normal;text-indent:0;text-align:start;text-decoration:none;text-decoration-line:none;text-decoration-style:solid;text-decoration-color:#000000;letter-spacing:normal;word-spacing:normal;text-transform:none;writing-mode:lr-tb;direction:ltr;text-orientation:mixed;dominant-baseline:auto;baseline-shift:baseline;text-anchor:start;white-space:normal;shape-padding:0;shape-margin:0;inline-size:0;clip-rule:nonzero;display:inline;overflow:visible;visibility:visible;isolation:auto;mix-blend-mode:normal;color-interpolation:sRGB;color-interpolation-filters:linearRGB;solid-color:#000000;solid-opacity:1;vector-effect:none;fill:#f5c211;fill-opacity:1;fill-rule:nonzero;stroke:none;stroke-width:0.392729;stroke-linecap:round;stroke-linejoin:round;stroke-miterlimit:4;stroke-dasharray:none;stroke-dashoffset:0;stroke-opacity:1;color-rendering:auto;image-rendering:auto;shape-rendering:auto;text-rendering:auto;enable-background:accumulate;stop-color:#000000" d="m 521.47656,-48.146201 c -0.20529,0.02718 -0.40209,0.102046 -0.60379,0.149148 -0.15108,0.03625 -0.32852,0.07163 -0.40627,0.224274 -0.12261,0.194049 -0.0145,0.4767 0.20464,0.542331 0.18171,0.06264 0.36104,-0.04477 0.53795,-0.07689 0.15446,-0.04982 0.32209,-0.06645 0.46659,-0.142381 0.20465,-0.12241 0.23699,-0.443434 0.0513,-0.598459 -0.0678,-0.06187 -0.15858,-0.0979 -0.25047,-0.09802 z" id="path5930"/>
            <path style="color:#000000;font-style:normal;font-variant:normal;font-weight:normal;font-stretch:normal;font-size:medium;line-height:normal;font-family:sans-serif;font-variant-ligatures:normal;font-variant-position:normal;font-variant-caps:normal;font-variant-numeric:normal;font-variant-alternates:normal;font-variant-east-asian:normal;font-feature-settings:normal;font-variation-settings:normal;text-indent:0;text-align:start;text-decoration:none;text-decoration-line:none;text-decoration-style:solid;text-decoration-color:#000000;letter-spacing:normal;word-spacing:normal;text-transform:none;writing-mode:lr-tb;direction:ltr;text-orientation:mixed;dominant-baseline:auto;baseline-shift:baseline;text-anchor:start;white-space:normal;shape-padding:0;shape-margin:0;inline-size:0;clip-rule:nonzero;display:inline;overflow:visible;visibility:visible;isolation:auto;mix-blend-mode:normal;color-interpolation:sRGB;color-interpolation-filters:linearRGB;solid-color:#000000;solid-opacity:1;vector-effect:none;fill:#f5c211;fill-opacity:1;fill-rule:nonzero;stroke:none;stroke-width:0.392729;stroke-linecap:round;stroke-linejoin:round;stroke-miterlimit:4;stroke-dasharray:none;stroke-dashoffset:0;stroke-opacity:1;color-rendering:auto;image-rendering:auto;shape-rendering:auto;text-rendering:auto;enable-background:accumulate;stop-color:#000000" d="m 522.92188,-45.889973 c -0.20283,0.02529 -0.39706,0.09983 -0.59609,0.146444 -0.55733,0.151526 -1.11646,0.295046 -1.67318,0.449525 -0.22834,0.07974 -0.32008,0.396397 -0.16283,0.582713 0.1077,0.144994 0.31231,0.180344 0.47423,0.113181 0.69757,-0.188655 1.39313,-0.369979 2.09021,-0.561517 0.23223,-0.07965 0.32429,-0.402499 0.16084,-0.589412 -0.0701,-0.08788 -0.18075,-0.141144 -0.29318,-0.140934 z" id="path5945"/>
          </g>
        </g>
      </g>
    </g>
  </g>
</svg>
