<svg xmlns:dc="http://purl.org/dc/elements/1.1/" xmlns:cc="http://creativecommons.org/ns#" xmlns:rdf="http://www.w3.org/1999/02/22-rdf-syntax-ns#" xmlns:svg="http://www.w3.org/2000/svg" xmlns="http://www.w3.org/2000/svg" xmlns:sodipodi="http://sodipodi.sourceforge.net/DTD/sodipodi-0.dtd" xmlns:inkscape="http://www.inkscape.org/namespaces/inkscape" id="svg5173" version="1.1" viewBox="0 0 74.083334 35.983333" height="136" width="280">
  <defs id="defs5167"/>
  <g transform="translate(-395.08477,112.94911)" id="layer1">
    <g id="g7380" transform="matrix(0.32462883,0,0,0.32462883,362.20842,91.854525)" style="opacity:1;fill:#f5c211;fill-opacity:1;stroke-width:0.815033">
      <g id="g7376" style="font-style:normal;font-variant:normal;font-weight:normal;font-stretch:normal;font-size:43.3344px;line-height:140%;font-family:'Abril Fatface';-inkscape-font-specification:'Abril Fatface, Normal';text-align:start;letter-spacing:3.25006px;word-spacing:0px;writing-mode:lr-tb;text-anchor:start;fill:#f5c211;fill-opacity:1;stroke:none;stroke-width:0.815033" transform="matrix(2.06375,0,0,2.06375,512.64987,-825.47935)">
        <path id="path7370" style="font-size:50.1036px;line-height:140%;font-family:'Changa One';-inkscape-font-specification:'Changa One, Normal';letter-spacing:5.01036px;fill:#f5c211;fill-opacity:1;stroke-width:0.815033" d="m -196.15877,126.30816 c 0,5.76192 2.95612,8.76813 14.07912,8.76813 v 1.60332 c -1.4029,0.15031 -2.7557,0.20041 -4.1085,0.20041 -3.15653,0 -6.21285,-0.40083 -9.11886,-1.30269 l -1.25259,7.11471 c 3.45715,1.00208 7.51555,1.45301 11.22321,1.45301 6.51347,0 12.87663,-0.30062 12.87663,-9.06876 0,-4.86005 -2.55528,-8.4174 -13.67828,-8.4174 v -1.60332 c 1.10228,-0.10021 2.25466,-0.20042 3.40704,-0.20042 2.55529,0 5.16067,0.35073 7.81617,1.10228 l 1.15238,-6.81409 c -3.35694,-1.10228 -7.31513,-1.55321 -10.97269,-1.55321 -6.21285,0 -11.42363,1.50311 -11.42363,8.71803 z"/>
        <path id="path7372" style="font-size:50.1036px;line-height:140%;font-family:'Changa One';-inkscape-font-specification:'Changa One, Normal';letter-spacing:5.01036px;fill:#f5c211;fill-opacity:1;stroke-width:0.815033" d="m -169.97037,126.30816 c 0,5.76192 2.95612,8.76813 14.07912,8.76813 v 1.60332 c -1.4029,0.15031 -2.7557,0.20041 -4.1085,0.20041 -3.15653,0 -6.21285,-0.40083 -9.11886,-1.30269 l -1.25259,7.11471 c 3.45715,1.00208 7.51555,1.45301 11.22321,1.45301 6.51347,0 12.87663,-0.30062 12.87663,-9.06876 0,-4.86005 -2.55528,-8.4174 -13.67828,-8.4174 v -1.60332 c 1.10228,-0.10021 2.25466,-0.20042 3.40704,-0.20042 2.55529,0 5.16067,0.35073 7.81617,1.10228 l 1.15238,-6.81409 c -3.35694,-1.10228 -7.31513,-1.55321 -10.97269,-1.55321 -6.21285,0 -11.42363,1.50311 -11.42363,8.71803 z"/>
        <path id="path7374" style="font-size:50.1036px;line-height:140%;font-family:'Changa One';-inkscape-font-specification:'Changa One, Normal';letter-spacing:5.01036px;fill:#f5c211;fill-opacity:1;stroke-width:0.815033" d="m -143.78197,126.30816 c 0,5.76192 2.95612,8.76813 14.07912,8.76813 v 1.60332 c -1.4029,0.15031 -2.7557,0.20041 -4.1085,0.20041 -3.15653,0 -6.21285,-0.40083 -9.11886,-1.30269 l -1.25259,7.11471 c 3.45715,1.00208 7.51555,1.45301 11.22321,1.45301 6.51347,0 12.87663,-0.30062 12.87663,-9.06876 0,-4.86005 -2.55528,-8.4174 -13.67828,-8.4174 v -1.60332 c 1.10228,-0.10021 2.25466,-0.20042 3.40704,-0.20042 2.55529,0 5.16068,0.35073 7.81617,1.10228 l 1.15238,-6.81409 c -3.35694,-1.10228 -7.31513,-1.55321 -10.97269,-1.55321 -6.21285,0 -11.42363,1.50311 -11.42363,8.71803 z"/>
      </g>
      <path d="m 323.75669,-529.5511 v -50.95958 l -4.36064,-6.85458 4.36064,-7.61625 -4.36064,-7.61623 4.36064,-7.31155 v -5.63726 l -10.52188,-7.37999 -10.15838,8.93102 v 32.74375 h -11.89114 c -17.68163,0 -20.68028,15.20001 -20.68028,25.85035 0,12.92516 4.54966,27.40133 22.23129,27.40133 8.1687,0 13.23537,-1.96463 16.23401,-5.89386 l 4.44625,4.34285 z m -31.02039,-21.68188 c 0,-4.03265 3.02042,-4.76683 7.1347,-4.34285 2.60825,0.26876 3.11799,1.52763 3.20543,2.96202 v 5.7947 c -0.3102,3.41222 -3.21619,4.01296 -7.13469,3.72244 -2.71274,-0.20113 -3.20544,-1.45628 -3.20544,-3.06972 z" style="font-style:normal;font-variant:normal;font-weight:normal;font-stretch:normal;font-size:60px;line-height:140%;font-family:'Changa One';-inkscape-font-specification:'Changa One, Normal';text-align:start;letter-spacing:6px;word-spacing:0px;writing-mode:lr-tb;text-anchor:start;fill:#f5c211;fill-opacity:1;stroke:none;stroke-width:0.815033" id="path7378"/>
    </g>
  </g>
</svg>
