<svg xmlns:dc="http://purl.org/dc/elements/1.1/" xmlns:cc="http://creativecommons.org/ns#" xmlns:rdf="http://www.w3.org/1999/02/22-rdf-syntax-ns#" xmlns:svg="http://www.w3.org/2000/svg" xmlns="http://www.w3.org/2000/svg" xmlns:sodipodi="http://sodipodi.sourceforge.net/DTD/sodipodi-0.dtd" xmlns:inkscape="http://www.inkscape.org/namespaces/inkscape" width="24" height="24" viewBox="0 0 6.3499999 6.3500002" version="1.1" id="svg917">
  <defs id="defs911"/>
  <g id="layer1">
    <path style="color:#000000;font-style:normal;font-variant:normal;font-weight:normal;font-stretch:normal;font-size:medium;line-height:normal;font-family:sans-serif;font-variant-ligatures:normal;font-variant-position:normal;font-variant-caps:normal;font-variant-numeric:normal;font-variant-alternates:normal;font-variant-east-asian:normal;font-feature-settings:normal;font-variation-settings:normal;text-indent:0;text-align:start;text-decoration:none;text-decoration-line:none;text-decoration-style:solid;text-decoration-color:#000000;letter-spacing:normal;word-spacing:normal;text-transform:none;writing-mode:lr-tb;direction:ltr;text-orientation:mixed;dominant-baseline:auto;baseline-shift:baseline;text-anchor:start;white-space:normal;shape-padding:0;shape-margin:0;inline-size:0;clip-rule:nonzero;display:inline;overflow:visible;visibility:visible;isolation:auto;mix-blend-mode:normal;color-interpolation:sRGB;color-interpolation-filters:linearRGB;solid-color:#000000;solid-opacity:1;vector-effect:none;fill:#ffffff;fill-opacity:1;fill-rule:nonzero;stroke:none;stroke-width:0.529167;stroke-linecap:round;stroke-linejoin:round;stroke-miterlimit:4;stroke-dasharray:none;stroke-dashoffset:59.5276;stroke-opacity:1;paint-order:stroke fill markers;color-rendering:auto;image-rendering:auto;shape-rendering:auto;text-rendering:auto;enable-background:accumulate;stop-color:#000000;stop-opacity:1;opacity:1" d="M 3.703125 2.1132812 A 0.2645835 0.2645835 0 0 0 3.4375 2.3789062 A 0.2645835 0.2645835 0 0 0 3.703125 2.6425781 L 4.7539062 2.6425781 C 5.0559166 2.6425781 5.2890625 2.8770591 5.2890625 3.1757812 C 5.2890625 3.4745035 5.0559166 3.7070312 4.7539062 3.7070312 L 3.703125 3.7070312 A 0.2645835 0.2645835 0 0 0 3.4375 3.9726562 A 0.2645835 0.2645835 0 0 0 3.703125 4.2363281 L 4.7539062 4.2363281 C 5.3386791 4.2363281 5.8183594 3.7598376 5.8183594 3.1757812 C 5.8183594 2.591725 5.3386791 2.1132812 4.7539062 2.1132812 L 3.703125 2.1132812 z " id="path1549"/>
    <path style="color:#000000;font-style:normal;font-variant:normal;font-weight:normal;font-stretch:normal;font-size:medium;line-height:normal;font-family:sans-serif;font-variant-ligatures:normal;font-variant-position:normal;font-variant-caps:normal;font-variant-numeric:normal;font-variant-alternates:normal;font-variant-east-asian:normal;font-feature-settings:normal;font-variation-settings:normal;text-indent:0;text-align:start;text-decoration:none;text-decoration-line:none;text-decoration-style:solid;text-decoration-color:#000000;letter-spacing:normal;word-spacing:normal;text-transform:none;writing-mode:lr-tb;direction:ltr;text-orientation:mixed;dominant-baseline:auto;baseline-shift:baseline;text-anchor:start;white-space:normal;shape-padding:0;shape-margin:0;inline-size:0;clip-rule:nonzero;display:inline;overflow:visible;visibility:visible;isolation:auto;mix-blend-mode:normal;color-interpolation:sRGB;color-interpolation-filters:linearRGB;solid-color:#000000;solid-opacity:1;vector-effect:none;fill:#ffffff;fill-opacity:1;fill-rule:nonzero;stroke:none;stroke-width:0.529167;stroke-linecap:round;stroke-linejoin:round;stroke-miterlimit:4;stroke-dasharray:none;stroke-dashoffset:59.5276;stroke-opacity:1;paint-order:stroke fill markers;color-rendering:auto;image-rendering:auto;shape-rendering:auto;text-rendering:auto;enable-background:accumulate;stop-color:#000000;stop-opacity:1;opacity:1" d="M 2.1171875 2.9101562 A 0.2645835 0.2645835 0 0 0 1.8515625 3.1757812 A 0.2645835 0.2645835 0 0 0 2.1171875 3.4394531 L 4.2324219 3.4394531 A 0.2645835 0.2645835 0 0 0 4.4960938 3.1757812 A 0.2645835 0.2645835 0 0 0 4.2324219 2.9101562 L 2.1171875 2.9101562 z " id="path1545"/>
    <path style="color:#000000;font-style:normal;font-variant:normal;font-weight:normal;font-stretch:normal;font-size:medium;line-height:normal;font-family:sans-serif;font-variant-ligatures:normal;font-variant-position:normal;font-variant-caps:normal;font-variant-numeric:normal;font-variant-alternates:normal;font-variant-east-asian:normal;font-feature-settings:normal;font-variation-settings:normal;text-indent:0;text-align:start;text-decoration:none;text-decoration-line:none;text-decoration-style:solid;text-decoration-color:#000000;letter-spacing:normal;word-spacing:normal;text-transform:none;writing-mode:lr-tb;direction:ltr;text-orientation:mixed;dominant-baseline:auto;baseline-shift:baseline;text-anchor:start;white-space:normal;shape-padding:0;shape-margin:0;inline-size:0;clip-rule:nonzero;display:inline;overflow:visible;visibility:visible;isolation:auto;mix-blend-mode:normal;color-interpolation:sRGB;color-interpolation-filters:linearRGB;solid-color:#000000;solid-opacity:1;vector-effect:none;fill:#ffffff;fill-opacity:1;fill-rule:nonzero;stroke:none;stroke-width:0.529167;stroke-linecap:round;stroke-linejoin:round;stroke-miterlimit:4;stroke-dasharray:none;stroke-dashoffset:59.5276;stroke-opacity:1;paint-order:stroke fill markers;color-rendering:auto;image-rendering:auto;shape-rendering:auto;text-rendering:auto;enable-background:accumulate;stop-color:#000000;stop-opacity:1;opacity:1" d="M 1.5917969 2.1132812 C 1.007024 2.1132812 0.52734375 2.591725 0.52734375 3.1757812 C 0.52734375 3.7598376 1.007024 4.2363281 1.5917969 4.2363281 L 2.6425781 4.2363281 A 0.2645835 0.2645835 0 0 0 2.9082031 3.9726562 A 0.2645835 0.2645835 0 0 0 2.6425781 3.7070312 L 1.5917969 3.7070312 C 1.2897865 3.7070312 1.0566406 3.4745035 1.0566406 3.1757812 C 1.0566406 2.8770591 1.2897865 2.6425781 1.5917969 2.6425781 L 2.6425781 2.6425781 A 0.2645835 0.2645835 0 0 0 2.9082031 2.3789062 A 0.2645835 0.2645835 0 0 0 2.6425781 2.1132812 L 1.5917969 2.1132812 z " id="path1541"/>
  </g>
</svg>
