<svg xmlns:dc="http://purl.org/dc/elements/1.1/" xmlns:cc="http://creativecommons.org/ns#" xmlns:rdf="http://www.w3.org/1999/02/22-rdf-syntax-ns#" xmlns:svg="http://www.w3.org/2000/svg" xmlns="http://www.w3.org/2000/svg" xmlns:sodipodi="http://sodipodi.sourceforge.net/DTD/sodipodi-0.dtd" xmlns:inkscape="http://www.inkscape.org/namespaces/inkscape" width="160.53969" height="20.996096" viewBox="0 0 42.476124 5.5552171" version="1.1" id="svg1609">
  <defs id="defs1603"/>
  <g id="layer1" transform="translate(156.55354,-194.52597)">
    <g style="opacity:1;fill:#3d3846;stroke-width:8.47309" transform="matrix(0.03122619,0,0,0.03122619,-156.08683,194.99268)" id="g1574">
      <path style="fill:#3d3846;stroke-width:8.47309" d="m 952.14,37.81 h 36.62 c 13.85,0 25.28,10.49 25.28,24.34 0,9.34 -5.56,17 -13.64,20.88 l 16,28.22 h -20.19 l -13.75,-25.7 h -12.27 v 25.7 h -18.05 z m 18.05,15.42 v 17.42 h 16.47 c 4.93,0 9.13,-3.67 9.13,-8.5 a 9,9 0 0 0 -9.13,-8.92 z" id="path1538"/>
      <path style="fill:#3d3846;stroke-width:8.47309" d="m 1045,112.3 c -17,0 -30.21,-12.59 -30.21,-28.75 a 28.5,28.5 0 0 1 29,-28.74 c 16.15,0 28,12.69 28,29.9 v 4.61 h -39.59 a 14.34,14.34 0 0 0 13.63,8.82 c 4.62,0 8.5,-1.47 11.13,-4.2 l 11.22,10 c -7.03,5.84 -13.85,8.36 -23.18,8.36 z m -12.9,-34.83 h 23.08 c -1.89,-5.25 -6.29,-8.71 -11.64,-8.71 -5.54,0 -9.77,3.24 -11.45,8.71 z" id="path1540"/>
      <path style="fill:#3d3846;stroke-width:8.47309" d="m 1119.8,107.16 a 25.1,25.1 0 0 1 -14.9,4.93 28.591228,28.591228 0 0 1 0.53,-57.18 28.63,28.63 0 0 1 14.16,3.78 V 37.81 l 17,-5.24 v 78.68 h -16.79 z m -12.17,-9.55 a 16.86,16.86 0 0 0 12,-4.4 V 73.8 a 17.91,17.91 0 0 0 -12,-4.3 c -8.18,0 -14.58,6.19 -14.58,14 a 14.24,14.24 0 0 0 14.58,14.11 z" id="path1542"/>
      <path style="fill:#3d3846;stroke-width:8.47309" d="m 1206.36,82.5 h -28.12 v 28.75 h -18 V 37.81 h 18 V 66 h 28.12 V 37.81 h 18 v 73.44 h -18 z" id="path1544"/>
      <path style="fill:#3d3846;stroke-width:8.47309" d="m 1264,107.89 c -4.41,3 -9,4.31 -14.9,4.31 -12.38,0 -20.67,-7.77 -20.67,-17.73 0,-9.76 7.87,-17.11 21.61,-17.11 a 29.74,29.74 0 0 1 14,3.15 v -3.36 c 0,-5.35 -3.57,-8.07 -10.49,-8.07 -4.83,0 -10.29,1.25 -16.68,4 l -5,-12.69 c 8.39,-3.67 16,-5.67 22.87,-5.67 17,0 26.33,7.45 26.33,21 v 35.56 h -17 z m -10.39,-7.55 A 19.55,19.55 0 0 0 1264,97.51 v -5.77 a 22.08,22.08 0 0 0 -10.91,-2.94 c -5.25,0 -8.5,2.2 -8.5,5.67 -0.04,3.67 3.41,5.87 8.98,5.87 z" id="path1546"/>
      <path style="fill:#3d3846;stroke-width:8.47309" d="m 1314,112.09 c -11.64,0 -18.15,-5.56 -18.15,-17.1 V 69.92 H 1284.1 V 55.75 h 11.75 V 43.06 l 17,-5.25 v 17.94 h 15.53 v 14.17 h -15.53 v 21.19 c 0,4.72 2.52,6.5 7.66,6.5 a 18.36,18.36 0 0 0 7.45,-1.68 l -2.31,13.75 a 29.58,29.58 0 0 1 -11.65,2.41 z" id="path1548"/>
      <path style="fill:#3d3846;stroke-width:8.47309" d="m 852.87,85 c 12.5,0 30.61,-2.58 30.61,-17.46 a 14.52,14.52 0 0 0 -0.31,-3.42 L 875.72,31.76 C 874,24.63 872.48,21.4 860,15.15 850.28,10.19 829.15,2 822.9,2 c -5.82,0 -7.54,7.54 -14.44,7.54 -6.68,0 -11.64,-5.6 -17.89,-5.6 -6,0 -9.92,4.1 -12.94,12.5 0,0 -8.4,23.72 -9.48,27.16 a 6.12,6.12 0 0 0 -0.22,1.94 c 0,9.22 36.29,39.46 84.94,39.46 z m 32.55,-11.42 c 1.72,8.19 1.72,9.05 1.72,10.13 0,14 -15.73,21.77 -36.43,21.77 C 803.93,105.47 763,78.1 763,60 a 18.49,18.49 0 0 1 1.51,-7.33 c -16.81,0.86 -38.58,3.88 -38.58,23.06 0,31.48 74.58,70.28 133.65,70.28 45.27,0 56.69,-20.48 56.69,-36.65 -0.03,-12.73 -11.02,-27.17 -30.85,-35.79 z" id="path1550"/>
      <path style="fill:#3d3846;stroke-width:8.47309" d="m 8.81,91.06 c 8,7.87 16.16,11.7 25.62,11.7 10.85,0 18.08,-5.11 18.08,-12.44 0,-6.49 -4,-9.89 -15.1,-11.7 L 25,76.6 C 11.15,74.26 4.66,67.78 4.66,57.25 4.66,44.39 15.4,35.88 32.09,35.88 a 50.34,50.34 0 0 1 30,10.1 l -6.16,8.51 c -8.08,-6.17 -16.16,-9.15 -24.35,-9.15 -9.68,0 -16.16,4.47 -16.16,11.06 0,6 3.72,8.93 13.29,10.53 l 12,1.91 c 15.84,2.55 22.85,9.16 22.85,20.63 0,13.6 -11.9,22.86 -29.66,22.86 A 44.85,44.85 0 0 1 2,98.93 Z" id="path1552"/>
      <path style="fill:#3d3846;stroke-width:8.47309" d="m 83,89.36 c 0,8.4 5.1,13.71 13.5,13.71 a 15.23,15.23 0 0 0 13.29,-7 V 57.14 h 10.63 v 54.12 h -10.61 v -5.42 a 22.13,22.13 0 0 1 -16.27,6.49 c -12.44,0 -21.05,-8.72 -21.05,-21.16 v -34 H 83 Z" id="path1554"/>
      <path style="fill:#3d3846;stroke-width:8.47309" d="m 132.77,57.14 h 10.53 v 5.11 a 25.54,25.54 0 0 1 16.58,-6 c 15.42,0 27.33,12.34 27.33,27.86 0,15.52 -11.91,28 -27.64,28 A 26.84,26.84 0 0 1 143.4,106.8 v 26.47 h -10.63 z m 10.63,14.78 v 24.67 a 20.16,20.16 0 0 0 15,6.27 c 10.52,0 18.39,-8.08 18.39,-18.6 0,-10.74 -8.08,-18.72 -18.39,-18.72 -6.28,0 -11.49,2.34 -15,6.38 z" id="path1556"/>
      <path style="fill:#3d3846;stroke-width:8.47309" d="m 197.2,57.14 h 10.53 v 5.11 a 25.54,25.54 0 0 1 16.58,-6 c 15.42,0 27.33,12.34 27.33,27.86 0,15.52 -11.91,28 -27.65,28 a 26.79,26.79 0 0 1 -16.16,-5.31 v 26.47 H 197.2 Z m 10.63,14.78 v 24.67 a 20.12,20.12 0 0 0 15,6.27 c 10.53,0 18.4,-8.08 18.4,-18.6 0,-10.74 -8.08,-18.72 -18.4,-18.72 -6.28,0 -11.49,2.34 -15,6.38 z" id="path1558"/>
      <path style="fill:#3d3846;stroke-width:8.47309" d="m 287.46,56.08 a 28.13,28.13 0 1 1 -28.17,28.07 27.77,27.77 0 0 1 28.17,-28.07 z m 0,9.36 c -9.88,0 -17.75,8.18 -17.75,18.71 0,10.53 7.76,18.85 17.75,18.85 9.99,0 17.76,-8.29 17.76,-18.82 0,-10.53 -7.87,-18.74 -17.76,-18.74 z" id="path1560"/>
      <path style="fill:#3d3846;stroke-width:8.47309" d="m 325.52,57.14 h 10.64 v 6.7 a 17.35,17.35 0 0 1 14.78,-7.84 15.44,15.44 0 0 1 5.52,0.85 v 9.57 a 19.14,19.14 0 0 0 -6.37,-1.17 c -5.64,0 -11,2.77 -13.93,9.79 v 36.25 h -10.64 z" id="path1562"/>
      <path style="fill:#3d3846;stroke-width:8.47309" d="m 373.26,66.07 h -11.48 v -8.93 h 11.48 V 43.32 l 10.53,-2.55 v 16.37 h 15.95 v 8.93 h -15.95 v 29.35 c 0,5.53 2.23,7.55 8,7.55 a 20.48,20.48 0 0 0 7.76,-1.28 v 8.93 a 36.29,36.29 0 0 1 -10.1,1.6 c -10.52,0 -16.16,-5 -16.16,-14.35 z" id="path1564"/>
      <path style="fill:#3d3846;stroke-width:8.47309" d="m 431.1,56.29 c 14.88,0 26.15,12.34 26.15,28.28 v 3.09 h -42.74 a 18.25,18.25 0 0 0 18.29,15.52 21.1,21.1 0 0 0 13.72,-4.78 l 6.8,6.7 a 31.93,31.93 0 0 1 -20.95,7.12 C 416.43,112.22 404,100 404,84.15 404,68.63 415.79,56.29 431.1,56.29 Z m -16.48,23.39 h 32.11 c -1.49,-8.29 -8,-14.46 -15.84,-14.46 -8.3,0 -14.68,5.96 -16.27,14.46 z" id="path1566"/>
      <path style="fill:#3d3846;stroke-width:8.47309" d="m 509,106.16 a 25.53,25.53 0 0 1 -16.58,6 c -15.42,0 -27.33,-12.44 -27.33,-28 0,-15.56 11.91,-27.87 27.57,-27.87 a 27.09,27.09 0 0 1 16.26,5.32 V 36.84 l 10.64,-2.34 v 76.76 H 509 Z m -15.1,-3.3 a 19.35,19.35 0 0 0 15,-6.48 V 71.82 a 20.2,20.2 0 0 0 -15,-6.38 c -10.52,0 -18.39,8.08 -18.39,18.6 0.03,10.74 8.11,18.82 18.42,18.82 z" id="path1568"/>
      <path style="fill:#3d3846;stroke-width:8.47309" d="m 580.9,112.11 a 26.5,26.5 0 0 1 -16.27,-5.42 v 4.57 H 554.11 V 36.84 l 10.63,-2.34 v 27.64 a 25.18,25.18 0 0 1 16.48,-5.85 c 15.42,0 27.32,12.34 27.32,27.86 0,15.52 -11.9,27.96 -27.64,27.96 z M 564.74,71.92 v 24.67 a 20.12,20.12 0 0 0 15,6.27 c 10.53,0 18.39,-8.08 18.39,-18.6 0,-10.74 -8.08,-18.72 -18.39,-18.72 -6.28,0 -11.49,2.34 -15,6.38 z" id="path1570"/>
      <path style="fill:#3d3846;stroke-width:8.47309" d="M 632.15,111.37 610.56,57.14 h 11.7 L 638.1,98.5 655.54,57.14 H 667 l -25.84,60 c -4.89,11.16 -10.42,16.16 -20.73,16.16 a 23.41,23.41 0 0 1 -5.64,-0.53 v -9.36 a 17.71,17.71 0 0 0 4.68,0.43 c 4.57,0 8.19,-2.13 10.74,-8 z" id="path1572"/>
    </g>
  </g>
</svg>
