<svg xmlns:dc="http://purl.org/dc/elements/1.1/" xmlns:cc="http://creativecommons.org/ns#" xmlns:rdf="http://www.w3.org/1999/02/22-rdf-syntax-ns#" xmlns:svg="http://www.w3.org/2000/svg" xmlns="http://www.w3.org/2000/svg" xmlns:sodipodi="http://sodipodi.sourceforge.net/DTD/sodipodi-0.dtd" xmlns:inkscape="http://www.inkscape.org/namespaces/inkscape" id="svg5173" version="1.1" viewBox="0 0 33.866667 33.866669" height="128" width="128">
  <defs id="defs5167"/>
  <g transform="translate(-510.96542,57.324495)" id="layer1">
    <g id="g4769" transform="matrix(0.21916205,-0.06786762,0.06786762,0.21916205,132.84502,76.338722)" style="opacity:1;stroke-width:1.15322">
      <path d="m 1771.7949,60.609955 a 6.7792969,6.7792969 0 0 1 -5.8218,-7.14442 6.7792969,6.7792969 0 0 1 6.6815,-6.347636 6.7792969,6.7792969 0 0 1 6.8369,6.180122 6.7792969,6.7792969 0 0 1 -5.643,7.286486" id="path4704" style="font-variation-settings:normal;opacity:1;vector-effect:none;fill:#000000;fill-opacity:1;stroke:#f5c211;stroke-width:3.45966;stroke-linecap:round;stroke-linejoin:round;stroke-miterlimit:4;stroke-dasharray:none;stroke-dashoffset:31.7605;stroke-opacity:0;paint-order:stroke markers fill;stop-color:#000000;stop-opacity:1"/>
      <path id="path4706" d="m 1782.9093,38.50436 18.64,-30.262429" style="font-variation-settings:normal;opacity:1;vector-effect:none;fill:none;fill-opacity:1;stroke:#77767b;stroke-width:3.45966;stroke-linecap:round;stroke-linejoin:round;stroke-miterlimit:4;stroke-dasharray:none;stroke-dashoffset:0;stroke-opacity:1;stop-color:#000000;stop-opacity:1"/>
      <path style="font-variation-settings:normal;opacity:1;vector-effect:none;fill:#fbbc05;fill-opacity:1;stroke:#f5c211;stroke-width:3.45966;stroke-linecap:round;stroke-linejoin:round;stroke-miterlimit:4;stroke-dasharray:none;stroke-dashoffset:31.7605;stroke-opacity:0;paint-order:stroke markers fill;stop-color:#000000;stop-opacity:1" id="path4752" d="m 1752.6855,-10.478912 a 6.7792969,6.7792969 0 0 1 -5.8218,-7.14442 6.7792969,6.7792969 0 0 1 6.6816,-6.347637 6.7792969,6.7792969 0 0 1 6.8368,6.180122 6.7792969,6.7792969 0 0 1 -5.643,7.286487"/>
      <path d="m 1811.2099,-2.2943408 a 6.7792969,6.7792969 0 0 1 -5.8218,-7.1444199 6.7792969,6.7792969 0 0 1 6.6816,-6.3476363 6.7792969,6.7792969 0 0 1 6.8368,6.1801217 6.7792969,6.7792969 0 0 1 -5.643,7.2864866" id="path4754" style="font-variation-settings:normal;opacity:1;vector-effect:none;fill:#ea4335;fill-opacity:1;stroke:#f5c211;stroke-width:3.45966;stroke-linecap:round;stroke-linejoin:round;stroke-miterlimit:4;stroke-dasharray:none;stroke-dashoffset:31.7605;stroke-opacity:0;paint-order:stroke markers fill;stop-color:#000000;stop-opacity:1"/>
      <path style="font-variation-settings:normal;opacity:1;vector-effect:none;fill:none;fill-opacity:1;stroke:#77767b;stroke-width:3.45966;stroke-linecap:round;stroke-linejoin:round;stroke-miterlimit:4;stroke-dasharray:none;stroke-dashoffset:0;stroke-opacity:1;stop-color:#000000;stop-opacity:1" d="M 1768.9704,37.125581 1758.5954,1.3154822" id="path4756"/>
      <path style="font-variation-settings:normal;opacity:1;vector-effect:none;fill:none;fill-opacity:1;stroke:#77767b;stroke-width:3.45966;stroke-linecap:round;stroke-linejoin:round;stroke-miterlimit:4;stroke-dasharray:none;stroke-dashoffset:0;stroke-opacity:1;stop-color:#000000;stop-opacity:1" d="m 1790.9939,50.239131 34.5792,-8.218298" id="path4758"/>
      <path transform="rotate(45)" style="font-variation-settings:normal;opacity:1;vector-effect:none;fill:#01afef;fill-opacity:1;stroke:#f5c211;stroke-width:3.45966;stroke-linecap:round;stroke-linejoin:round;stroke-miterlimit:4;stroke-dasharray:none;stroke-dashoffset:31.7605;stroke-opacity:0;paint-order:stroke markers fill;stop-color:#000000;stop-opacity:1" id="path4760" d="m 1330.249,-1271.6982 a 6.7792969,6.7792969 0 0 1 -5.8218,-7.1444 6.7792969,6.7792969 0 0 1 6.6815,-6.3477 6.7792969,6.7792969 0 0 1 6.8369,6.1801 6.7792969,6.7792969 0 0 1 -5.643,7.2865"/>
    </g>
  </g>
</svg>
