<svg xmlns:dc="http://purl.org/dc/elements/1.1/" xmlns:cc="http://creativecommons.org/ns#" xmlns:rdf="http://www.w3.org/1999/02/22-rdf-syntax-ns#" xmlns:svg="http://www.w3.org/2000/svg" xmlns="http://www.w3.org/2000/svg" xmlns:sodipodi="http://sodipodi.sourceforge.net/DTD/sodipodi-0.dtd" xmlns:inkscape="http://www.inkscape.org/namespaces/inkscape" id="svg5173" version="1.1" viewBox="0 0 12.7 12.700001" height="48" width="48">
  <defs id="defs5167"/>
  <g transform="translate(-510.96542,57.324495)" id="layer1">
    <g id="g4152" transform="matrix(0.26205002,0,0,0.26205002,20.811969,-20.952777)" style="opacity:1;fill:#241f31;stroke-width:1.00967">
      <path id="rect4114" style="fill:#241f31;stroke-width:7.63214;stroke-linejoin:round;paint-order:stroke markers fill;stop-color:#000000" d="m 1811.5156,523.78516 c -1.1691,0 -2.1113,0.94028 -2.1113,2.10937 v 6.58594 c 0,1.16909 0.9422,2.10937 2.1113,2.10937 h 36.2188 c 1.1691,0 2.1113,-0.94028 2.1113,-2.10937 v -6.58594 c 0,-1.16909 -0.9422,-2.10937 -2.1113,-2.10937 h -10.9258 l -3.8535,4.0039 a 4.4774541,4.4774541 0 0 1 -6.4297,0.0215 l -3.9297,-4.02539 z m 27.5235,3.55078 a 1.8606352,1.8606352 0 0 1 0.029,0 1.8606352,1.8606352 0 0 1 1.875,1.69726 1.8606352,1.8606352 0 0 1 -1.5489,1.99805 l -0.5625,0.008 a 1.8606352,1.8606352 0 0 1 -1.5976,-1.96094 1.8606352,1.8606352 0 0 1 1.8047,-1.74218 z m 6.0312,0 a 1.8606352,1.8606352 0 0 1 0.027,0 1.8606352,1.8606352 0 0 1 1.877,1.69726 1.8606352,1.8606352 0 0 1 -1.5489,1.99805 l -0.5625,0.008 a 1.8606352,1.8606352 0 0 1 -1.5996,-1.96094 1.8606352,1.8606352 0 0 1 1.8047,-1.74218 z" transform="translate(65,-633)"/>
      <path id="path4951" style="color:#000000;font-style:normal;font-variant:normal;font-weight:normal;font-stretch:normal;font-size:medium;line-height:normal;font-family:sans-serif;font-variant-ligatures:normal;font-variant-position:normal;font-variant-caps:normal;font-variant-numeric:normal;font-variant-alternates:normal;font-variant-east-asian:normal;font-feature-settings:normal;font-variation-settings:normal;text-indent:0;text-align:start;text-decoration:none;text-decoration-line:none;text-decoration-style:solid;text-decoration-color:#000000;letter-spacing:normal;word-spacing:normal;text-transform:none;writing-mode:lr-tb;direction:ltr;text-orientation:mixed;dominant-baseline:auto;baseline-shift:baseline;text-anchor:start;white-space:normal;shape-padding:0;shape-margin:0;inline-size:0;clip-rule:nonzero;display:inline;overflow:visible;visibility:visible;isolation:auto;mix-blend-mode:normal;color-interpolation:sRGB;color-interpolation-filters:linearRGB;solid-color:#000000;solid-opacity:1;vector-effect:none;fill:#241f31;fill-opacity:1;fill-rule:nonzero;stroke:none;stroke-width:3.029;stroke-linecap:round;stroke-linejoin:round;stroke-miterlimit:4;stroke-dasharray:none;stroke-dashoffset:0;stroke-opacity:1;paint-order:stroke markers fill;color-rendering:auto;image-rendering:auto;shape-rendering:auto;text-rendering:auto;enable-background:accumulate;stop-color:#000000" d="m 1588.2227,500.27148 a 1.50015,1.50015 0 0 0 -1.5,1.5 v 8.06836 l -5.9668,-0.01 a 1.50015,1.50015 0 0 0 -1.0762,2.54883 l 12.0605,12.35351 a 1.50015,1.50015 0 0 0 2.1543,-0.008 l 11.8535,-12.31641 a 1.50015,1.50015 0 0 0 -1.0781,-2.54101 l -5.9804,-0.01 v -8.08594 a 1.50015,1.50015 0 0 0 -1.5,-1.5 z" transform="translate(301.9141,-632)"/>
    </g>
  </g>
</svg>
