<svg xmlns:dc="http://purl.org/dc/elements/1.1/" xmlns:cc="http://creativecommons.org/ns#" xmlns:rdf="http://www.w3.org/1999/02/22-rdf-syntax-ns#" xmlns:svg="http://www.w3.org/2000/svg" xmlns="http://www.w3.org/2000/svg" xmlns:xlink="http://www.w3.org/1999/xlink" xmlns:sodipodi="http://sodipodi.sourceforge.net/DTD/sodipodi-0.dtd" xmlns:inkscape="http://www.inkscape.org/namespaces/inkscape" id="svg5173" version="1.1" viewBox="0 0 33.866667 33.866669" height="128" width="128">
  <defs id="defs5167">
    <linearGradient xlink:href="#linearGradient7587" id="linearGradient7721" gradientUnits="userSpaceOnUse" gradientTransform="matrix(1.2917935,0,0,1.2917935,-810.00411,4.1179535)" x1="2383.6506" y1="-22.427191" x2="2383.6506" y2="37.364632"/>
    <linearGradient id="linearGradient7587">
      <stop style="stop-color:#deddda;stop-opacity:1" offset="0" id="stop7583"/>
      <stop style="stop-color:#ffffff;stop-opacity:0" offset="1" id="stop7585"/>
    </linearGradient>
    <linearGradient xlink:href="#linearGradient7587" id="linearGradient7629" gradientUnits="userSpaceOnUse" x1="2383.6506" y1="-22.427191" x2="2383.6506" y2="37.364632" gradientTransform="matrix(1.2917935,0,0,1.2917935,-809.82839,6.2966454)"/>
    <linearGradient xlink:href="#linearGradient7587" id="linearGradient7723" gradientUnits="userSpaceOnUse" gradientTransform="matrix(1.281453,0.16312175,-0.16312175,1.281453,-785.72636,-379.67838)" x1="2383.6506" y1="-22.427191" x2="2383.6506" y2="37.364632"/>
  </defs>
  <g transform="translate(-510.96542,57.324495)" id="layer1">
    <g id="g7637" transform="matrix(0.24036719,0,0,0.24013786,-7.4414763,-44.370594)" style="opacity:1;stroke-width:1.10128">
      <path d="m 2162.347,52.189991 c -0.6075,-13.823853 -0.5973,-30.142335 14.0494,-36.553446 0.9749,-11.9584398 -12.0876,-24.8874516 -1.4969,-36.653273 8.5918,-14.137248 30.2998,-7.970853 30.4054,8.431901 0.6627,1.682277 2.5382,9.3994719 2.3488,11.0204186 -0.1273,1.08904625 -3.4225,2.6066114 -3.4225,2.6066114 0.7897,5.7223131 -2.6336,10.620917 -7.6452,14.684728 8.9186,7.967214 8.6109,21.332465 5.6566,33.16583 l -0.1779,1.936827 -0.092,1.905497" style="font-variation-settings:normal;vector-effect:none;fill:url(#linearGradient7721);fill-opacity:1;stroke:#c0bfbc;stroke-width:3.30382;stroke-linecap:round;stroke-linejoin:round;stroke-miterlimit:4;stroke-dasharray:none;stroke-dashoffset:0;stroke-opacity:1;stop-color:#000000" id="path7524"/>
      <path d="m 2292.0003,61.837915 c 0.432,-10.734302 0.7752,-22.944123 -6.7654,-31.5564 -8.9555,-8.174172 -6.2159,-1.394681 -2.9657,-7.557333 1.9996,-8.232557 3.7745,-21.2817584 0.015,-29.814026 -3.0514,-5.684248 -7.81,-11.605865 -14.8008,-12.032703 -8.403,-1.081682 -17.3797,5.055401 -18.1705,13.705586 -0.6805,3.335493 -3.2813,8.6405085 -3.5669,12.0417272 -0.1694,2.0175011 1.4767,2.114741 2.0889,4.1470038 1.1906,5.736218 5.0649,10.379602 9.2795,14.204919 -2.0477,4.187104 -6.3027,8.702943 -6.4574,14.225496 -1.3715,7.433278 0.7087,14.80524 1.6947,22.118335 l 0.022,1.06249" style="font-variation-settings:normal;vector-effect:none;fill:url(#linearGradient7629);fill-opacity:1;stroke:#c0bfbc;stroke-width:3.30382;stroke-linecap:round;stroke-linejoin:round;stroke-miterlimit:4;stroke-dasharray:none;stroke-dashoffset:0;stroke-opacity:1;stop-color:#000000" id="path7548"/>
      <path d="m 2245.6392,23.115095 c -0.4872,-1.455277 -2.8794,-7.09269 -4.5585,-8.504252 -4.2296,-3.55569 -6.8335,-0.287317 -2.5026,-16.3870327 2.0421,-3.4855716 4.2093,-7.1982429 3.7534,-11.4188063 -0.27,-8.72889 -8.4757,-17.314009 -17.5652,-15.889896 -3.5574,0.722431 -8.8446,5.909398 -10.1519,8.876438 -1.0698,2.428162 1.6351,2.446984 0.8459,5.041813 -0.702,3.119491 -2.8603,7.9443285 -2.1859,10.9703965 0.2767,1.2418608 1.4221,0.9469136 1.755,2.0030874 0.4247,1.34749749 0.064,2.49199491 0.1984,4.0623571 0.1855,2.1670628 6.6197,3.5192192 6.2506,5.7608454 -0.9199,4.5534296 -11.2129,8.6865956 -10.5363,13.7040316 -0.3088,4.248229 0.018,8.507101 -0.027,12.759718" style="font-variation-settings:normal;vector-effect:none;fill:url(#linearGradient7723);fill-opacity:1;stroke:#c0bfbc;stroke-width:3.30382;stroke-linecap:round;stroke-linejoin:round;stroke-miterlimit:4;stroke-dasharray:none;stroke-dashoffset:0;stroke-opacity:1;stop-color:#000000" id="path7524-8"/>
    </g>
  </g>
</svg>
