<svg xmlns:dc="http://purl.org/dc/elements/1.1/" xmlns:cc="http://creativecommons.org/ns#" xmlns:rdf="http://www.w3.org/1999/02/22-rdf-syntax-ns#" xmlns:svg="http://www.w3.org/2000/svg" xmlns="http://www.w3.org/2000/svg" xmlns:sodipodi="http://sodipodi.sourceforge.net/DTD/sodipodi-0.dtd" xmlns:inkscape="http://www.inkscape.org/namespaces/inkscape" width="23.802515" height="23.775812" viewBox="0 0 6.2977486 6.2906837" version="1.1" id="svg5543">
  <defs id="defs5537"/>
  <g id="layer1" transform="translate(-102.68446,-145.02133)">
    <path id="path1573-8" style="color:#000000;font-style:normal;font-variant:normal;font-weight:normal;font-stretch:normal;font-size:medium;line-height:normal;font-family:sans-serif;font-variant-ligatures:normal;font-variant-position:normal;font-variant-caps:normal;font-variant-numeric:normal;font-variant-alternates:normal;font-variant-east-asian:normal;font-feature-settings:normal;font-variation-settings:normal;text-indent:0;text-align:start;text-decoration:none;text-decoration-line:none;text-decoration-style:solid;text-decoration-color:#000000;letter-spacing:normal;word-spacing:normal;text-transform:none;writing-mode:lr-tb;direction:ltr;text-orientation:mixed;dominant-baseline:auto;baseline-shift:baseline;text-anchor:start;white-space:normal;shape-padding:0;shape-margin:0;inline-size:0;clip-rule:nonzero;display:inline;overflow:visible;visibility:visible;opacity:1;isolation:auto;mix-blend-mode:normal;color-interpolation:sRGB;color-interpolation-filters:linearRGB;solid-color:#000000;solid-opacity:1;vector-effect:none;fill:#ffffff;fill-opacity:1;fill-rule:nonzero;stroke:none;stroke-width:0.72202;stroke-linecap:butt;stroke-linejoin:miter;stroke-miterlimit:4;stroke-dasharray:none;stroke-dashoffset:59.5276;stroke-opacity:1;paint-order:markers fill stroke;color-rendering:auto;image-rendering:auto;shape-rendering:auto;text-rendering:auto;enable-background:accumulate;stop-color:#000000" d="m 108.06615,145.98934 c -0.90664,-0.90664 -2.38728,-0.90664 -3.29395,4e-5 -0.81802,0.81798 -0.89568,2.10228 -0.23765,3.01173 l -1.56688,1.5669 0.51054,0.51053 1.56556,-1.56553 c 0.91006,0.66651 2.20145,0.59187 3.02271,-0.22935 0.90667,-0.90668 0.90631,-2.38764 0,-3.29432 z m -0.51053,0.51058 c 0.63071,0.63071 0.63103,1.64245 0,2.27319 -0.59572,0.59568 -1.53103,0.62788 -2.16451,0.0984 l -0.20745,-0.2074 c -0.52944,-0.63346 -0.49691,-1.56848 0.0987,-2.16416 0.63071,-0.63076 1.64214,-0.63076 2.27284,0 z"/>
  </g>
</svg>
