<svg xmlns:dc="http://purl.org/dc/elements/1.1/" xmlns:cc="http://creativecommons.org/ns#" xmlns:rdf="http://www.w3.org/1999/02/22-rdf-syntax-ns#" xmlns:svg="http://www.w3.org/2000/svg" xmlns="http://www.w3.org/2000/svg" xmlns:sodipodi="http://sodipodi.sourceforge.net/DTD/sodipodi-0.dtd" xmlns:inkscape="http://www.inkscape.org/namespaces/inkscape" id="svg5173" version="1.1" viewBox="0 0 33.866667 33.866669" height="128" width="128">
  <defs id="defs5167"/>
  <g transform="translate(-510.96542,57.324495)" id="layer1">
    <g transform="matrix(0.26458333,0,0,0.26458333,120.62775,-43.028469)" style="opacity:1" id="g5825">
      <path id="path5139" style="color:#000000;font-style:normal;font-variant:normal;font-weight:normal;font-stretch:normal;font-size:medium;line-height:normal;font-family:sans-serif;font-variant-ligatures:normal;font-variant-position:normal;font-variant-caps:normal;font-variant-numeric:normal;font-variant-alternates:normal;font-variant-east-asian:normal;font-feature-settings:normal;font-variation-settings:normal;text-indent:0;text-align:start;text-decoration:none;text-decoration-line:none;text-decoration-style:solid;text-decoration-color:#000000;letter-spacing:normal;word-spacing:normal;text-transform:none;writing-mode:lr-tb;direction:ltr;text-orientation:mixed;dominant-baseline:auto;baseline-shift:baseline;text-anchor:start;white-space:normal;shape-padding:0;shape-margin:0;inline-size:0;clip-rule:nonzero;display:inline;overflow:visible;visibility:visible;opacity:1;isolation:auto;mix-blend-mode:normal;color-interpolation:sRGB;color-interpolation-filters:linearRGB;solid-color:#000000;solid-opacity:1;vector-effect:none;fill:#77767b;fill-opacity:1;fill-rule:nonzero;stroke:none;stroke-width:3;stroke-linecap:round;stroke-linejoin:round;stroke-miterlimit:4;stroke-dasharray:none;stroke-dashoffset:0;stroke-opacity:1;color-rendering:auto;image-rendering:auto;shape-rendering:auto;text-rendering:auto;enable-background:accumulate;stop-color:#000000;stop-opacity:1" d="m 1535.1836,30.39648 c -0.1332,-6.57e-4 -0.2658,0.01642 -0.3945,0.05079 -1.4756,0.39584 -3.3907,0.91018 -5.8516,1.57031 -0.7995,0.2145 -1.2742,1.036171 -1.0605,1.83594 0.2145,0.799543 1.0361,1.274183 1.8359,1.06054 2.4609,-0.66012 4.3779,-1.17445 5.8535,-1.57031 0.7988,-0.215342 1.2724,-1.036747 1.0586,-1.83594 -0.1752,-0.65292 -0.7654,-1.108006 -1.4414,-1.11133 z m 12.3789,4.20704 c -0.1338,-8.39e-4 -0.2672,0.01624 -0.3965,0.05078 -5.0002,1.34104 -6.4917,1.74181 -7.8769,2.11328 -7e-4,1.7e-4 0,-1.7e-4 0,0 3e-4,-8e-5 0.01,-0.0028 -0.01,0.002 -0.011,0.0028 -0.096,0.02684 -0.127,0.03516 -0.061,0.01644 -0.099,0.02549 -0.2519,0.0664 -0.2374,0.06365 -0.5071,0.13717 -0.8477,0.22852 -0.1053,0.02824 -0.7695,0.20561 -0.8477,0.22656 0,3.3e-4 -0.01,0.0016 -0.01,0.002 -0.068,0.01821 -0.196,0.0535 -0.2441,0.06641 -0.054,0.01452 -0.095,0.02517 -0.1172,0.03125 -9e-4,2.5e-4 -0.01,0.0017 -0.01,0.0019 0,0.0011 -0.01,0.0018 -0.01,0.002 v 0.002 c -1.3852,0.37161 -2.8755,0.7722 -7.875,2.11328 -0.7995,0.2145 -1.2742,1.036171 -1.0605,1.83594 0.2145,0.799547 1.0361,1.274193 1.8359,1.06055 4.9947,-1.33981 6.4826,-1.7374 7.8691,-2.10938 0,-4.8e-4 0.01,-0.0034 0.01,-0.0039 v 0 c 0,-5.3e-4 0,-0.0011 0.01,-0.002 0,-7.1e-4 0.01,-0.0018 0.014,-0.0039 0.017,-0.0046 0.052,-0.0138 0.088,-0.02344 0,-0.0013 0.023,-0.0066 0.027,-0.0078 0.05,-0.01328 0.1816,-0.04752 0.252,-0.06641 0.078,-0.02097 0.7422,-0.20025 0.8476,-0.22852 0.3404,-0.09128 0.6105,-0.16294 0.8477,-0.22656 0.1521,-0.04081 0.1904,-0.05183 0.252,-0.06836 0.01,-0.0018 0.022,-0.0043 0.027,-0.0059 0.015,-0.0041 0.074,-0.02116 0.09,-0.02539 0.01,-0.002 0.01,-0.0012 0.012,-0.002 10e-4,-2.8e-4 0,-0.0017 0.01,-0.0019 0,-5.7e-4 0.01,-0.0034 0.012,-0.0039 1.3868,-0.37187 2.8742,-0.76974 7.8692,-2.10938 0.8005,-0.214473 1.2754,-1.037489 1.0605,-1.83789 -0.1752,-0.652916 -0.7654,-1.107997 -1.4414,-1.11132 z m 0,7.52734 c -0.1338,-8.39e-4 -0.2672,0.01624 -0.3965,0.05078 -5.0002,1.34104 -6.4917,1.74181 -7.8769,2.11328 -7e-4,1.7e-4 0,-1.7e-4 0,0 3e-4,-8e-5 0.01,-0.0028 -0.01,0.002 -0.011,0.0028 -0.096,0.02684 -0.127,0.03515 -0.061,0.01645 -0.099,0.02549 -0.2519,0.06641 -0.2374,0.06364 -0.5071,0.13717 -0.8477,0.22851 -0.1053,0.02825 -0.7695,0.20561 -0.8477,0.22657 0,3.3e-4 -0.01,0.0016 -0.01,0.0019 -0.068,0.01821 -0.196,0.05348 -0.2441,0.06641 -0.054,0.01452 -0.095,0.02518 -0.1172,0.03124 -9e-4,2.5e-4 -0.01,0.0017 -0.01,0.002 0,0.0011 -0.01,0.0018 -0.01,0.002 v 0.0019 c -1.3852,0.37162 -2.8755,0.7722 -7.875,2.11329 -0.8005,0.214473 -1.2754,1.037489 -1.0605,1.83789 0.2153,0.798754 1.0367,1.272364 1.8359,1.05859 4.9947,-1.33981 6.4826,-1.7374 7.8691,-2.10937 0,-4.9e-4 0.01,-0.0034 0.01,-0.0039 v 0 c 0,-5.4e-4 0,-0.0011 0.01,-0.0019 0,-7.2e-4 0.01,-0.0018 0.014,-0.0039 0.017,-0.0045 0.052,-0.0138 0.088,-0.02344 0,-0.0013 0.023,-0.0066 0.027,-0.0078 0.05,-0.01328 0.1816,-0.04752 0.252,-0.06641 0.078,-0.02096 0.7422,-0.20025 0.8476,-0.22851 0.3404,-0.09129 0.6105,-0.16295 0.8477,-0.22656 0.1521,-0.04081 0.1904,-0.05183 0.252,-0.06836 0.01,-0.0018 0.022,-0.0043 0.027,-0.0059 0.015,-0.0041 0.074,-0.02116 0.09,-0.02539 0.01,-0.002 0.01,-0.0012 0.012,-0.002 0,-8.6e-4 0,-0.0014 0.01,-0.002 v 0 c 0,-3.2e-4 -0.01,9.3e-4 0.01,-0.0039 1.3868,-0.37187 2.8742,-0.76973 7.8692,-2.10937 0.8005,-0.214473 1.2754,-1.037489 1.0605,-1.83789 -0.1752,-0.65292 -0.7654,-1.108006 -1.4414,-1.11133 z"/>
      <path transform="translate(65,-633)" d="m 1473.6289,591.71094 c -0.8284,0 -1.5,0.67157 -1.5,1.5 10e-5,1.52916 -10e-5,3.51412 0,6.06445 0,0.82843 0.6716,1.5 1.5,1.5 0.8284,0 1.5,-0.67157 1.5,-1.5 -10e-5,-2.55026 10e-5,-4.53512 0,-6.06445 0,-0.82843 -0.6716,-1.5 -1.5,-1.5 z m 21.7793,5.49804 c -0.5218,0.0138 -0.999,0.29782 -1.2598,0.75 -0.7638,1.32446 -1.7555,3.04337 -3.0293,5.25196 -0.4138,0.71785 -0.1672,1.63523 0.5508,2.04883 0.7179,0.41383 1.6353,0.1672 2.0489,-0.55079 1.2737,-2.20864 2.2654,-3.92749 3.0292,-5.25195 0.4138,-0.71783 0.1672,-1.63519 -0.5507,-2.04883 -0.2396,-0.13786 -0.5127,-0.2068 -0.7891,-0.19922 z m -43.3926,0.66211 c -0.2726,-0.005 -0.5413,0.0647 -0.7773,0.20118 -0.7172,0.41429 -0.9629,1.33149 -0.5488,2.04882 0.7639,1.32442 1.7554,3.04339 3.0293,5.25196 0.4143,0.71722 1.3315,0.96292 2.0488,0.54883 0.7172,-0.41429 0.9629,-1.3315 0.5488,-2.04883 -1.2739,-2.20862 -2.2654,-3.92762 -3.0293,-5.25196 -0.263,-0.45569 -0.7455,-0.74029 -1.2715,-0.75 z m 21.6133,8.26758 c -16.5182,-1.7e-4 -29.9387,13.43629 -29.9394,29.96875 10e-5,5.69582 0.022,10.95678 1.9218,15.70117 1.8105,4.5212 5.4843,8.38059 11.9082,11.36133 0.04,1.27186 0.3907,12.46115 0.3907,15.32031 -2e-4,8.67083 7.0542,15.73357 15.7187,15.73438 8.6651,1.2e-4 15.7207,-7.06292 15.7207,-15.73438 0,-2.85916 0.3511,-14.04845 0.3906,-15.32031 6.4236,-2.98102 10.098,-6.84016 11.9082,-11.36133 1.8996,-4.74435 1.922,-10.00554 1.9219,-15.70117 -7e-4,-16.53246 -13.4233,-29.96892 -29.9414,-29.96875 z m 0,3 c 14.8951,-1.6e-4 26.9407,12.05591 26.9414,26.96875 10e-5,5.67484 -0.096,10.56156 -1.707,14.58594 -1.6113,4.02438 -4.6615,7.36702 -11.1953,10.18359 -0.5337,0.23065 -0.8861,0.74894 -0.9043,1.33008 0,0 -0.4141,13.00033 -0.4141,16.2832 0,2.93374 -0.9934,5.62229 -2.6484,7.77149 h -20.1426 c -1.6551,-2.14931 -2.6485,-4.8375 -2.6484,-7.77149 0,-3.28287 -0.4122,-16.2832 -0.4122,-16.2832 -0.019,-0.58159 -0.3717,-1.09999 -0.9062,-1.33008 -6.5342,-2.81629 -9.5837,-6.15919 -11.1953,-10.18359 -1.6116,-4.0244 -1.7069,-8.91093 -1.707,-14.58594 6e-4,-14.91284 12.0442,-26.96891 26.9394,-26.96875 z m 37.9941,3.75 c -0.2719,-0.004 -0.5399,0.0651 -0.7753,0.20117 -1.323,0.76473 -3.0398,1.75809 -5.2461,3.03321 -0.7173,0.41426 -0.963,1.33147 -0.5489,2.04883 0.4143,0.71728 1.3315,0.96298 2.0489,0.54882 2.2064,-1.27516 3.925,-2.26847 5.248,-3.0332 0.7165,-0.41494 0.9613,-1.332 0.5469,-2.04883 -0.2633,-0.45629 -0.7467,-0.74099 -1.2735,-0.75 z m -75.3378,1.15039 c -0.5214,0.0134 -0.9985,0.29662 -1.2598,0.74805 -0.4144,0.71683 -0.1696,1.63389 0.5469,2.04883 1.3231,0.76458 3.0416,1.75811 5.248,3.0332 0.7173,0.41409 1.6345,0.16839 2.0488,-0.54883 0.4141,-0.71733 0.1684,-1.63454 -0.5488,-2.04883 -2.2064,-1.2751 -3.923,-2.26862 -5.2461,-3.0332 -0.2396,-0.13784 -0.5127,-0.20678 -0.789,-0.19922 z m 75.4082,20.51367 c -0.8284,0 -1.5,0.67157 -1.5,1.5 0,0.82843 0.6716,1.5 1.5,1.5 2.5477,-7e-5 4.5308,8e-5 6.0586,0 0.8284,0 1.5,-0.67157 1.5,-1.5 0,-0.82843 -0.6716,-1.5 -1.5,-1.5 -1.5277,8e-5 -3.5109,-7e-5 -6.0586,0 z m -80.8614,1.32618 c -0.8284,0 -1.5,0.67157 -1.5,1.5 0,0.82843 0.6716,1.5 1.5,1.5 1.5277,-8e-5 3.5109,7e-5 6.0586,0 0.8284,0 1.5,-0.67157 1.5,-1.5 0,-0.82843 -0.6716,-1.5 -1.5,-1.5 -2.5477,7e-5 -4.5309,-8e-5 -6.0586,0 z" style="color:#000000;font-style:normal;font-variant:normal;font-weight:normal;font-stretch:normal;font-size:medium;line-height:normal;font-family:sans-serif;font-variant-ligatures:normal;font-variant-position:normal;font-variant-caps:normal;font-variant-numeric:normal;font-variant-alternates:normal;font-variant-east-asian:normal;font-feature-settings:normal;font-variation-settings:normal;text-indent:0;text-align:start;text-decoration:none;text-decoration-line:none;text-decoration-style:solid;text-decoration-color:#000000;letter-spacing:normal;word-spacing:normal;text-transform:none;writing-mode:lr-tb;direction:ltr;text-orientation:mixed;dominant-baseline:auto;baseline-shift:baseline;text-anchor:start;white-space:normal;shape-padding:0;shape-margin:0;inline-size:0;clip-rule:nonzero;display:inline;overflow:visible;visibility:visible;opacity:1;isolation:auto;mix-blend-mode:normal;color-interpolation:sRGB;color-interpolation-filters:linearRGB;solid-color:#000000;solid-opacity:1;vector-effect:none;fill:#f5c211;fill-opacity:1;fill-rule:nonzero;stroke:none;stroke-width:3;stroke-linecap:round;stroke-linejoin:round;stroke-miterlimit:4;stroke-dasharray:none;stroke-dashoffset:0;stroke-opacity:1;color-rendering:auto;image-rendering:auto;shape-rendering:auto;text-rendering:auto;enable-background:accumulate;stop-color:#000000;stop-opacity:1" id="path4641"/>
    </g>
  </g>
</svg>
