<svg xmlns="http://www.w3.org/2000/svg" xmlns:xlink="http://www.w3.org/1999/xlink" xmlns:lucid="lucid" width="945.91" height="922.08"><g transform="translate(0 0)" lucid:page-tab-id="0_0"><path d="M310 140l70 70-70 70-70-70z" stroke="#fa7811" fill="#fa7811"/><use xlink:href="#a" transform="matrix(1,0,0,1,245,145) translate(45.555 59.0875)"/><use xlink:href="#b" transform="matrix(1,0,0,1,245,145) translate(27.604999999999993 80.6875)"/><path d="M310 360l70 70-70 70-70-70z" stroke="#fa7811" fill="#fa7811" fill-opacity=".5"/><use xlink:href="#c" transform="matrix(1,0,0,1,245,365) translate(14.12999999999999 67.2125)"/><use xlink:href="#d" transform="matrix(1,0,0,1,245,365) translate(83.03 67.2125)"/><path d="M310 620l70 70-70 70-70-70z" stroke="#fa7811" fill="#fa7811" fill-opacity=".5"/><use xlink:href="#e" transform="matrix(1,0,0,1,245,625) translate(19.12999999999999 67.2125)"/><use xlink:href="#f" transform="matrix(1,0,0,1,245,625) translate(78.03 67.2125)"/><path d="M560 620l70 70-70 70-70-70z" stroke="#fa7811" fill="#fa7811" fill-opacity=".5"/><use xlink:href="#g" transform="matrix(1,0,0,1,495,625) translate(26.57999999999999 67.2125)"/><path d="M848 650c17.67 0 32 17.9 32 40s-14.33 40-32 40h-96c-17.67 0-32-17.9-32-40s14.33-40 32-40z" stroke="#7ab648" fill="#7ab648"/><use xlink:href="#h" transform="matrix(1,0,0,1,725,655) translate(19.724999999999994 38.4625)"/><use xlink:href="#i" transform="matrix(1,0,0,1,725,655) translate(75.525 38.4625)"/><path d="M608 390c17.67 0 32 17.9 32 40s-14.33 40-32 40h-96c-17.67 0-32-17.9-32-40s14.33-40 32-40z" stroke="#c92d39" fill="#c92d39" fill-opacity=".5"/><use xlink:href="#j" transform="matrix(1,0,0,1,485,395) translate(32.699999999999996 38.4625)"/><use xlink:href="#k" transform="matrix(1,0,0,1,485,395) translate(67.55 38.4625)"/><path d="M310.5 602.9h-1v-32.1h1zm0-53.7h-1v-48h1z" fill="#fa7811"/><path d="M310.5 501.22h-1v-1l.5.5.5-.5zM310 617.67l-4.64-14.26h9.28z" fill="#fa7811"/><path d="M310 619.3l-5.32-16.4h10.64zm-3.95-15.4l3.95 12.16 3.95-12.15z" fill="#fa7811"/><use xlink:href="#l" transform="matrix(1,0,0,1,298.525,549.2) translate(0.005000000000000782 14.4)"/><path d="M409.97 430.5H381.2v-1h28.77zm53.15 0h-23.8v-1h23.8z" fill="#c92d39"/><path d="M381.22 430.5h-1l.5-.5-.5-.5h1zM477.88 430l-14.26 4.64v-9.28z" fill="#c92d39"/><path d="M479.5 430l-16.38 5.32v-10.64zm-15.38 3.95l12.14-3.95-12.14-3.95z" fill="#c92d39"/><use xlink:href="#m" transform="matrix(1,0,0,1,409.97120187344916,419.2) translate(0.005000000000000782 14.4)"/><path d="M560 389V222.1c0-6.62-5.37-12-12-12H397" stroke="#c92d39" fill="none"/><path d="M560.5 389.5h-1v-.5h1z" fill="#c92d39"/><path d="M382.22 210.1l14.27-4.63v9.27z" stroke="#c92d39" fill="#c92d39"/><path d="M420.32 690.5h-39.1v-1h39.1zm52.6 0h-23.25v-1h23.24z" fill="#fa7811"/><path d="M381.22 690.5h-1l.5-.5-.5-.5h1zM487.67 690l-14.26 4.64v-9.28z" fill="#fa7811"/><path d="M489.3 690l-16.4 5.32v-10.64zm-15.4 3.95l12.16-3.95-12.15-3.95z" fill="#fa7811"/><use xlink:href="#n" transform="matrix(1,0,0,1,420.325,679.2) translate(0.005000000000000782 14.4)"/><path d="M663.63 690.5H631.2v-1h32.43zm39.5 0h-16.55v-1h16.54z" fill="#7ab648"/><path d="M631.22 690.5h-1l.5-.5-.5-.5h1zM717.88 690l-14.26 4.64v-9.28z" fill="#7ab648"/><path d="M719.5 690l-16.38 5.32v-10.64zm-15.38 3.95l12.14-3.95-12.14-3.95z" fill="#7ab648"/><use xlink:href="#o" transform="matrix(1,0,0,1,663.6283978359614,679.2) translate(0.005000000000000782 14.4)"/><path d="M310.5 823.12h-1V810.9h1zm0-33.82h-1v-28.1h1z" fill="#fa7811"/><path d="M310.5 761.22h-1v-1l.5.5.5-.5zM310 837.88l-4.64-14.26h9.28z" fill="#fa7811"/><path d="M310 839.5l-5.32-16.38h10.64zm-3.95-15.38l3.95 12.14 3.95-12.14z" fill="#fa7811"/><use xlink:href="#p" transform="matrix(1,0,0,1,256.175,789.3035533905934) translate(0.005000000000002558 14.4)"/><use xlink:href="#q" transform="matrix(1,0,0,1,256.175,789.3035533905934) translate(27.955000000000005 14.4)"/><use xlink:href="#r" transform="matrix(1,0,0,1,256.175,789.3035533905934) translate(67.805 14.4)"/><path d="M515.4 870.85H406.88v-1H515.4zm45.1-12.46l-.42 3.2-1.24 3-2 2.6-2.6 2-3 1.23-3.2.42h-3.3v-1h3.23l3-.4 2.77-1.13 2.4-1.84 1.82-2.4 1.14-2.74.4-3.02v-97.1h1z" fill="#1071e5"/><path d="M560.5 761.22h-1v-1l.5.5.5-.5zM406.38 875l-14.26-4.65 14.26-4.63z" fill="#1071e5"/><path d="M406.88 875.68l-16.38-5.33 16.38-5.32zm-13.14-5.33l12.14 3.95v-7.9z" fill="#1071e5"/><use xlink:href="#s" transform="matrix(1,0,0,1,515.3982233047034,859.5535533905934) translate(0.005000000000000782 14.4)"/><path d="M100.5 839h-1V705.9h1zm122.4-148.5H121.48v-1H222.9zM100.5 839.5h-1v-.5h1zM237.67 690l-14.26 4.64v-9.28z" fill="#1071e5"/><path d="M239.3 690l-16.4 5.32v-10.64zm-15.4 3.95l12.16-3.95-12.15-3.95z" fill="#1071e5"/><use xlink:href="#t" transform="matrix(1,0,0,1,78.525,684.3035533905934) translate(0.004999999999999005 14.4)"/><path d="M480 542.65c0-4.42 3.58-8 8-8h144c4.42 0 8 3.58 8 8v44c0 4.4-3.58 8-8 8H488c-4.42 0-8-3.6-8-8z" stroke="#c92d39" fill="#c92d39" fill-opacity=".5"/><use xlink:href="#u" transform="matrix(1,0,0,1,492,546.6464466094067) translate(12.074999999999996 14.4)"/><use xlink:href="#v" transform="matrix(1,0,0,1,492,546.6464466094067) translate(60.025 14.4)"/><use xlink:href="#w" transform="matrix(1,0,0,1,492,546.6464466094067) translate(108.92500000000001 14.4)"/><use xlink:href="#x" transform="matrix(1,0,0,1,492,546.6464466094067) translate(7.524999999999999 36)"/><use xlink:href="#y" transform="matrix(1,0,0,1,492,546.6464466094067) translate(80.475 36)"/><path d="M410.97 638.76l-.42 3.22-1.24 3-2 2.6-2.6 2-3 1.23-3.2.43h-56.56v-1h56.5l3-.4 2.77-1.14 2.4-1.84 1.83-2.4 1.14-2.74.4-3.02v-20.2h1zm52.15-73.6H422.5l-3 .38-2.77 1.14-2.4 1.84-1.82 2.4-1.14 2.74-.4 3.02v20.2h-1v-20.27l.43-3.2 1.23-3 2-2.6 2.6-2 3-1.23 3.2-.42h40.7zM341.95 651.23l-1-1h1zM477.88 564.65l-14.26 4.63V560z" fill="#c92d39"/><path d="M479.5 564.65l-16.38 5.32v-10.65zm-15.38 3.94l12.14-3.95-12.14-3.95z" fill="#c92d39"/><use xlink:href="#z" transform="matrix(1,0,0,1,342.09461814559353,596.8892880597036) translate(0.0049999999999954525 14.4)"/><use xlink:href="#A" transform="matrix(1,0,0,1,342.09461814559353,596.8892880597036) translate(27.955 14.4)"/><use xlink:href="#B" transform="matrix(1,0,0,1,342.09461814559353,596.8892880597036) translate(96.905 14.4)"/><path d="M560 533.65v-46.77" stroke="#333" fill="none"/><path d="M560.5 534.15h-1v-.52h1z" fill="#333"/><path d="M560 472.12l4.64 14.26h-9.28z" stroke="#333" fill="#333"/><path d="M230 848c0-4.42 3.58-8 8-8h144c4.42 0 8 3.58 8 8v44.7c0 4.43-3.58 8-8 8H238c-4.42 0-8-3.57-8-8z" stroke="#1071e5" fill="#1071e5"/><use xlink:href="#C" transform="matrix(1,0,0,1,242,852) translate(6.5 14.4)"/><use xlink:href="#D" transform="matrix(1,0,0,1,242,852) translate(41.5 14.4)"/><use xlink:href="#E" transform="matrix(1,0,0,1,242,852) translate(114.5 14.4)"/><use xlink:href="#F" transform="matrix(1,0,0,1,242,852) translate(0.04999999999999716 36)"/><use xlink:href="#G" transform="matrix(1,0,0,1,242,852) translate(58 36)"/><use xlink:href="#H" transform="matrix(1,0,0,1,242,852) translate(88 36)"/><path d="M20 848c0-4.42 3.58-8 8-8h144c4.42 0 8 3.58 8 8v44c0 4.42-3.58 8-8 8H28c-4.42 0-8-3.58-8-8z" stroke="#1071e5" fill="#1071e5" fill-opacity=".5"/><use xlink:href="#I" transform="matrix(1,0,0,1,32,852) translate(15.274999999999999 21.15)"/><use xlink:href="#J" transform="matrix(1,0,0,1,32,852) translate(68.775 21.15)"/><path d="M229 870.35h-23.82c-.1 0-.18-.08-.18-.17 0-.1-.08-.18-.18-.18h-7.94" stroke="#1071e5" fill="none"/><path d="M229.5 870.85h-.5v-1h.5z" fill="#1071e5"/><path d="M182.12 870l14.26-4.64v9.28z" stroke="#1071e5" fill="#1071e5"/><path d="M310.5 342.9h-1v-12.1h1zm0-33.7h-1v-28h1z" fill="#fa7811"/><path d="M310.5 281.22h-1v-1l.5.5.5-.5zM310 357.67l-4.64-14.26h9.28z" fill="#fa7811"/><path d="M310 359.3l-5.32-16.4h10.64zm-3.95-15.4l3.95 12.16 3.95-12.15z" fill="#fa7811"/><g><use xlink:href="#n" transform="matrix(1,0,0,1,295.325,309.2) translate(0.005000000000000782 14.4)"/></g><path d="M148 390c17.67 0 32 17.9 32 40s-14.33 40-32 40H52c-17.67 0-32-17.9-32-40s14.33-40 32-40z" stroke="#c92d39" fill="#c92d39"/><g><use xlink:href="#h" transform="matrix(1,0,0,1,25,395) translate(4.799999999999997 38.4625)"/><use xlink:href="#K" transform="matrix(1,0,0,1,25,395) translate(60.6 38.4625)"/><use xlink:href="#L" transform="matrix(1,0,0,1,25,395) translate(95.45 38.4625)"/></g><path d="M158.2 210.5h-46.17l-3 .4-2.77 1.14-2.4 1.83-1.82 2.4-1.14 2.75-.4 3v151.1h-1V221.97l.42-3.2 1.24-3 2-2.6 2.6-2 3-1.25 3.2-.42h46.24zm80.6 0h-57.65v-1h57.64z" fill="#c92d39"/><path d="M239.3 210l.5.5h-1.02v-1h1zM100 387.88l-4.64-14.26h9.28z" fill="#c92d39"/><path d="M100 389.5l-5.32-16.38h10.64zm-3.95-15.38l3.95 12.14 3.95-12.14z" fill="#c92d39"/><g><use xlink:href="#M" transform="matrix(1,0,0,1,158.19621356943688,199.2) translate(0.005000000000000782 14.4)"/></g><path d="M310 81v41.9" stroke="#fa7811" fill="none"/><path d="M310.5 81h-1v-.5h1z" fill="#fa7811"/><path d="M310 137.67l-4.64-14.26h9.28z" stroke="#fa7811" fill="#fa7811"/><path d="M235 28c0-4.42 3.58-8 8-8h134c4.42 0 8 3.58 8 8v44c0 4.42-3.58 8-8 8H243c-4.42 0-8-3.58-8-8z" stroke="#fa7811" fill="#fa7811" fill-opacity=".5"/><g><use xlink:href="#N" transform="matrix(1,0,0,1,247,32) translate(1.6999999999999957 21.15)"/><use xlink:href="#O" transform="matrix(1,0,0,1,247,32) translate(71.44999999999999 21.15)"/></g><path d="M710 848.7c0-4.4 3.58-8 8-8h164c4.42 0 8 3.6 8 8v44c0 4.43-3.58 8-8 8H718c-4.42 0-8-3.57-8-8z" stroke="#7ab648" fill="#7ab648" fill-opacity=".5"/><g><use xlink:href="#P" transform="matrix(1,0,0,1,722,852.7071067811866) translate(22.074999999999996 14.4)"/><use xlink:href="#Q" transform="matrix(1,0,0,1,722,852.7071067811866) translate(70.025 14.4)"/><use xlink:href="#R" transform="matrix(1,0,0,1,722,852.7071067811866) translate(118.92500000000001 14.4)"/><use xlink:href="#S" transform="matrix(1,0,0,1,722,852.7071067811866) translate(9.125 36)"/><use xlink:href="#T" transform="matrix(1,0,0,1,722,852.7071067811866) translate(98.87500000000001 36)"/></g><path d="M800 731v92.82" stroke="#7ab648" fill="none"/><path d="M800.5 731h-1v-.5h1z" fill="#7ab648"/><path d="M800 838.6l-4.64-14.28h9.28z" stroke="#7ab648" fill="#7ab648"/><defs><path fill="#fff" d="M175 0L67-191c6 58 2 128 3 191H24v-248h59L193-55c-6-58-2-129-3-193h46V0h-61" id="U"/><path fill="#fff" d="M185-48c-13 30-37 53-82 52C43 2 14-33 14-96s30-98 90-98c62 0 83 45 84 108H66c0 31 8 55 39 56 18 0 30-7 34-22zm-45-69c5-46-57-63-70-21-2 6-4 13-4 21h74" id="V"/><path fill="#fff" d="M144 0l-44-69L55 0H2l70-98-66-92h53l41 62 40-62h54l-67 91 71 99h-54" id="W"/><path fill="#fff" d="M115-3C79 11 28 4 28-45v-112H4v-33h27l15-45h31v45h36v33H77v99c-1 23 16 31 38 25v30" id="X"/><g id="a"><use transform="matrix(0.05,0,0,0.05,0,0)" xlink:href="#U"/><use transform="matrix(0.05,0,0,0.05,12.950000000000001,0)" xlink:href="#V"/><use transform="matrix(0.05,0,0,0.05,22.950000000000003,0)" xlink:href="#W"/><use transform="matrix(0.05,0,0,0.05,32.95,0)" xlink:href="#X"/></g><path fill="#fff" d="M88-194c31-1 46 15 58 34l-1-101h50l1 261h-48c-2-10 0-23-3-31C134-8 116 4 84 4 32 4 16-41 15-95c0-56 19-97 73-99zm17 164c33 0 40-30 41-66 1-37-9-64-41-64s-38 30-39 65c0 43 13 65 39 65" id="Y"/><path fill="#fff" d="M110-194c64 0 96 36 96 99 0 64-35 99-97 99-61 0-95-36-95-99 0-62 34-99 96-99zm-1 164c35 0 45-28 45-65 0-40-10-65-43-65-34 0-45 26-45 65 0 36 10 65 43 65" id="Z"/><path fill="#fff" d="M220-157c-53 9-28 100-34 157h-49v-107c1-27-5-49-29-50C55-147 81-57 75 0H25l-1-190h47c2 12-1 28 3 38 10-53 101-56 108 0 13-22 24-43 59-42 82 1 51 116 57 194h-49v-107c-1-25-5-48-29-50" id="aa"/><path fill="#fff" d="M133-34C117-15 103 5 69 4 32 3 11-16 11-54c-1-60 55-63 116-61 1-26-3-47-28-47-18 1-26 9-28 27l-52-2c7-38 36-58 82-57s74 22 75 68l1 82c-1 14 12 18 25 15v27c-30 8-71 5-69-32zm-48 3c29 0 43-24 42-57-32 0-66-3-65 30 0 17 8 27 23 27" id="ab"/><path fill="#fff" d="M25-224v-37h50v37H25zM25 0v-190h50V0H25" id="ac"/><path fill="#fff" d="M135-194c87-1 58 113 63 194h-50c-7-57 23-157-34-157-59 0-34 97-39 157H25l-1-190h47c2 12-1 28 3 38 12-26 28-41 61-42" id="ad"/><path fill="#fff" d="M110-251c83-7 118 89 53 130-17 10-36 21-38 46H78c2-56 65-53 71-103 2-21-15-35-38-34-25 1-41 14-44 38l-50-2c6-48 39-70 93-75zM77 0v-47h51V0H77" id="ae"/><g id="b"><use transform="matrix(0.05,0,0,0.05,0,0)" xlink:href="#Y"/><use transform="matrix(0.05,0,0,0.05,10.950000000000001,0)" xlink:href="#Z"/><use transform="matrix(0.05,0,0,0.05,21.900000000000002,0)" xlink:href="#aa"/><use transform="matrix(0.05,0,0,0.05,37.900000000000006,0)" xlink:href="#ab"/><use transform="matrix(0.05,0,0,0.05,47.900000000000006,0)" xlink:href="#ac"/><use transform="matrix(0.05,0,0,0.05,52.900000000000006,0)" xlink:href="#ad"/><use transform="matrix(0.05,0,0,0.05,63.85,0)" xlink:href="#ae"/></g><path fill="#333" d="M175 0L67-191c6 58 2 128 3 191H24v-248h59L193-55c-6-58-2-129-3-193h46V0h-61" id="af"/><path fill="#333" d="M190-63c-7 42-38 67-86 67-59 0-84-38-90-98-12-110 154-137 174-36l-49 2c-2-19-15-32-35-32-30 0-35 28-38 64-6 74 65 87 74 30" id="ag"/><path fill="#333" d="M133-34C117-15 103 5 69 4 32 3 11-16 11-54c-1-60 55-63 116-61 1-26-3-47-28-47-18 1-26 9-28 27l-52-2c7-38 36-58 82-57s74 22 75 68l1 82c-1 14 12 18 25 15v27c-30 8-71 5-69-32zm-48 3c29 0 43-24 42-57-32 0-66-3-65 30 0 17 8 27 23 27" id="ah"/><path fill="#333" d="M114-157C55-157 80-60 75 0H25v-261h50l-1 109c12-26 28-41 61-42 86-1 58 113 63 194h-50c-7-57 23-157-34-157" id="ai"/><path fill="#333" d="M185-48c-13 30-37 53-82 52C43 2 14-33 14-96s30-98 90-98c62 0 83 45 84 108H66c0 31 8 55 39 56 18 0 30-7 34-22zm-45-69c5-46-57-63-70-21-2 6-4 13-4 21h74" id="aj"/><g id="c"><use transform="matrix(0.05,0,0,0.05,0,0)" xlink:href="#af"/><use transform="matrix(0.05,0,0,0.05,12.950000000000001,0)" xlink:href="#ag"/><use transform="matrix(0.05,0,0,0.05,22.950000000000003,0)" xlink:href="#ah"/><use transform="matrix(0.05,0,0,0.05,32.95,0)" xlink:href="#ag"/><use transform="matrix(0.05,0,0,0.05,42.95,0)" xlink:href="#ai"/><use transform="matrix(0.05,0,0,0.05,53.900000000000006,0)" xlink:href="#aj"/></g><path fill="#333" d="M25-224v-37h50v37H25zM25 0v-190h50V0H25" id="ak"/><path fill="#333" d="M115-3C79 11 28 4 28-45v-112H4v-33h27l15-45h31v45h36v33H77v99c-1 23 16 31 38 25v30" id="al"/><path fill="#333" d="M110-251c83-7 118 89 53 130-17 10-36 21-38 46H78c2-56 65-53 71-103 2-21-15-35-38-34-25 1-41 14-44 38l-50-2c6-48 39-70 93-75zM77 0v-47h51V0H77" id="am"/><g id="d"><use transform="matrix(0.05,0,0,0.05,0,0)" xlink:href="#ai"/><use transform="matrix(0.05,0,0,0.05,10.950000000000001,0)" xlink:href="#ak"/><use transform="matrix(0.05,0,0,0.05,15.950000000000001,0)" xlink:href="#al"/><use transform="matrix(0.05,0,0,0.05,21.900000000000002,0)" xlink:href="#am"/></g><path fill="#333" d="M67-125c0 53 21 87 73 88 37 1 54-22 65-47l45 17C233-25 199 4 140 4 58 4 20-42 15-125 8-235 124-281 211-232c18 10 29 29 36 50l-46 12c-8-25-30-41-62-41-52 0-71 34-72 86" id="an"/><g id="e"><use transform="matrix(0.05,0,0,0.05,0,0)" xlink:href="#an"/><use transform="matrix(0.05,0,0,0.05,12.950000000000001,0)" xlink:href="#ah"/><use transform="matrix(0.05,0,0,0.05,22.950000000000003,0)" xlink:href="#ag"/><use transform="matrix(0.05,0,0,0.05,32.95,0)" xlink:href="#ai"/><use transform="matrix(0.05,0,0,0.05,43.900000000000006,0)" xlink:href="#aj"/></g><g id="f"><use transform="matrix(0.05,0,0,0.05,0,0)" xlink:href="#ai"/><use transform="matrix(0.05,0,0,0.05,10.950000000000001,0)" xlink:href="#ak"/><use transform="matrix(0.05,0,0,0.05,15.950000000000001,0)" xlink:href="#al"/><use transform="matrix(0.05,0,0,0.05,21.900000000000002,0)" xlink:href="#am"/></g><path fill="#333" d="M24 0v-248h195v40H76v63h132v40H76v65h150V0H24" id="ao"/><path fill="#333" d="M144 0l-44-69L55 0H2l70-98-66-92h53l41 62 40-62h54l-67 91 71 99h-54" id="ap"/><path fill="#333" d="M135-194c53 0 70 44 70 98 0 56-19 98-73 100-31 1-45-17-59-34 3 33 2 69 2 105H25l-1-265h48c2 10 0 23 3 31 11-24 29-35 60-35zM114-30c33 0 39-31 40-66 0-38-9-64-40-64-56 0-55 130 0 130" id="aq"/><path fill="#333" d="M135-150c-39-12-60 13-60 57V0H25l-1-190h47c2 13-1 29 3 40 6-28 27-53 61-41v41" id="ar"/><path fill="#333" d="M88-194c31-1 46 15 58 34l-1-101h50l1 261h-48c-2-10 0-23-3-31C134-8 116 4 84 4 32 4 16-41 15-95c0-56 19-97 73-99zm17 164c33 0 40-30 41-66 1-37-9-64-41-64s-38 30-39 65c0 43 13 65 39 65" id="as"/><g id="g"><use transform="matrix(0.05,0,0,0.05,0,0)" xlink:href="#ao"/><use transform="matrix(0.05,0,0,0.05,12,0)" xlink:href="#ap"/><use transform="matrix(0.05,0,0,0.05,22,0)" xlink:href="#aq"/><use transform="matrix(0.05,0,0,0.05,32.95,0)" xlink:href="#ak"/><use transform="matrix(0.05,0,0,0.05,37.95,0)" xlink:href="#ar"/><use transform="matrix(0.05,0,0,0.05,44.95,0)" xlink:href="#aj"/><use transform="matrix(0.05,0,0,0.05,54.95,0)" xlink:href="#as"/><use transform="matrix(0.05,0,0,0.05,65.9,0)" xlink:href="#am"/></g><path fill="#fff" d="M24-248c120-7 223 5 221 122C244-46 201 0 124 0H24v-248zM76-40c74 7 117-18 117-86 0-67-45-88-117-82v168" id="at"/><path fill="#fff" d="M35-132v-50h50v50H35zM35 0v-49h50V0H35" id="au"/><g id="h"><use transform="matrix(0.05,0,0,0.05,0,0)" xlink:href="#at"/><use transform="matrix(0.05,0,0,0.05,12.950000000000001,0)" xlink:href="#Z"/><use transform="matrix(0.05,0,0,0.05,23.900000000000002,0)" xlink:href="#ad"/><use transform="matrix(0.05,0,0,0.05,34.85,0)" xlink:href="#V"/><use transform="matrix(0.05,0,0,0.05,44.85,0)" xlink:href="#au"/></g><path fill="#fff" d="M76-208v77h127v40H76V0H24v-248h183v40H76" id="av"/><path fill="#fff" d="M85 4C-2 5 27-109 22-190h50c7 57-23 150 33 157 60-5 35-97 40-157h50l1 190h-47c-2-12 1-28-3-38-12 25-28 42-61 42" id="aw"/><g id="i"><use transform="matrix(0.05,0,0,0.05,0,0)" xlink:href="#av"/><use transform="matrix(0.05,0,0,0.05,10.950000000000001,0)" xlink:href="#Z"/><use transform="matrix(0.05,0,0,0.05,21.900000000000002,0)" xlink:href="#aw"/><use transform="matrix(0.05,0,0,0.05,32.85,0)" xlink:href="#ad"/><use transform="matrix(0.05,0,0,0.05,43.800000000000004,0)" xlink:href="#Y"/></g><path fill="#333" d="M110-194c64 0 96 36 96 99 0 64-35 99-97 99-61 0-95-36-95-99 0-62 34-99 96-99zm-1 164c35 0 45-28 45-65 0-40-10-65-43-65-34 0-45 26-45 65 0 36 10 65 43 65" id="ax"/><g id="j"><use transform="matrix(0.05,0,0,0.05,0,0)" xlink:href="#af"/><use transform="matrix(0.05,0,0,0.05,12.950000000000001,0)" xlink:href="#ax"/><use transform="matrix(0.05,0,0,0.05,23.900000000000002,0)" xlink:href="#al"/></g><path fill="#333" d="M121-226c-27-7-43 5-38 36h38v33H83V0H34v-157H6v-33h28c-9-59 32-81 87-68v32" id="ay"/><path fill="#333" d="M85 4C-2 5 27-109 22-190h50c7 57-23 150 33 157 60-5 35-97 40-157h50l1 190h-47c-2-12 1-28-3-38-12 25-28 42-61 42" id="az"/><path fill="#333" d="M135-194c87-1 58 113 63 194h-50c-7-57 23-157-34-157-59 0-34 97-39 157H25l-1-190h47c2 12-1 28 3 38 12-26 28-41 61-42" id="aA"/><g id="k"><use transform="matrix(0.05,0,0,0.05,0,0)" xlink:href="#ay"/><use transform="matrix(0.05,0,0,0.05,5.95,0)" xlink:href="#ax"/><use transform="matrix(0.05,0,0,0.05,16.900000000000002,0)" xlink:href="#az"/><use transform="matrix(0.05,0,0,0.05,27.85,0)" xlink:href="#aA"/><use transform="matrix(0.05,0,0,0.05,38.800000000000004,0)" xlink:href="#as"/></g><path fill="#fa7811" d="M190 0L58-211 59 0H30v-248h39L202-35l-2-213h31V0h-41" id="aB"/><path fill="#fa7811" d="M100-194c62-1 85 37 85 99 1 63-27 99-86 99S16-35 15-95c0-66 28-99 85-99zM99-20c44 1 53-31 53-75 0-43-8-75-51-75s-53 32-53 75 10 74 51 75" id="aC"/><g id="l"><use transform="matrix(0.05,0,0,0.05,0,0)" xlink:href="#aB"/><use transform="matrix(0.05,0,0,0.05,12.950000000000001,0)" xlink:href="#aC"/></g><path fill="#c92d39" d="M137-103V0h-34v-103L8-248h37l75 118 75-118h37" id="aD"/><path fill="#c92d39" d="M100-194c63 0 86 42 84 106H49c0 40 14 67 53 68 26 1 43-12 49-29l28 8c-11 28-37 45-77 45C44 4 14-33 15-96c1-61 26-98 85-98zm52 81c6-60-76-77-97-28-3 7-6 17-6 28h103" id="aE"/><path fill="#c92d39" d="M135-143c-3-34-86-38-87 0 15 53 115 12 119 90S17 21 10-45l28-5c4 36 97 45 98 0-10-56-113-15-118-90-4-57 82-63 122-42 12 7 21 19 24 35" id="aF"/><g id="m"><use transform="matrix(0.05,0,0,0.05,0,0)" xlink:href="#aD"/><use transform="matrix(0.05,0,0,0.05,10.35,0)" xlink:href="#aE"/><use transform="matrix(0.05,0,0,0.05,20.35,0)" xlink:href="#aF"/></g><path fill="#fa7811" d="M137-103V0h-34v-103L8-248h37l75 118 75-118h37" id="aG"/><path fill="#fa7811" d="M100-194c63 0 86 42 84 106H49c0 40 14 67 53 68 26 1 43-12 49-29l28 8c-11 28-37 45-77 45C44 4 14-33 15-96c1-61 26-98 85-98zm52 81c6-60-76-77-97-28-3 7-6 17-6 28h103" id="aH"/><path fill="#fa7811" d="M135-143c-3-34-86-38-87 0 15 53 115 12 119 90S17 21 10-45l28-5c4 36 97 45 98 0-10-56-113-15-118-90-4-57 82-63 122-42 12 7 21 19 24 35" id="aI"/><g id="n"><use transform="matrix(0.05,0,0,0.05,0,0)" xlink:href="#aG"/><use transform="matrix(0.05,0,0,0.05,10.35,0)" xlink:href="#aH"/><use transform="matrix(0.05,0,0,0.05,20.35,0)" xlink:href="#aI"/></g><path fill="#7ab648" d="M190 0L58-211 59 0H30v-248h39L202-35l-2-213h31V0h-41" id="aJ"/><path fill="#7ab648" d="M100-194c62-1 85 37 85 99 1 63-27 99-86 99S16-35 15-95c0-66 28-99 85-99zM99-20c44 1 53-31 53-75 0-43-8-75-51-75s-53 32-53 75 10 74 51 75" id="aK"/><g id="o"><use transform="matrix(0.05,0,0,0.05,0,0)" xlink:href="#aJ"/><use transform="matrix(0.05,0,0,0.05,12.950000000000001,0)" xlink:href="#aK"/></g><g id="p"><use transform="matrix(0.05,0,0,0.05,0,0)" xlink:href="#aB"/><use transform="matrix(0.05,0,0,0.05,12.950000000000001,0)" xlink:href="#aC"/></g><path fill="#fa7811" d="M87 75C49 33 22-17 22-94c0-76 28-126 65-167h31c-38 41-64 92-64 168S80 34 118 75H87" id="aL"/><path fill="#fa7811" d="M101-234c-31-9-42 10-38 44h38v23H63V0H32v-167H5v-23h27c-7-52 17-82 69-68v24" id="aM"/><path fill="#fa7811" d="M24-231v-30h32v30H24zM24 0v-190h32V0H24" id="aN"/><path fill="#fa7811" d="M114-163C36-179 61-72 57 0H25l-1-190h30c1 12-1 29 2 39 6-27 23-49 58-41v29" id="aO"/><path fill="#fa7811" d="M59-47c-2 24 18 29 38 22v24C64 9 27 4 27-40v-127H5v-23h24l9-43h21v43h35v23H59v120" id="aP"/><g id="q"><use transform="matrix(0.05,0,0,0.05,0,0)" xlink:href="#aL"/><use transform="matrix(0.05,0,0,0.05,5.95,0)" xlink:href="#aM"/><use transform="matrix(0.05,0,0,0.05,10.95,0)" xlink:href="#aN"/><use transform="matrix(0.05,0,0,0.05,14.899999999999999,0)" xlink:href="#aO"/><use transform="matrix(0.05,0,0,0.05,20.849999999999998,0)" xlink:href="#aI"/><use transform="matrix(0.05,0,0,0.05,29.849999999999994,0)" xlink:href="#aP"/></g><path fill="#fa7811" d="M210-169c-67 3-38 105-44 169h-31v-121c0-29-5-50-35-48C34-165 62-65 56 0H25l-1-190h30c1 10-1 24 2 32 10-44 99-50 107 0 11-21 27-35 58-36 85-2 47 119 55 194h-31v-121c0-29-5-49-35-48" id="aQ"/><path fill="#fa7811" d="M33-261c38 41 65 92 65 168S71 34 33 75H2C39 34 66-17 66-93S39-220 2-261h31" id="aR"/><g id="r"><use transform="matrix(0.05,0,0,0.05,0,0)" xlink:href="#aP"/><use transform="matrix(0.05,0,0,0.05,5,0)" xlink:href="#aN"/><use transform="matrix(0.05,0,0,0.05,8.95,0)" xlink:href="#aQ"/><use transform="matrix(0.05,0,0,0.05,23.9,0)" xlink:href="#aH"/><use transform="matrix(0.05,0,0,0.05,33.9,0)" xlink:href="#aR"/></g><path fill="#1071e5" d="M137-103V0h-34v-103L8-248h37l75 118 75-118h37" id="aS"/><path fill="#1071e5" d="M100-194c63 0 86 42 84 106H49c0 40 14 67 53 68 26 1 43-12 49-29l28 8c-11 28-37 45-77 45C44 4 14-33 15-96c1-61 26-98 85-98zm52 81c6-60-76-77-97-28-3 7-6 17-6 28h103" id="aT"/><path fill="#1071e5" d="M135-143c-3-34-86-38-87 0 15 53 115 12 119 90S17 21 10-45l28-5c4 36 97 45 98 0-10-56-113-15-118-90-4-57 82-63 122-42 12 7 21 19 24 35" id="aU"/><g id="s"><use transform="matrix(0.05,0,0,0.05,0,0)" xlink:href="#aS"/><use transform="matrix(0.05,0,0,0.05,10.35,0)" xlink:href="#aT"/><use transform="matrix(0.05,0,0,0.05,20.35,0)" xlink:href="#aU"/></g><path fill="#1071e5" d="M30-248c118-7 216 8 213 122C240-48 200 0 122 0H30v-248zM63-27c89 8 146-16 146-99s-60-101-146-95v194" id="aV"/><path fill="#1071e5" d="M100-194c62-1 85 37 85 99 1 63-27 99-86 99S16-35 15-95c0-66 28-99 85-99zM99-20c44 1 53-31 53-75 0-43-8-75-51-75s-53 32-53 75 10 74 51 75" id="aW"/><path fill="#1071e5" d="M117-194c89-4 53 116 60 194h-32v-121c0-31-8-49-39-48C34-167 62-67 57 0H25l-1-190h30c1 10-1 24 2 32 11-22 29-35 61-36" id="aX"/><g id="t"><use transform="matrix(0.05,0,0,0.05,0,0)" xlink:href="#aV"/><use transform="matrix(0.05,0,0,0.05,12.950000000000001,0)" xlink:href="#aW"/><use transform="matrix(0.05,0,0,0.05,22.950000000000003,0)" xlink:href="#aX"/><use transform="matrix(0.05,0,0,0.05,32.95,0)" xlink:href="#aT"/></g><path fill="#333" d="M185-189c-5-48-123-54-124 2 14 75 158 14 163 119 3 78-121 87-175 55-17-10-28-26-33-46l33-7c5 56 141 63 141-1 0-78-155-14-162-118-5-82 145-84 179-34 5 7 8 16 11 25" id="aY"/><path fill="#333" d="M59-47c-2 24 18 29 38 22v24C64 9 27 4 27-40v-127H5v-23h24l9-43h21v43h35v23H59v120" id="aZ"/><path fill="#333" d="M100-194c62-1 85 37 85 99 1 63-27 99-86 99S16-35 15-95c0-66 28-99 85-99zM99-20c44 1 53-31 53-75 0-43-8-75-51-75s-53 32-53 75 10 74 51 75" id="ba"/><path fill="#333" d="M114-163C36-179 61-72 57 0H25l-1-190h30c1 12-1 29 2 39 6-27 23-49 58-41v29" id="bb"/><path fill="#333" d="M100-194c63 0 86 42 84 106H49c0 40 14 67 53 68 26 1 43-12 49-29l28 8c-11 28-37 45-77 45C44 4 14-33 15-96c1-61 26-98 85-98zm52 81c6-60-76-77-97-28-3 7-6 17-6 28h103" id="bc"/><g id="u"><use transform="matrix(0.05,0,0,0.05,0,0)" xlink:href="#aY"/><use transform="matrix(0.05,0,0,0.05,12,0)" xlink:href="#aZ"/><use transform="matrix(0.05,0,0,0.05,17,0)" xlink:href="#ba"/><use transform="matrix(0.05,0,0,0.05,27,0)" xlink:href="#bb"/><use transform="matrix(0.05,0,0,0.05,32.95,0)" xlink:href="#bc"/></g><path fill="#333" d="M135-143c-3-34-86-38-87 0 15 53 115 12 119 90S17 21 10-45l28-5c4 36 97 45 98 0-10-56-113-15-118-90-4-57 82-63 122-42 12 7 21 19 24 35" id="bd"/><path fill="#333" d="M84 4C-5 8 30-112 23-190h32v120c0 31 7 50 39 49 72-2 45-101 50-169h31l1 190h-30c-1-10 1-25-2-33-11 22-28 36-60 37" id="be"/><path fill="#333" d="M24 0v-261h32V0H24" id="bf"/><g id="v"><use transform="matrix(0.05,0,0,0.05,0,0)" xlink:href="#bb"/><use transform="matrix(0.05,0,0,0.05,5.95,0)" xlink:href="#bc"/><use transform="matrix(0.05,0,0,0.05,15.949999999999998,0)" xlink:href="#bd"/><use transform="matrix(0.05,0,0,0.05,24.95,0)" xlink:href="#be"/><use transform="matrix(0.05,0,0,0.05,34.95,0)" xlink:href="#bf"/><use transform="matrix(0.05,0,0,0.05,38.900000000000006,0)" xlink:href="#aZ"/></g><g id="w"><use transform="matrix(0.05,0,0,0.05,0,0)" xlink:href="#aZ"/><use transform="matrix(0.05,0,0,0.05,5,0)" xlink:href="#ba"/></g><path fill="#333" d="M117-194c89-4 53 116 60 194h-32v-121c0-31-8-49-39-48C34-167 62-67 57 0H25l-1-190h30c1 10-1 24 2 32 11-22 29-35 61-36" id="bg"/><path fill="#333" d="M177-190C167-65 218 103 67 71c-23-6-38-20-44-43l32-5c15 47 100 32 89-28v-30C133-14 115 1 83 1 29 1 15-40 15-95c0-56 16-97 71-98 29-1 48 16 59 35 1-10 0-23 2-32h30zM94-22c36 0 50-32 50-73 0-42-14-75-50-75-39 0-46 34-46 75s6 73 46 73" id="bh"/><path fill="#333" d="M141-36C126-15 110 5 73 4 37 3 15-17 15-53c-1-64 63-63 125-63 3-35-9-54-41-54-24 1-41 7-42 31l-33-3c5-37 33-52 76-52 45 0 72 20 72 64v82c-1 20 7 32 28 27v20c-31 9-61-2-59-35zM48-53c0 20 12 33 32 33 41-3 63-29 60-74-43 2-92-5-92 41" id="bi"/><path fill="#333" d="M24-231v-30h32v30H24zM24 0v-190h32V0H24" id="bj"/><path fill="#333" d="M108 0H70L1-190h34L89-25l56-165h34" id="bk"/><g id="x"><use transform="matrix(0.05,0,0,0.05,0,0)" xlink:href="#bg"/><use transform="matrix(0.05,0,0,0.05,10,0)" xlink:href="#bc"/><use transform="matrix(0.05,0,0,0.05,20,0)" xlink:href="#bh"/><use transform="matrix(0.05,0,0,0.05,30,0)" xlink:href="#bi"/><use transform="matrix(0.05,0,0,0.05,40,0)" xlink:href="#aZ"/><use transform="matrix(0.05,0,0,0.05,45,0)" xlink:href="#bj"/><use transform="matrix(0.05,0,0,0.05,48.95,0)" xlink:href="#bk"/><use transform="matrix(0.05,0,0,0.05,57.95,0)" xlink:href="#bc"/></g><path fill="#333" d="M96-169c-40 0-48 33-48 73s9 75 48 75c24 0 41-14 43-38l32 2c-6 37-31 61-74 61-59 0-76-41-82-99-10-93 101-131 147-64 4 7 5 14 7 22l-32 3c-4-21-16-35-41-35" id="bl"/><path fill="#333" d="M106-169C34-169 62-67 57 0H25v-261h32l-1 103c12-21 28-36 61-36 89 0 53 116 60 194h-32v-121c2-32-8-49-39-48" id="bm"/><g id="y"><use transform="matrix(0.05,0,0,0.05,0,0)" xlink:href="#bl"/><use transform="matrix(0.05,0,0,0.05,9,0)" xlink:href="#bi"/><use transform="matrix(0.05,0,0,0.05,19,0)" xlink:href="#bl"/><use transform="matrix(0.05,0,0,0.05,28,0)" xlink:href="#bm"/><use transform="matrix(0.05,0,0,0.05,38,0)" xlink:href="#bc"/></g><path fill="#c92d39" d="M190 0L58-211 59 0H30v-248h39L202-35l-2-213h31V0h-41" id="bn"/><path fill="#c92d39" d="M100-194c62-1 85 37 85 99 1 63-27 99-86 99S16-35 15-95c0-66 28-99 85-99zM99-20c44 1 53-31 53-75 0-43-8-75-51-75s-53 32-53 75 10 74 51 75" id="bo"/><g id="z"><use transform="matrix(0.05,0,0,0.05,0,0)" xlink:href="#bn"/><use transform="matrix(0.05,0,0,0.05,12.950000000000001,0)" xlink:href="#bo"/></g><path fill="#c92d39" d="M87 75C49 33 22-17 22-94c0-76 28-126 65-167h31c-38 41-64 92-64 168S80 34 118 75H87" id="bp"/><path fill="#c92d39" d="M96-169c-40 0-48 33-48 73s9 75 48 75c24 0 41-14 43-38l32 2c-6 37-31 61-74 61-59 0-76-41-82-99-10-93 101-131 147-64 4 7 5 14 7 22l-32 3c-4-21-16-35-41-35" id="bq"/><path fill="#c92d39" d="M117-194c89-4 53 116 60 194h-32v-121c0-31-8-49-39-48C34-167 62-67 57 0H25l-1-190h30c1 10-1 24 2 32 11-22 29-35 61-36" id="br"/><path fill="#c92d39" d="M85-194c31 0 48 13 60 33l-1-100h32l1 261h-30c-2-10 0-23-3-31C134-8 116 4 85 4 32 4 16-35 15-94c0-66 23-100 70-100zm9 24c-40 0-46 34-46 75 0 40 6 74 45 74 42 0 51-32 51-76 0-42-9-74-50-73" id="bs"/><g id="A"><use transform="matrix(0.05,0,0,0.05,0,0)" xlink:href="#bp"/><use transform="matrix(0.05,0,0,0.05,5.95,0)" xlink:href="#aF"/><use transform="matrix(0.05,0,0,0.05,14.949999999999998,0)" xlink:href="#aE"/><use transform="matrix(0.05,0,0,0.05,24.95,0)" xlink:href="#bq"/><use transform="matrix(0.05,0,0,0.05,33.95,0)" xlink:href="#bo"/><use transform="matrix(0.05,0,0,0.05,43.95,0)" xlink:href="#br"/><use transform="matrix(0.05,0,0,0.05,53.95,0)" xlink:href="#bs"/></g><path fill="#c92d39" d="M59-47c-2 24 18 29 38 22v24C64 9 27 4 27-40v-127H5v-23h24l9-43h21v43h35v23H59v120" id="bt"/><path fill="#c92d39" d="M24-231v-30h32v30H24zM24 0v-190h32V0H24" id="bu"/><path fill="#c92d39" d="M210-169c-67 3-38 105-44 169h-31v-121c0-29-5-50-35-48C34-165 62-65 56 0H25l-1-190h30c1 10-1 24 2 32 10-44 99-50 107 0 11-21 27-35 58-36 85-2 47 119 55 194h-31v-121c0-29-5-49-35-48" id="bv"/><path fill="#c92d39" d="M33-261c38 41 65 92 65 168S71 34 33 75H2C39 34 66-17 66-93S39-220 2-261h31" id="bw"/><g id="B"><use transform="matrix(0.05,0,0,0.05,0,0)" xlink:href="#bt"/><use transform="matrix(0.05,0,0,0.05,5,0)" xlink:href="#bu"/><use transform="matrix(0.05,0,0,0.05,8.95,0)" xlink:href="#bv"/><use transform="matrix(0.05,0,0,0.05,23.9,0)" xlink:href="#aE"/><use transform="matrix(0.05,0,0,0.05,33.9,0)" xlink:href="#bw"/></g><path fill="#fff" d="M205 0l-28-72H64L36 0H1l101-248h38L239 0h-34zm-38-99l-47-123c-12 45-31 82-46 123h93" id="bx"/><path fill="#fff" d="M135-143c-3-34-86-38-87 0 15 53 115 12 119 90S17 21 10-45l28-5c4 36 97 45 98 0-10-56-113-15-118-90-4-57 82-63 122-42 12 7 21 19 24 35" id="by"/><path fill="#fff" d="M143 0L79-87 56-68V0H24v-261h32v163l83-92h37l-77 82L181 0h-38" id="bz"/><g id="C"><use transform="matrix(0.05,0,0,0.05,0,0)" xlink:href="#bx"/><use transform="matrix(0.05,0,0,0.05,12,0)" xlink:href="#by"/><use transform="matrix(0.05,0,0,0.05,21,0)" xlink:href="#bz"/></g><path fill="#fff" d="M115-194c53 0 69 39 70 98 0 66-23 100-70 100C84 3 66-7 56-30L54 0H23l1-261h32v101c10-23 28-34 59-34zm-8 174c40 0 45-34 45-75 0-40-5-75-45-74-42 0-51 32-51 76 0 43 10 73 51 73" id="bA"/><path fill="#fff" d="M141-36C126-15 110 5 73 4 37 3 15-17 15-53c-1-64 63-63 125-63 3-35-9-54-41-54-24 1-41 7-42 31l-33-3c5-37 33-52 76-52 45 0 72 20 72 64v82c-1 20 7 32 28 27v20c-31 9-61-2-59-35zM48-53c0 20 12 33 32 33 41-3 63-29 60-74-43 2-92-5-92 41" id="bB"/><path fill="#fff" d="M96-169c-40 0-48 33-48 73s9 75 48 75c24 0 41-14 43-38l32 2c-6 37-31 61-74 61-59 0-76-41-82-99-10-93 101-131 147-64 4 7 5 14 7 22l-32 3c-4-21-16-35-41-35" id="bC"/><path fill="#fff" d="M100-194c63 0 86 42 84 106H49c0 40 14 67 53 68 26 1 43-12 49-29l28 8c-11 28-37 45-77 45C44 4 14-33 15-96c1-61 26-98 85-98zm52 81c6-60-76-77-97-28-3 7-6 17-6 28h103" id="bD"/><path fill="#fff" d="M117-194c89-4 53 116 60 194h-32v-121c0-31-8-49-39-48C34-167 62-67 57 0H25l-1-190h30c1 10-1 24 2 32 11-22 29-35 61-36" id="bE"/><path fill="#fff" d="M85-194c31 0 48 13 60 33l-1-100h32l1 261h-30c-2-10 0-23-3-31C134-8 116 4 85 4 32 4 16-35 15-94c0-66 23-100 70-100zm9 24c-40 0-46 34-46 75 0 40 6 74 45 74 42 0 51-32 51-76 0-42-9-74-50-73" id="bF"/><g id="D"><use transform="matrix(0.05,0,0,0.05,0,0)" xlink:href="#bA"/><use transform="matrix(0.05,0,0,0.05,10,0)" xlink:href="#bB"/><use transform="matrix(0.05,0,0,0.05,20,0)" xlink:href="#bC"/><use transform="matrix(0.05,0,0,0.05,29,0)" xlink:href="#bz"/><use transform="matrix(0.05,0,0,0.05,38,0)" xlink:href="#bD"/><use transform="matrix(0.05,0,0,0.05,48,0)" xlink:href="#bE"/><use transform="matrix(0.05,0,0,0.05,58,0)" xlink:href="#bF"/></g><path fill="#fff" d="M59-47c-2 24 18 29 38 22v24C64 9 27 4 27-40v-127H5v-23h24l9-43h21v43h35v23H59v120" id="bG"/><path fill="#fff" d="M100-194c62-1 85 37 85 99 1 63-27 99-86 99S16-35 15-95c0-66 28-99 85-99zM99-20c44 1 53-31 53-75 0-43-8-75-51-75s-53 32-53 75 10 74 51 75" id="bH"/><g id="E"><use transform="matrix(0.05,0,0,0.05,0,0)" xlink:href="#bG"/><use transform="matrix(0.05,0,0,0.05,5,0)" xlink:href="#bH"/></g><path fill="#fff" d="M24 0v-261h32V0H24" id="bI"/><path fill="#fff" d="M84 4C-5 8 30-112 23-190h32v120c0 31 7 50 39 49 72-2 45-101 50-169h31l1 190h-30c-1-10 1-25-2-33-11 22-28 36-60 37" id="bJ"/><path fill="#fff" d="M115-194c55 1 70 41 70 98S169 2 115 4C84 4 66-9 55-30l1 105H24l-1-265h31l2 30c10-21 28-34 59-34zm-8 174c40 0 45-34 45-75s-6-73-45-74c-42 0-51 32-51 76 0 43 10 73 51 73" id="bK"/><g id="F"><use transform="matrix(0.05,0,0,0.05,0,0)" xlink:href="#bI"/><use transform="matrix(0.05,0,0,0.05,3.95,0)" xlink:href="#bH"/><use transform="matrix(0.05,0,0,0.05,13.949999999999998,0)" xlink:href="#bH"/><use transform="matrix(0.05,0,0,0.05,23.95,0)" xlink:href="#bz"/><use transform="matrix(0.05,0,0,0.05,32.95,0)" xlink:href="#bJ"/><use transform="matrix(0.05,0,0,0.05,42.95,0)" xlink:href="#bK"/></g><path fill="#fff" d="M106-169C34-169 62-67 57 0H25v-261h32l-1 103c12-21 28-36 61-36 89 0 53 116 60 194h-32v-121c2-32-8-49-39-48" id="bL"/><g id="G"><use transform="matrix(0.05,0,0,0.05,0,0)" xlink:href="#bG"/><use transform="matrix(0.05,0,0,0.05,5,0)" xlink:href="#bL"/><use transform="matrix(0.05,0,0,0.05,15,0)" xlink:href="#bD"/></g><path fill="#fff" d="M24-231v-30h32v30H24zM-9 49c24 4 33-6 33-30v-209h32V24c2 40-23 58-65 49V49" id="bM"/><g id="H"><use transform="matrix(0.05,0,0,0.05,0,0)" xlink:href="#bH"/><use transform="matrix(0.05,0,0,0.05,10,0)" xlink:href="#bA"/><use transform="matrix(0.05,0,0,0.05,20,0)" xlink:href="#bM"/><use transform="matrix(0.05,0,0,0.05,23.95,0)" xlink:href="#bD"/><use transform="matrix(0.05,0,0,0.05,33.95,0)" xlink:href="#bC"/><use transform="matrix(0.05,0,0,0.05,42.95,0)" xlink:href="#bG"/></g><path fill="#333" d="M24 0v-248h52v208h133V0H24" id="bN"/><path fill="#333" d="M24-248c120-7 223 5 221 122C244-46 201 0 124 0H24v-248zM76-40c74 7 117-18 117-86 0-67-45-88-117-82v168" id="bO"/><path fill="#333" d="M199 0l-22-63H83L61 0H9l90-248h61L250 0h-51zm-33-102l-36-108c-10 38-24 72-36 108h72" id="bP"/><path fill="#333" d="M24-248c93 1 206-16 204 79-1 75-69 88-152 82V0H24v-248zm52 121c47 0 100 7 100-41 0-47-54-39-100-39v80" id="bQ"/><g id="I"><use transform="matrix(0.05,0,0,0.05,0,0)" xlink:href="#bN"/><use transform="matrix(0.05,0,0,0.05,10.950000000000001,0)" xlink:href="#bO"/><use transform="matrix(0.05,0,0,0.05,23.900000000000002,0)" xlink:href="#bP"/><use transform="matrix(0.05,0,0,0.05,36.85,0)" xlink:href="#bQ"/></g><path fill="#333" d="M140-251c80 0 125 45 125 126 0 70-33 111-92 124 6 28 34 38 68 31l-1 36C177 83 129 55 120 2 51-6 15-50 15-125c0-81 44-126 125-126zm-1 214c52 0 73-35 73-88 0-50-21-86-72-86-52 0-73 35-73 86s22 88 72 88" id="bR"/><path fill="#333" d="M123 10C108 53 80 86 19 72V37c35 8 53-11 59-39L3-190h52l48 148c12-52 28-100 44-148h51" id="bS"/><g id="J"><use transform="matrix(0.05,0,0,0.05,0,0)" xlink:href="#bR"/><use transform="matrix(0.05,0,0,0.05,14,0)" xlink:href="#az"/><use transform="matrix(0.05,0,0,0.05,24.950000000000003,0)" xlink:href="#aj"/><use transform="matrix(0.05,0,0,0.05,34.95,0)" xlink:href="#ar"/><use transform="matrix(0.05,0,0,0.05,41.95,0)" xlink:href="#bS"/></g><g id="K"><use transform="matrix(0.05,0,0,0.05,0,0)" xlink:href="#U"/><use transform="matrix(0.05,0,0,0.05,12.950000000000001,0)" xlink:href="#Z"/><use transform="matrix(0.05,0,0,0.05,23.900000000000002,0)" xlink:href="#X"/></g><path fill="#fff" d="M121-226c-27-7-43 5-38 36h38v33H83V0H34v-157H6v-33h28c-9-59 32-81 87-68v32" id="bT"/><g id="L"><use transform="matrix(0.05,0,0,0.05,0,0)" xlink:href="#bT"/><use transform="matrix(0.05,0,0,0.05,5.95,0)" xlink:href="#Z"/><use transform="matrix(0.05,0,0,0.05,16.900000000000002,0)" xlink:href="#aw"/><use transform="matrix(0.05,0,0,0.05,27.85,0)" xlink:href="#ad"/><use transform="matrix(0.05,0,0,0.05,38.800000000000004,0)" xlink:href="#Y"/></g><g id="M"><use transform="matrix(0.05,0,0,0.05,0,0)" xlink:href="#bn"/><use transform="matrix(0.05,0,0,0.05,12.950000000000001,0)" xlink:href="#bo"/></g><path fill="#333" d="M147 0L96-86 75-71V0H25v-261h50v150l67-79h53l-66 74L201 0h-54" id="bU"/><g id="N"><use transform="matrix(0.05,0,0,0.05,0,0)" xlink:href="#bN"/><use transform="matrix(0.05,0,0,0.05,10.950000000000001,0)" xlink:href="#ax"/><use transform="matrix(0.05,0,0,0.05,21.900000000000002,0)" xlink:href="#ax"/><use transform="matrix(0.05,0,0,0.05,32.85,0)" xlink:href="#bU"/><use transform="matrix(0.05,0,0,0.05,42.85,0)" xlink:href="#az"/><use transform="matrix(0.05,0,0,0.05,53.800000000000004,0)" xlink:href="#aq"/></g><path fill="#333" d="M135-194c52 0 70 43 70 98 0 56-19 99-73 100-30 1-46-15-58-35L72 0H24l1-261h50v104c11-23 29-37 60-37zM114-30c31 0 40-27 40-66 0-37-7-63-39-63s-41 28-41 65c0 36 8 64 40 64" id="bV"/><path fill="#333" d="M25-224v-37h50v37H25zM75 22c2 45-34 59-81 51V38c22 5 31-5 31-27v-201h50V22" id="bW"/><g id="O"><use transform="matrix(0.05,0,0,0.05,0,0)" xlink:href="#ax"/><use transform="matrix(0.05,0,0,0.05,10.950000000000001,0)" xlink:href="#bV"/><use transform="matrix(0.05,0,0,0.05,21.900000000000002,0)" xlink:href="#bW"/><use transform="matrix(0.05,0,0,0.05,26.900000000000002,0)" xlink:href="#aj"/><use transform="matrix(0.05,0,0,0.05,36.900000000000006,0)" xlink:href="#ag"/><use transform="matrix(0.05,0,0,0.05,46.900000000000006,0)" xlink:href="#al"/></g><g id="P"><use transform="matrix(0.05,0,0,0.05,0,0)" xlink:href="#aY"/><use transform="matrix(0.05,0,0,0.05,12,0)" xlink:href="#aZ"/><use transform="matrix(0.05,0,0,0.05,17,0)" xlink:href="#ba"/><use transform="matrix(0.05,0,0,0.05,27,0)" xlink:href="#bb"/><use transform="matrix(0.05,0,0,0.05,32.95,0)" xlink:href="#bc"/></g><g id="Q"><use transform="matrix(0.05,0,0,0.05,0,0)" xlink:href="#bb"/><use transform="matrix(0.05,0,0,0.05,5.95,0)" xlink:href="#bc"/><use transform="matrix(0.05,0,0,0.05,15.949999999999998,0)" xlink:href="#bd"/><use transform="matrix(0.05,0,0,0.05,24.95,0)" xlink:href="#be"/><use transform="matrix(0.05,0,0,0.05,34.95,0)" xlink:href="#bf"/><use transform="matrix(0.05,0,0,0.05,38.900000000000006,0)" xlink:href="#aZ"/></g><g id="R"><use transform="matrix(0.05,0,0,0.05,0,0)" xlink:href="#aZ"/><use transform="matrix(0.05,0,0,0.05,5,0)" xlink:href="#ba"/></g><path fill="#333" d="M16-82v-28h88v28H16" id="bX"/><path fill="#333" d="M210-169c-67 3-38 105-44 169h-31v-121c0-29-5-50-35-48C34-165 62-65 56 0H25l-1-190h30c1 10-1 24 2 32 10-44 99-50 107 0 11-21 27-35 58-36 85-2 47 119 55 194h-31v-121c0-29-5-49-35-48" id="bY"/><path fill="#333" d="M179-190L93 31C79 59 56 82 12 73V49c39 6 53-20 64-50L1-190h34L92-34l54-156h33" id="bZ"/><g id="S"><use transform="matrix(0.05,0,0,0.05,0,0)" xlink:href="#bj"/><use transform="matrix(0.05,0,0,0.05,3.95,0)" xlink:href="#bg"/><use transform="matrix(0.05,0,0,0.05,13.949999999999998,0)" xlink:href="#bX"/><use transform="matrix(0.05,0,0,0.05,19.9,0)" xlink:href="#bY"/><use transform="matrix(0.05,0,0,0.05,34.85,0)" xlink:href="#bc"/><use transform="matrix(0.05,0,0,0.05,44.85,0)" xlink:href="#bY"/><use transform="matrix(0.05,0,0,0.05,59.800000000000004,0)" xlink:href="#ba"/><use transform="matrix(0.05,0,0,0.05,69.80000000000001,0)" xlink:href="#bb"/><use transform="matrix(0.05,0,0,0.05,75.75000000000001,0)" xlink:href="#bZ"/></g><g id="T"><use transform="matrix(0.05,0,0,0.05,0,0)" xlink:href="#bl"/><use transform="matrix(0.05,0,0,0.05,9,0)" xlink:href="#bi"/><use transform="matrix(0.05,0,0,0.05,19,0)" xlink:href="#bl"/><use transform="matrix(0.05,0,0,0.05,28,0)" xlink:href="#bm"/><use transform="matrix(0.05,0,0,0.05,38,0)" xlink:href="#bc"/></g></defs></g></svg>