<svg xmlns="http://www.w3.org/2000/svg" xmlns:xlink="http://www.w3.org/1999/xlink" xmlns:lucid="lucid" width="1041.09" height="1161.13"><g transform="translate(0 0)" lucid:page-tab-id="7ezayB~FQlW7"><path d="M20 548c0-4.42 3.58-8 8-8h784c4.42 0 8 3.58 8 8v144c0 4.42-3.58 8-8 8H28c-4.42 0-8-3.58-8-8z" stroke="#fa7811" fill="#fa7811" fill-opacity=".2"/><use xlink:href="#a" transform="matrix(1,0,0,1,36,556) translate(321.87654320987656 14.222222222222223)"/><path d="M40 602.52c0-4.42 3.58-8 8-8h104c4.42 0 8 3.58 8 8v44c0 4.42-3.58 8-8 8H48c-4.42 0-8-3.58-8-8z" stroke="#000" stroke-opacity="0" stroke-width="2" fill="#fa7811"/><use xlink:href="#b" transform="matrix(1,0,0,1,45,599.5188557465674) translate(36.75308641975309 29.84722222222222)"/><path d="M200 602.52c0-4.42 3.58-8 8-8h104c4.42 0 8 3.58 8 8v44c0 4.42-3.58 8-8 8H208c-4.42 0-8-3.58-8-8z" stroke="#000" stroke-opacity="0" stroke-width="2" fill="#fa7811"/><use xlink:href="#c" transform="matrix(1,0,0,1,205,599.5188557465674) translate(35.96296296296296 29.84722222222222)"/><path d="M360 602.52c0-4.42 3.58-8 8-8h104c4.42 0 8 3.58 8 8v44c0 4.42-3.58 8-8 8H368c-4.42 0-8-3.58-8-8z" stroke="#000" stroke-opacity="0" stroke-width="2" fill="#fa7811"/><use xlink:href="#d" transform="matrix(1,0,0,1,365,599.5188557465674) translate(29.370370370370367 29.84722222222222)"/><path d="M520 602.52c0-4.42 3.58-8 8-8h104c4.42 0 8 3.58 8 8v44c0 4.42-3.58 8-8 8H528c-4.42 0-8-3.58-8-8z" stroke="#000" stroke-opacity="0" stroke-width="2" fill="#fa7811"/><use xlink:href="#e" transform="matrix(1,0,0,1,525,599.5188557465674) translate(18.728395061728392 29.84722222222222)"/><path d="M680 602.52c0-4.42 3.58-8 8-8h104c4.42 0 8 3.58 8 8v44c0 4.42-3.58 8-8 8H688c-4.42 0-8-3.58-8-8z" stroke="#fa7811" stroke-width="2" fill="#fa7811" fill-opacity=".5"/><use xlink:href="#f" transform="matrix(1,0,0,1,685,599.5188557465674) translate(47.592592592592595 29.84722222222222)"/><path d="M20 768c0-4.42 3.58-8 8-8h784c4.42 0 8 3.58 8 8v144c0 4.42-3.58 8-8 8H28c-4.42 0-8-3.58-8-8z" stroke="#1071e5" fill="#1071e5" fill-opacity=".2"/><use xlink:href="#g" transform="matrix(1,0,0,1,36,776) translate(301.7530864197531 14.222222222222223)"/><use xlink:href="#h" transform="matrix(1,0,0,1,36,776) translate(370.6913580246914 14.222222222222223)"/><path d="M40 822.52c0-4.42 3.58-8 8-8h104c4.42 0 8 3.58 8 8v44c0 4.42-3.58 8-8 8H48c-4.42 0-8-3.58-8-8z" stroke="#000" stroke-opacity="0" stroke-width="2" fill="#1071e5"/><use xlink:href="#i" transform="matrix(1,0,0,1,45,819.5188557465674) translate(39.71604938271605 29.84722222222222)"/><path d="M200 822.52c0-4.42 3.58-8 8-8h104c4.42 0 8 3.58 8 8v44c0 4.42-3.58 8-8 8H208c-4.42 0-8-3.58-8-8z" stroke="#000" stroke-opacity="0" stroke-width="2" fill="#1071e5"/><use xlink:href="#j" transform="matrix(1,0,0,1,205,819.5188557465674) translate(36.75308641975309 29.84722222222222)"/><path d="M360 822.52c0-4.42 3.58-8 8-8h104c4.42 0 8 3.58 8 8v44c0 4.42-3.58 8-8 8H368c-4.42 0-8-3.58-8-8z" stroke="#000" stroke-opacity="0" stroke-width="2" fill="#1071e5"/><use xlink:href="#k" transform="matrix(1,0,0,1,365,819.5188557465674) translate(33.839506172839506 29.84722222222222)"/><path d="M520 822.52c0-4.42 3.58-8 8-8h104c4.42 0 8 3.58 8 8v44c0 4.42-3.58 8-8 8H528c-4.42 0-8-3.58-8-8z" stroke="#000" stroke-opacity="0" stroke-width="2" fill="#1071e5"/><use xlink:href="#l" transform="matrix(1,0,0,1,525,819.5188557465674) translate(28.432098765432094 29.84722222222222)"/><path d="M680 822.52c0-4.42 3.58-8 8-8h104c4.42 0 8 3.58 8 8v44c0 4.42-3.58 8-8 8H688c-4.42 0-8-3.58-8-8z" stroke="#1071e5" stroke-width="2" fill="#1071e5" fill-opacity=".5"/><use xlink:href="#f" transform="matrix(1,0,0,1,685,819.5188557465674) translate(47.592592592592595 29.84722222222222)"/><path d="M20 988c0-4.42 3.58-8 8-8h784c4.42 0 8 3.58 8 8v144c0 4.42-3.58 8-8 8H28c-4.42 0-8-3.58-8-8z" stroke="#1071e5" fill="#1071e5" fill-opacity=".2"/><use xlink:href="#m" transform="matrix(1,0,0,1,36,996) translate(272.3703703703704 14.222222222222223)"/><use xlink:href="#n" transform="matrix(1,0,0,1,36,996) translate(353.1604938271605 14.222222222222223)"/><path d="M40 1042.52c0-4.42 3.58-8 8-8h104c4.42 0 8 3.58 8 8v44c0 4.42-3.58 8-8 8H48c-4.42 0-8-3.58-8-8z" stroke="#1071e5" stroke-width="2" fill="#1071e5"/><use xlink:href="#o" transform="matrix(1,0,0,1,45,1039.5188557465674) translate(34.30864197530864 29.84722222222222)"/><path d="M200 1042.52c0-4.42 3.58-8 8-8h104c4.42 0 8 3.58 8 8v44c0 4.42-3.58 8-8 8H208c-4.42 0-8-3.58-8-8z" stroke="#1071e5" stroke-width="2" fill="#1071e5"/><use xlink:href="#j" transform="matrix(1,0,0,1,205,1039.5188557465674) translate(36.75308641975309 29.84722222222222)"/><path d="M360 1042.52c0-4.42 3.58-8 8-8h104c4.42 0 8 3.58 8 8v44c0 4.42-3.58 8-8 8H368c-4.42 0-8-3.58-8-8z" stroke="#1071e5" stroke-width="2" fill="#1071e5"/><use xlink:href="#k" transform="matrix(1,0,0,1,365,1039.5188557465674) translate(33.839506172839506 29.84722222222222)"/><path d="M520 1042.52c0-4.42 3.58-8 8-8h104c4.42 0 8 3.58 8 8v44c0 4.42-3.58 8-8 8H528c-4.42 0-8-3.58-8-8z" stroke="#1071e5" stroke-width="2" fill="#1071e5"/><use xlink:href="#p" transform="matrix(1,0,0,1,525,1039.5188557465674) translate(9.246913580246918 29.84722222222222)"/><path d="M680 1042.52c0-4.42 3.58-8 8-8h104c4.42 0 8 3.58 8 8v44c0 4.42-3.58 8-8 8H688c-4.42 0-8-3.58-8-8z" stroke="#1071e5" stroke-width="2" fill="#1071e5" fill-opacity=".5"/><use xlink:href="#f" transform="matrix(1,0,0,1,685,1039.5188557465674) translate(47.592592592592595 29.84722222222222)"/><path d="M100 1033.02V890.9" stroke="#000" fill="none"/><path d="M100.5 1033.52h-1v-.5h1z"/><path d="M100 876.14l4.64 14.26h-9.28z" stroke="#000"/><path d="M260 1033.02V890.9" stroke="#000" fill="none"/><path d="M260.5 1033.52h-1v-.5h1z"/><path d="M260 876.14l4.64 14.26h-9.28z" stroke="#000"/><path d="M580 1033.02V890.9" stroke="#000" fill="none"/><path d="M580.5 1033.52h-1v-.5h1z"/><path d="M580 876.14l4.64 14.26h-9.28z" stroke="#000"/><path d="M738.7 1033.02V891.9" stroke="#000" fill="none"/><path d="M739.2 1033.52h-1v-.5h1z"/><path d="M738.7 877.14l4.64 14.26h-9.27z" stroke="#000"/><path d="M420.5 979h-1v-17h1zm0-38.35h-1V890.9h1zM420.5 979.5h-1v-.5h1zM424.64 890.4h-9.28l4.64-14.26z"/><path d="M425.32 890.9h-10.64l5.32-16.38zm-9.27-1h7.9L420 877.75z"/><use xlink:href="#q" transform="matrix(1,0,0,1,376.12345679012344,940.6521464646465) translate(0.005000000000002558 14.222222222222223)"/><use xlink:href="#r" transform="matrix(1,0,0,1,376.12345679012344,940.6521464646465) translate(59.116111111111124 14.222222222222223)"/><path d="M100 814.02V670.9" stroke="#000" fill="none"/><path d="M100.5 814.52h-1v-.5h1z"/><path d="M100 656.14l4.64 14.26h-9.28z" stroke="#000"/><path d="M260 814.02V670.9" stroke="#000" fill="none"/><path d="M260.5 814.52h-1v-.5h1z"/><path d="M260 656.14l4.64 14.26h-9.28z" stroke="#000"/><path d="M420.5 759h-1v-17.07h1zm0-38.4h-1v-49.7h1zM420.5 759.5h-1v-.5h1zM424.64 670.4h-9.28l4.64-14.26z"/><path d="M425.32 670.9h-10.64l5.32-16.38zm-9.27-1h7.9L420 657.75z"/><use xlink:href="#s" transform="matrix(1,0,0,1,340.14814814814815,720.5953282828284) translate(0.0049999999999954525 14.222222222222223)"/><use xlink:href="#t" transform="matrix(1,0,0,1,340.14814814814815,720.5953282828284) translate(53.28895061728395 14.222222222222223)"/><use xlink:href="#u" transform="matrix(1,0,0,1,340.14814814814815,720.5953282828284) translate(94.62228395061729 14.222222222222223)"/><path d="M580 814.02V670.9" stroke="#000" fill="none"/><path d="M580.5 814.52h-1v-.5h1z"/><path d="M580 656.14l4.64 14.26h-9.28z" stroke="#000"/><path d="M740 813.02V671.9" stroke="#000" fill="none"/><path d="M740.5 813.52h-1v-.5h1z"/><path d="M740 657.14l4.64 14.26h-9.28z" stroke="#000"/><path d="M20 188c0-4.42 3.58-8 8-8h784c4.42 0 8 3.58 8 8v144c0 4.42-3.58 8-8 8H28c-4.42 0-8-3.58-8-8z" stroke="#2db539" fill="#2db539" fill-opacity=".2"/><use xlink:href="#v" transform="matrix(1,0,0,1,36,196) translate(333.77777777777777 14.222222222222223)"/><path d="M40 232.22c0-4.4 3.58-8 8-8h224c4.42 0 8 3.6 8 8v55.56c0 4.4-3.58 8-8 8H48c-4.42 0-8-3.6-8-8z" stroke="#000" stroke-opacity="0" stroke-width="2" fill="#2db539"/><use xlink:href="#w" transform="matrix(1,0,0,1,45,229.2246926391206) translate(79.04938271604938 21.97222222222222)"/><use xlink:href="#x" transform="matrix(1,0,0,1,45,229.2246926391206) translate(32.679012345679 43.30555555555556)"/><use xlink:href="#y" transform="matrix(1,0,0,1,45,229.2246926391206) translate(60.28395061728394 43.30555555555556)"/><use xlink:href="#z" transform="matrix(1,0,0,1,45,229.2246926391206) translate(110.45679012345678 43.30555555555556)"/><use xlink:href="#A" transform="matrix(1,0,0,1,45,229.2246926391206) translate(182.50617283950618 43.30555555555556)"/><path d="M600 232.22c0-4.4 3.58-8 8-8h184c4.42 0 8 3.6 8 8v55.56c0 4.4-3.58 8-8 8H608c-4.42 0-8-3.6-8-8z" stroke="#2db539" stroke-width="2" fill="#2db539" fill-opacity=".5"/><use xlink:href="#f" transform="matrix(1,0,0,1,605,229.22469263912063) translate(87.5925925925926 33.59722222222222)"/><path d="M320 232.22c0-4.4 3.58-8 8-8h224c4.42 0 8 3.6 8 8v55.56c0 4.4-3.58 8-8 8H328c-4.42 0-8-3.6-8-8z" stroke="#000" stroke-opacity="0" stroke-width="2" fill="#2db539"/><use xlink:href="#w" transform="matrix(1,0,0,1,325,229.2246926391206) translate(79.04938271604938 21.97222222222222)"/><use xlink:href="#x" transform="matrix(1,0,0,1,325,229.2246926391206) translate(32.679012345679 43.30555555555556)"/><use xlink:href="#y" transform="matrix(1,0,0,1,325,229.2246926391206) translate(60.28395061728394 43.30555555555556)"/><use xlink:href="#z" transform="matrix(1,0,0,1,325,229.2246926391206) translate(110.45679012345678 43.30555555555556)"/><use xlink:href="#A" transform="matrix(1,0,0,1,325,229.2246926391206) translate(182.50617283950618 43.30555555555556)"/><path d="M420.5 539h-1v-88.33h1zm0-109.67h-1v-72.45h1zM420.5 539.5h-1v-.5h1zM424.64 356.38h-9.28l4.64-14.26z"/><path d="M425.32 356.88h-10.64L420 340.5zm-9.27-1h7.9L420 343.74z"/><use xlink:href="#B" transform="matrix(1,0,0,1,365.28395061728395,429.3333333333333) translate(0.005000000000002558 14.222222222222223)"/><use xlink:href="#C" transform="matrix(1,0,0,1,365.28395061728395,429.3333333333333) translate(60.153148148148155 14.222222222222223)"/><path d="M693.28 377.78h124.44v124.44H693.28z" stroke="#fff" stroke-opacity="0" fill="#a3d977"/><path d="M815.5 380v120h-120V380h120m4.5-4.5H691v129h129v-129z" stroke="#fff" stroke-opacity="0" fill="#fff"/><path d="M756.25 401.3c-15.2 0-26.75 4.9-26.75 11.36v56.1c0 6.56 11.56 11.46 26.75 11.46 15.2 0 26.75-4.9 26.75-11.37v-56.1c0-6.56-11.5-11.45-26.75-11.45zm0 3c13.96 0 23.7 4.42 23.7 8.36 0 3.95-9.74 8.37-23.7 8.37-13.96 0-23.7-4.34-23.7-8.3 0-3.93 9.74-8.43 23.7-8.43zm0 72.92c-13.96 0-23.7-4.42-23.7-8.37v-11.83c4.4 3.63 13.1 6 23.7 6 10.65 0 19.3-2.37 23.7-6v11.83c0 3.95-9.74 8.37-23.7 8.37zm0-17.28c-13.96 0-23.7-4.34-23.7-8.3v-13.88c4.4 3.55 13.1 5.92 23.7 5.92 10.65 0 19.3-2.37 23.7-5.92v13.9c0 3.94-9.74 8.28-23.7 8.28zm0-19.34c-13.96 0-23.7-4.34-23.7-8.3v-14.27c4.4 3.63 13.1 6 23.7 6 10.65 0 19.3-2.37 23.7-6v14.2c0 3.95-9.74 8.37-23.7 8.37z" stroke="#fff" stroke-opacity="0" fill="#fff"/><path d="M542.54 341v66.92c0 6.63 5.38 12 12 12h124.6" stroke="#000" fill="none"/><path d="M543.04 341h-1v-.5h1z"/><path d="M693.9 419.92l-14.27 4.64v-9.27z" stroke="#000"/><use xlink:href="#D" transform="matrix(1,0,0,1,550.6646078749382,394.58901515151507) translate(0.005000000000002558 14.222222222222223)"/><use xlink:href="#E" transform="matrix(1,0,0,1,550.6646078749382,394.58901515151507) translate(56.25191358024692 14.222222222222223)"/><path d="M540.9 539v-67.96c0-6.62 5.4-12 12-12h126.23" stroke="#000" fill="none"/><path d="M541.4 539.5h-1v-.5h1z"/><path d="M693.9 459.04l-14.27 4.64v-9.27z" stroke="#000"/><use xlink:href="#D" transform="matrix(1,0,0,1,548.9147727272726,468.72535054714103) translate(0.005000000000002558 14.222222222222223)"/><use xlink:href="#F" transform="matrix(1,0,0,1,548.9147727272726,468.72535054714103) translate(56.25191358024692 14.222222222222223)"/><path d="M20 375.5h125.98v125.98H20z" stroke="#fff" stroke-opacity=".2" fill="#a3d977"/><use xlink:href="#G" transform="matrix(1,0,0,1,25,380.5) translate(25.53086419753086 61.34722222222222)"/><path d="M146.98 438.5h102c6.63 0 12 5.36 12 12v72.62" stroke="#000" fill="none"/><path d="M147 439h-.52v-1h.52z"/><path d="M260.98 537.88l-4.63-14.26h9.27z" stroke="#000"/><path d="M146.98 438.5h101.57c6.62 0 12-5.38 12-12v-69.62" stroke="#000" fill="none"/><path d="M147 439h-.52v-1h.52z"/><path d="M260.55 342.12l4.63 14.26h-9.27z" stroke="#000"/><use xlink:href="#H" transform="matrix(1,0,0,1,159.80156530316575,442.492125984252) translate(5.511172839506166 14.222222222222223)"/><use xlink:href="#I" transform="matrix(1,0,0,1,159.80156530316575,442.492125984252) translate(0.005000000000002558 35.55555555555556)"/><path d="M300 28c0-4.42 3.58-8 8-8h224c4.42 0 8 3.58 8 8v84.8c0 4.42-3.58 8-8 8H308c-4.42 0-8-3.58-8-8z" stroke="#000" stroke-opacity="0" stroke-width="2" fill="#1071e5"/><use xlink:href="#J" transform="matrix(1,0,0,1,300,20) translate(146.075 42.80625)"/><use xlink:href="#K" transform="matrix(1,0,0,1,300,20) translate(151 64.40625)"/><path d="M411.75 71.3c5.1 2.34 8.4 7.74 8.4 13.92 0 7.08-4.4 13.14-10.5 14.7l-2 .48h-72.3c-8.4 0-15.2-7.62-15.2-16.8s6.8-16.8 15.2-16.8c.7 0 1.1 0 1.8.18 2.5-4.44 6.8-6.96 11.6-6.96 1.3 0 2.5.18 3.8.6v-.6c0-10.92 7.9-19.62 17.8-19.62 6.8 0 13.1 4.56 16 11.4 2.5-1.62 5.4-2.52 8.4-2.52 9.5 0 17.2 8.52 17.2 18.96.1.96 0 1.92-.2 3.06z" stroke="#000" stroke-opacity="0" fill="#fff" fill-opacity=".2"/><path d="M420 179v-41.82" stroke="#000" fill="none"/><path d="M420.5 179.5h-1v-.5h1z"/><path d="M420 122.42l4.64 14.26h-9.28z" stroke="#000"/><path d="M860 188c0-4.42 3.58-8 8-8h144c4.42 0 8 3.58 8 8v944c0 4.42-3.58 8-8 8H868c-4.42 0-8-3.58-8-8z" stroke="#fcc438" fill="#fcc438" fill-opacity=".2"/><g><use xlink:href="#L" transform="matrix(1,0,0,1,875.75,195.75) translate(34.10493827160494 14.222222222222223)"/></g><path d="M880 232.22c0-4.4 3.58-8 8-8h104c4.42 0 8 3.6 8 8v44c0 4.42-3.58 8-8 8H888c-4.42 0-8-3.58-8-8z" stroke="#fcc438" fill="#fcc438"/><g><use xlink:href="#M" transform="matrix(1,0,0,1,885,229.2246926391206) translate(29.839506172839503 29.84722222222222)"/></g><path d="M880 328c0-4.42 3.58-8 8-8h104c4.42 0 8 3.58 8 8v44c0 4.42-3.58 8-8 8H888c-4.42 0-8-3.58-8-8z" stroke="#fcc438" fill="#fcc438"/><g><use xlink:href="#N" transform="matrix(1,0,0,1,885,325) translate(10.086419753086417 29.84722222222222)"/></g><path d="M880 428c0-4.42 3.58-8 8-8h104c4.42 0 8 3.58 8 8v44c0 4.42-3.58 8-8 8H888c-4.42 0-8-3.58-8-8z" stroke="#fcc438" fill="#fcc438"/><g><use xlink:href="#O" transform="matrix(1,0,0,1,885,425) translate(0.23456790123456273 29.84722222222222)"/></g><path d="M880 528c0-4.42 3.58-8 8-8h104c4.42 0 8 3.58 8 8v44c0 4.42-3.58 8-8 8H888c-4.42 0-8-3.58-8-8z" stroke="#fcc438" fill="#fcc438"/><g><use xlink:href="#P" transform="matrix(1,0,0,1,885,525) translate(15.02469135802469 29.84722222222222)"/></g><path d="M880 628c0-4.42 3.58-8 8-8h104c4.42 0 8 3.58 8 8v44c0 4.42-3.58 8-8 8H888c-4.42 0-8-3.58-8-8z" stroke="#fcc438" fill="#fcc438" fill-opacity=".5"/><g><use xlink:href="#Q" transform="matrix(1,0,0,1,885,625) translate(47.592592592592595 29.84722222222222)"/></g><defs><path fill="#333" d="M240-174c0 40-23 61-54 70L253 0h-59l-57-94H76V0H24v-248c93 4 217-23 216 74zM76-134c48-2 112 12 112-38 0-48-66-32-112-35v73" id="R"/><path fill="#333" d="M24 0v-248h195v40H76v63h132v40H76v65h150V0H24" id="S"/><path fill="#333" d="M169-182c-1-43-94-46-97-3 18 66 151 10 154 114 3 95-165 93-204 36-6-8-10-19-12-30l50-8c3 46 112 56 116 5-17-69-150-10-154-114-4-87 153-88 188-35 5 8 8 18 10 28" id="T"/><path fill="#333" d="M24-248c93 1 206-16 204 79-1 75-69 88-152 82V0H24v-248zm52 121c47 0 100 7 100-41 0-47-54-39-100-39v80" id="U"/><path fill="#333" d="M140-251c80 0 125 45 125 126S219 4 139 4C58 4 15-44 15-125s44-126 125-126zm-1 214c52 0 73-35 73-88 0-50-21-86-72-86-52 0-73 35-73 86s22 88 72 88" id="V"/><path fill="#333" d="M175 0L67-191c6 58 2 128 3 191H24v-248h59L193-55c-6-58-2-129-3-193h46V0h-61" id="W"/><path fill="#333" d="M24-248c120-7 223 5 221 122C244-46 201 0 124 0H24v-248zM76-40c74 7 117-18 117-86 0-67-45-88-117-82v168" id="X"/><g id="a"><use transform="matrix(0.04938271604938272,0,0,0.04938271604938272,0,0)" xlink:href="#R"/><use transform="matrix(0.04938271604938272,0,0,0.04938271604938272,12.790123456790125,0)" xlink:href="#S"/><use transform="matrix(0.04938271604938272,0,0,0.04938271604938272,24.641975308641978,0)" xlink:href="#T"/><use transform="matrix(0.04938271604938272,0,0,0.04938271604938272,36.49382716049383,0)" xlink:href="#U"/><use transform="matrix(0.04938271604938272,0,0,0.04938271604938272,48.345679012345684,0)" xlink:href="#V"/><use transform="matrix(0.04938271604938272,0,0,0.04938271604938272,62.17283950617284,0)" xlink:href="#W"/><use transform="matrix(0.04938271604938272,0,0,0.04938271604938272,74.96296296296298,0)" xlink:href="#X"/><use transform="matrix(0.04938271604938272,0,0,0.04938271604938272,87.7530864197531,0)" xlink:href="#S"/><use transform="matrix(0.04938271604938272,0,0,0.04938271604938272,99.60493827160495,0)" xlink:href="#R"/><use transform="matrix(0.04938271604938272,0,0,0.04938271604938272,112.39506172839508,0)" xlink:href="#T"/></g><path fill="#fff" d="M175 0L67-191c6 58 2 128 3 191H24v-248h59L193-55c-6-58-2-129-3-193h46V0h-61" id="Y"/><path fill="#fff" d="M169-182c-1-43-94-46-97-3 18 66 151 10 154 114 3 95-165 93-204 36-6-8-10-19-12-30l50-8c3 46 112 56 116 5-17-69-150-10-154-114-4-87 153-88 188-35 5 8 8 18 10 28" id="Z"/><g id="b"><use transform="matrix(0.04938271604938272,0,0,0.04938271604938272,0,0)" xlink:href="#Y"/><use transform="matrix(0.04938271604938272,0,0,0.04938271604938272,12.790123456790125,0)" xlink:href="#Z"/><use transform="matrix(0.04938271604938272,0,0,0.04938271604938272,24.641975308641978,0)" xlink:href="#Z"/></g><path fill="#fff" d="M24-248c93 1 206-16 204 79-1 75-69 88-152 82V0H24v-248zm52 121c47 0 100 7 100-41 0-47-54-39-100-39v80" id="aa"/><path fill="#fff" d="M199 0l-22-63H83L61 0H9l90-248h61L250 0h-51zm-33-102l-36-108c-10 38-24 72-36 108h72" id="ab"/><path fill="#fff" d="M230 0l2-204L168 0h-37L68-204 70 0H24v-248h70l56 185 57-185h69V0h-46" id="ac"/><g id="c"><use transform="matrix(0.04938271604938272,0,0,0.04938271604938272,0,0)" xlink:href="#aa"/><use transform="matrix(0.04938271604938272,0,0,0.04938271604938272,10.518518518518519,0)" xlink:href="#ab"/><use transform="matrix(0.04938271604938272,0,0,0.04938271604938272,23.308641975308646,0)" xlink:href="#ac"/></g><path fill="#fff" d="M238-95c0 69-44 99-111 99C63 4 22-25 22-93v-155h51v151c-1 38 19 59 55 60 90 1 49-130 58-211h52v153" id="ad"/><path fill="#fff" d="M24-248c120-7 223 5 221 122C244-46 201 0 124 0H24v-248zM76-40c74 7 117-18 117-86 0-67-45-88-117-82v168" id="ae"/><path fill="#fff" d="M140-251c80 0 125 45 125 126S219 4 139 4C58 4 15-44 15-125s44-126 125-126zm-1 214c52 0 73-35 73-88 0-50-21-86-72-86-52 0-73 35-73 86s22 88 72 88" id="af"/><g id="d"><use transform="matrix(0.04938271604938272,0,0,0.04938271604938272,0,0)" xlink:href="#Z"/><use transform="matrix(0.04938271604938272,0,0,0.04938271604938272,11.851851851851853,0)" xlink:href="#ad"/><use transform="matrix(0.04938271604938272,0,0,0.04938271604938272,24.641975308641978,0)" xlink:href="#ae"/><use transform="matrix(0.04938271604938272,0,0,0.04938271604938272,37.4320987654321,0)" xlink:href="#af"/></g><path fill="#fff" d="M136-208V0H84v-208H4v-40h212v40h-80" id="ag"/><path fill="#fff" d="M76-208v77h127v40H76V0H24v-248h183v40H76" id="ah"/><g id="e"><use transform="matrix(0.04938271604938272,0,0,0.04938271604938272,0,0)" xlink:href="#ab"/><use transform="matrix(0.04938271604938272,0,0,0.04938271604938272,12.790123456790125,0)" xlink:href="#ad"/><use transform="matrix(0.04938271604938272,0,0,0.04938271604938272,25.58024691358025,0)" xlink:href="#ag"/><use transform="matrix(0.04938271604938272,0,0,0.04938271604938272,36.04938271604939,0)" xlink:href="#af"/><use transform="matrix(0.04938271604938272,0,0,0.04938271604938272,49.876543209876544,0)" xlink:href="#ah"/><use transform="matrix(0.04938271604938272,0,0,0.04938271604938272,60.69135802469136,0)" xlink:href="#Z"/></g><path d="M24 0v-54h51V0H24" id="ai"/><g id="f"><use transform="matrix(0.04938271604938272,0,0,0.04938271604938272,0,0)" xlink:href="#ai"/><use transform="matrix(0.04938271604938272,0,0,0.04938271604938272,4.938271604938272,0)" xlink:href="#ai"/><use transform="matrix(0.04938271604938272,0,0,0.04938271604938272,9.876543209876544,0)" xlink:href="#ai"/></g><path fill="#333" d="M67-125c0 53 21 87 73 88 37 1 54-22 65-47l45 17C233-25 199 4 140 4 58 4 20-42 15-125 8-235 124-281 211-232c18 10 29 29 36 50l-46 12c-8-25-30-41-62-41-52 0-71 34-72 86" id="aj"/><path fill="#333" d="M24 0v-248h52v208h133V0H24" id="ak"/><path fill="#333" d="M24 0v-248h52V0H24" id="al"/><path fill="#333" d="M136-208V0H84v-208H4v-40h212v40h-80" id="am"/><g id="g"><use transform="matrix(0.04938271604938272,0,0,0.04938271604938272,0,0)" xlink:href="#aj"/><use transform="matrix(0.04938271604938272,0,0,0.04938271604938272,12.790123456790125,0)" xlink:href="#ak"/><use transform="matrix(0.04938271604938272,0,0,0.04938271604938272,23.60493827160494,0)" xlink:href="#al"/><use transform="matrix(0.04938271604938272,0,0,0.04938271604938272,28.543209876543212,0)" xlink:href="#S"/><use transform="matrix(0.04938271604938272,0,0,0.04938271604938272,40.39506172839506,0)" xlink:href="#W"/><use transform="matrix(0.04938271604938272,0,0,0.04938271604938272,53.18518518518519,0)" xlink:href="#am"/></g><path fill="#333" d="M182-130c37 4 62 22 62 59C244 23 116-4 24 0v-248c84 5 203-23 205 63 0 31-19 50-47 55zM76-148c40-3 101 13 101-30 0-44-60-28-101-31v61zm0 110c48-3 116 14 116-37 0-48-69-32-116-35v72" id="an"/><path fill="#333" d="M199 0l-22-63H83L61 0H9l90-248h61L250 0h-51zm-33-102l-36-108c-10 38-24 72-36 108h72" id="ao"/><g id="h"><use transform="matrix(0.04938271604938272,0,0,0.04938271604938272,0,0)" xlink:href="#ak"/><use transform="matrix(0.04938271604938272,0,0,0.04938271604938272,10.814814814814815,0)" xlink:href="#al"/><use transform="matrix(0.04938271604938272,0,0,0.04938271604938272,15.753086419753087,0)" xlink:href="#an"/><use transform="matrix(0.04938271604938272,0,0,0.04938271604938272,28.543209876543212,0)" xlink:href="#R"/><use transform="matrix(0.04938271604938272,0,0,0.04938271604938272,41.333333333333336,0)" xlink:href="#ao"/><use transform="matrix(0.04938271604938272,0,0,0.04938271604938272,54.12345679012346,0)" xlink:href="#R"/><use transform="matrix(0.04938271604938272,0,0,0.04938271604938272,66.91358024691358,0)" xlink:href="#al"/><use transform="matrix(0.04938271604938272,0,0,0.04938271604938272,71.85185185185185,0)" xlink:href="#S"/><use transform="matrix(0.04938271604938272,0,0,0.04938271604938272,83.7037037037037,0)" xlink:href="#T"/></g><path fill="#fff" d="M135-194c87-1 58 113 63 194h-50c-7-57 23-157-34-157-59 0-34 97-39 157H25l-1-190h47c2 12-1 28 3 38 12-26 28-41 61-42" id="ap"/><path fill="#fff" d="M137-138c1-29-70-34-71-4 15 46 118 7 119 86 1 83-164 76-172 9l43-7c4 19 20 25 44 25 33 8 57-30 24-41C81-84 22-81 20-136c-2-80 154-74 161-7" id="aq"/><g id="i"><use transform="matrix(0.04938271604938272,0,0,0.04938271604938272,0,0)" xlink:href="#ap"/><use transform="matrix(0.04938271604938272,0,0,0.04938271604938272,10.814814814814815,0)" xlink:href="#aq"/><use transform="matrix(0.04938271604938272,0,0,0.04938271604938272,20.69135802469136,0)" xlink:href="#aq"/></g><path fill="#fff" d="M135-194c53 0 70 44 70 98 0 56-19 98-73 100-31 1-45-17-59-34 3 33 2 69 2 105H25l-1-265h48c2 10 0 23 3 31 11-24 29-35 60-35zM114-30c33 0 39-31 40-66 0-38-9-64-40-64-56 0-55 130 0 130" id="ar"/><path fill="#fff" d="M133-34C117-15 103 5 69 4 32 3 11-16 11-54c-1-60 55-63 116-61 1-26-3-47-28-47-18 1-26 9-28 27l-52-2c7-38 36-58 82-57s74 22 75 68l1 82c-1 14 12 18 25 15v27c-30 8-71 5-69-32zm-48 3c29 0 43-24 42-57-32 0-66-3-65 30 0 17 8 27 23 27" id="as"/><path fill="#fff" d="M220-157c-53 9-28 100-34 157h-49v-107c1-27-5-49-29-50C55-147 81-57 75 0H25l-1-190h47c2 12-1 28 3 38 10-53 101-56 108 0 13-22 24-43 59-42 82 1 51 116 57 194h-49v-107c-1-25-5-48-29-50" id="at"/><g id="j"><use transform="matrix(0.04938271604938272,0,0,0.04938271604938272,0,0)" xlink:href="#ar"/><use transform="matrix(0.04938271604938272,0,0,0.04938271604938272,10.814814814814815,0)" xlink:href="#as"/><use transform="matrix(0.04938271604938272,0,0,0.04938271604938272,20.69135802469136,0)" xlink:href="#at"/></g><path fill="#fff" d="M85 4C-2 5 27-109 22-190h50c7 57-23 150 33 157 60-5 35-97 40-157h50l1 190h-47c-2-12 1-28-3-38-12 25-28 42-61 42" id="au"/><path fill="#fff" d="M88-194c31-1 46 15 58 34l-1-101h50l1 261h-48c-2-10 0-23-3-31C134-8 116 4 84 4 32 4 16-41 15-95c0-56 19-97 73-99zm17 164c33 0 40-30 41-66 1-37-9-64-41-64s-38 30-39 65c0 43 13 65 39 65" id="av"/><path fill="#fff" d="M110-194c64 0 96 36 96 99 0 64-35 99-97 99-61 0-95-36-95-99 0-62 34-99 96-99zm-1 164c35 0 45-28 45-65 0-40-10-65-43-65-34 0-45 26-45 65 0 36 10 65 43 65" id="aw"/><g id="k"><use transform="matrix(0.04938271604938272,0,0,0.04938271604938272,0,0)" xlink:href="#aq"/><use transform="matrix(0.04938271604938272,0,0,0.04938271604938272,9.876543209876544,0)" xlink:href="#au"/><use transform="matrix(0.04938271604938272,0,0,0.04938271604938272,20.69135802469136,0)" xlink:href="#av"/><use transform="matrix(0.04938271604938272,0,0,0.04938271604938272,31.506172839506174,0)" xlink:href="#aw"/></g><path fill="#fff" d="M115-3C79 11 28 4 28-45v-112H4v-33h27l15-45h31v45h36v33H77v99c-1 23 16 31 38 25v30" id="ax"/><path fill="#fff" d="M121-226c-27-7-43 5-38 36h38v33H83V0H34v-157H6v-33h28c-9-59 32-81 87-68v32" id="ay"/><g id="l"><use transform="matrix(0.04938271604938272,0,0,0.04938271604938272,0,0)" xlink:href="#as"/><use transform="matrix(0.04938271604938272,0,0,0.04938271604938272,9.876543209876544,0)" xlink:href="#au"/><use transform="matrix(0.04938271604938272,0,0,0.04938271604938272,20.69135802469136,0)" xlink:href="#ax"/><use transform="matrix(0.04938271604938272,0,0,0.04938271604938272,26.567901234567902,0)" xlink:href="#aw"/><use transform="matrix(0.04938271604938272,0,0,0.04938271604938272,37.38271604938272,0)" xlink:href="#ay"/><use transform="matrix(0.04938271604938272,0,0,0.04938271604938272,43.25925925925927,0)" xlink:href="#aq"/></g><g id="m"><use transform="matrix(0.04938271604938272,0,0,0.04938271604938272,0,0)" xlink:href="#aj"/><use transform="matrix(0.04938271604938272,0,0,0.04938271604938272,12.790123456790125,0)" xlink:href="#ak"/><use transform="matrix(0.04938271604938272,0,0,0.04938271604938272,23.60493827160494,0)" xlink:href="#al"/><use transform="matrix(0.04938271604938272,0,0,0.04938271604938272,28.543209876543212,0)" xlink:href="#S"/><use transform="matrix(0.04938271604938272,0,0,0.04938271604938272,40.39506172839506,0)" xlink:href="#W"/><use transform="matrix(0.04938271604938272,0,0,0.04938271604938272,53.18518518518519,0)" xlink:href="#am"/><use transform="matrix(0.04938271604938272,0,0,0.04938271604938272,64,0)" xlink:href="#T"/></g><path fill="#333" d="M67-93c0 74 22 123 53 168H70C40 30 18-18 18-93s22-123 52-168h50c-32 44-53 94-53 168" id="az"/><path fill="#333" d="M102-93c0 74-22 123-52 168H0C30 29 54-18 53-93c0-74-22-123-53-168h50c30 45 52 94 52 168" id="aA"/><g id="n"><use transform="matrix(0.04938271604938272,0,0,0.04938271604938272,0,0)" xlink:href="#az"/><use transform="matrix(0.04938271604938272,0,0,0.04938271604938272,5.8765432098765435,0)" xlink:href="#ao"/><use transform="matrix(0.04938271604938272,0,0,0.04938271604938272,18.666666666666668,0)" xlink:href="#U"/><use transform="matrix(0.04938271604938272,0,0,0.04938271604938272,30.518518518518523,0)" xlink:href="#U"/><use transform="matrix(0.04938271604938272,0,0,0.04938271604938272,42.370370370370374,0)" xlink:href="#ak"/><use transform="matrix(0.04938271604938272,0,0,0.04938271604938272,53.18518518518519,0)" xlink:href="#al"/><use transform="matrix(0.04938271604938272,0,0,0.04938271604938272,58.12345679012346,0)" xlink:href="#aj"/><use transform="matrix(0.04938271604938272,0,0,0.04938271604938272,70.91358024691358,0)" xlink:href="#ao"/><use transform="matrix(0.04938271604938272,0,0,0.04938271604938272,82.37037037037038,0)" xlink:href="#am"/><use transform="matrix(0.04938271604938272,0,0,0.04938271604938272,93.18518518518519,0)" xlink:href="#al"/><use transform="matrix(0.04938271604938272,0,0,0.04938271604938272,98.12345679012347,0)" xlink:href="#V"/><use transform="matrix(0.04938271604938272,0,0,0.04938271604938272,111.95061728395062,0)" xlink:href="#W"/><use transform="matrix(0.04938271604938272,0,0,0.04938271604938272,124.74074074074075,0)" xlink:href="#T"/><use transform="matrix(0.04938271604938272,0,0,0.04938271604938272,136.5925925925926,0)" xlink:href="#aA"/></g><path fill="#fff" d="M195-6C206 82 75 100 31 46c-4-6-6-13-8-21l49-6c3 16 16 24 34 25 40 0 42-37 40-79-11 22-30 35-61 35-53 0-70-43-70-97 0-56 18-96 73-97 30 0 46 14 59 34l2-30h47zm-90-29c32 0 41-27 41-63 0-35-9-62-40-62-32 0-39 29-40 63 0 36 9 62 39 62" id="aB"/><path fill="#fff" d="M25 0v-261h50V0H25" id="aC"/><path fill="#fff" d="M25-224v-37h50v37H25zM25 0v-190h50V0H25" id="aD"/><path fill="#fff" d="M135-194c52 0 70 43 70 98 0 56-19 99-73 100-30 1-46-15-58-35L72 0H24l1-261h50v104c11-23 29-37 60-37zM114-30c31 0 40-27 40-66 0-37-7-63-39-63s-41 28-41 65c0 36 8 64 40 64" id="aE"/><path fill="#fff" d="M190-63c-7 42-38 67-86 67-59 0-84-38-90-98-12-110 154-137 174-36l-49 2c-2-19-15-32-35-32-30 0-35 28-38 64-6 74 65 87 74 30" id="aF"/><g id="o"><use transform="matrix(0.04938271604938272,0,0,0.04938271604938272,0,0)" xlink:href="#aB"/><use transform="matrix(0.04938271604938272,0,0,0.04938271604938272,10.814814814814815,0)" xlink:href="#aC"/><use transform="matrix(0.04938271604938272,0,0,0.04938271604938272,15.753086419753087,0)" xlink:href="#aD"/><use transform="matrix(0.04938271604938272,0,0,0.04938271604938272,20.69135802469136,0)" xlink:href="#aE"/><use transform="matrix(0.04938271604938272,0,0,0.04938271604938272,31.506172839506174,0)" xlink:href="#aF"/></g><g id="p"><use transform="matrix(0.04938271604938272,0,0,0.04938271604938272,0,0)" xlink:href="#as"/><use transform="matrix(0.04938271604938272,0,0,0.04938271604938272,9.876543209876544,0)" xlink:href="#au"/><use transform="matrix(0.04938271604938272,0,0,0.04938271604938272,20.69135802469136,0)" xlink:href="#ax"/><use transform="matrix(0.04938271604938272,0,0,0.04938271604938272,26.567901234567902,0)" xlink:href="#aw"/><use transform="matrix(0.04938271604938272,0,0,0.04938271604938272,37.38271604938272,0)" xlink:href="#at"/><use transform="matrix(0.04938271604938272,0,0,0.04938271604938272,53.18518518518519,0)" xlink:href="#aw"/><use transform="matrix(0.04938271604938272,0,0,0.04938271604938272,64,0)" xlink:href="#au"/><use transform="matrix(0.04938271604938272,0,0,0.04938271604938272,74.81481481481481,0)" xlink:href="#ap"/><use transform="matrix(0.04938271604938272,0,0,0.04938271604938272,85.62962962962962,0)" xlink:href="#ax"/></g><path fill="#333" d="M30 0v-248h33v221h125V0H30" id="aG"/><path fill="#333" d="M24-231v-30h32v30H24zM24 0v-190h32V0H24" id="aH"/><path fill="#333" d="M115-194c53 0 69 39 70 98 0 66-23 100-70 100C84 3 66-7 56-30L54 0H23l1-261h32v101c10-23 28-34 59-34zm-8 174c40 0 45-34 45-75 0-40-5-75-45-74-42 0-51 32-51 76 0 43 10 73 51 73" id="aI"/><path fill="#333" d="M114-163C36-179 61-72 57 0H25l-1-190h30c1 12-1 29 2 39 6-27 23-49 58-41v29" id="aJ"/><path fill="#333" d="M141-36C126-15 110 5 73 4 37 3 15-17 15-53c-1-64 63-63 125-63 3-35-9-54-41-54-24 1-41 7-42 31l-33-3c5-37 33-52 76-52 45 0 72 20 72 64v82c-1 20 7 32 28 27v20c-31 9-61-2-59-35zM48-53c0 20 12 33 32 33 41-3 63-29 60-74-43 2-92-5-92 41" id="aK"/><path fill="#333" d="M179-190L93 31C79 59 56 82 12 73V49c39 6 53-20 64-50L1-190h34L92-34l54-156h33" id="aL"/><g id="q"><use transform="matrix(0.04938271604938272,0,0,0.04938271604938272,0,0)" xlink:href="#aG"/><use transform="matrix(0.04938271604938272,0,0,0.04938271604938272,9.876543209876544,0)" xlink:href="#aH"/><use transform="matrix(0.04938271604938272,0,0,0.04938271604938272,13.777777777777779,0)" xlink:href="#aI"/><use transform="matrix(0.04938271604938272,0,0,0.04938271604938272,23.654320987654323,0)" xlink:href="#aJ"/><use transform="matrix(0.04938271604938272,0,0,0.04938271604938272,29.530864197530867,0)" xlink:href="#aK"/><use transform="matrix(0.04938271604938272,0,0,0.04938271604938272,39.40740740740741,0)" xlink:href="#aJ"/><use transform="matrix(0.04938271604938272,0,0,0.04938271604938272,45.283950617283956,0)" xlink:href="#aL"/></g><path fill="#333" d="M205 0l-28-72H64L36 0H1l101-248h38L239 0h-34zm-38-99l-47-123c-12 45-31 82-46 123h93" id="aM"/><path fill="#333" d="M30-248c87 1 191-15 191 75 0 78-77 80-158 76V0H30v-248zm33 125c57 0 124 11 124-50 0-59-68-47-124-48v98" id="aN"/><path fill="#333" d="M33 0v-248h34V0H33" id="aO"/><g id="r"><use transform="matrix(0.04938271604938272,0,0,0.04938271604938272,0,0)" xlink:href="#aM"/><use transform="matrix(0.04938271604938272,0,0,0.04938271604938272,11.851851851851853,0)" xlink:href="#aN"/><use transform="matrix(0.04938271604938272,0,0,0.04938271604938272,23.703703703703706,0)" xlink:href="#aO"/></g><path fill="#333" d="M185-189c-5-48-123-54-124 2 14 75 158 14 163 119 3 78-121 87-175 55-17-10-28-26-33-46l33-7c5 56 141 63 141-1 0-78-155-14-162-118-5-82 145-84 179-34 5 7 8 16 11 25" id="aP"/><path fill="#333" d="M30-248c118-7 216 8 213 122C240-48 200 0 122 0H30v-248zM63-27c89 8 146-16 146-99s-60-101-146-95v194" id="aQ"/><g id="s"><use transform="matrix(0.04938271604938272,0,0,0.04938271604938272,0,0)" xlink:href="#aP"/><use transform="matrix(0.04938271604938272,0,0,0.04938271604938272,11.851851851851853,0)" xlink:href="#aP"/><use transform="matrix(0.04938271604938272,0,0,0.04938271604938272,23.703703703703706,0)" xlink:href="#aP"/><use transform="matrix(0.04938271604938272,0,0,0.04938271604938272,35.55555555555556,0)" xlink:href="#aQ"/></g><path fill="#333" d="M266 0h-40l-56-210L115 0H75L2-248h35L96-30l15-64 43-154h32l59 218 59-218h35" id="aR"/><path fill="#333" d="M100-194c63 0 86 42 84 106H49c0 40 14 67 53 68 26 1 43-12 49-29l28 8c-11 28-37 45-77 45C44 4 14-33 15-96c1-61 26-98 85-98zm52 81c6-60-76-77-97-28-3 7-6 17-6 28h103" id="aS"/><g id="t"><use transform="matrix(0.04938271604938272,0,0,0.04938271604938272,0,0)" xlink:href="#aR"/><use transform="matrix(0.04938271604938272,0,0,0.04938271604938272,16.74074074074074,0)" xlink:href="#aH"/><use transform="matrix(0.04938271604938272,0,0,0.04938271604938272,20.641975308641975,0)" xlink:href="#aJ"/><use transform="matrix(0.04938271604938272,0,0,0.04938271604938272,26.51851851851852,0)" xlink:href="#aS"/></g><path fill="#333" d="M100-194c62-1 85 37 85 99 1 63-27 99-86 99S16-35 15-95c0-66 28-99 85-99zM99-20c44 1 53-31 53-75 0-43-8-75-51-75s-53 32-53 75 10 74 51 75" id="aT"/><path fill="#333" d="M59-47c-2 24 18 29 38 22v24C64 9 27 4 27-40v-127H5v-23h24l9-43h21v43h35v23H59v120" id="aU"/><path fill="#333" d="M96-169c-40 0-48 33-48 73s9 75 48 75c24 0 41-14 43-38l32 2c-6 37-31 61-74 61-59 0-76-41-82-99-10-93 101-131 147-64 4 7 5 14 7 22l-32 3c-4-21-16-35-41-35" id="aV"/><path fill="#333" d="M24 0v-261h32V0H24" id="aW"/><g id="u"><use transform="matrix(0.04938271604938272,0,0,0.04938271604938272,0,0)" xlink:href="#aN"/><use transform="matrix(0.04938271604938272,0,0,0.04938271604938272,11.851851851851853,0)" xlink:href="#aJ"/><use transform="matrix(0.04938271604938272,0,0,0.04938271604938272,17.728395061728396,0)" xlink:href="#aT"/><use transform="matrix(0.04938271604938272,0,0,0.04938271604938272,27.60493827160494,0)" xlink:href="#aU"/><use transform="matrix(0.04938271604938272,0,0,0.04938271604938272,32.543209876543216,0)" xlink:href="#aT"/><use transform="matrix(0.04938271604938272,0,0,0.04938271604938272,42.41975308641976,0)" xlink:href="#aV"/><use transform="matrix(0.04938271604938272,0,0,0.04938271604938272,51.308641975308646,0)" xlink:href="#aT"/><use transform="matrix(0.04938271604938272,0,0,0.04938271604938272,61.18518518518519,0)" xlink:href="#aW"/></g><path fill="#333" d="M195 0l-88-114-31 24V0H24v-248h52v113l112-113h60L142-143 257 0h-62" id="aX"/><g id="v"><use transform="matrix(0.04938271604938272,0,0,0.04938271604938272,0,0)" xlink:href="#an"/><use transform="matrix(0.04938271604938272,0,0,0.04938271604938272,12.790123456790125,0)" xlink:href="#ao"/><use transform="matrix(0.04938271604938272,0,0,0.04938271604938272,25.58024691358025,0)" xlink:href="#aj"/><use transform="matrix(0.04938271604938272,0,0,0.04938271604938272,38.370370370370374,0)" xlink:href="#aX"/><use transform="matrix(0.04938271604938272,0,0,0.04938271604938272,51.1604938271605,0)" xlink:href="#S"/><use transform="matrix(0.04938271604938272,0,0,0.04938271604938272,63.01234567901235,0)" xlink:href="#W"/><use transform="matrix(0.04938271604938272,0,0,0.04938271604938272,75.80246913580248,0)" xlink:href="#X"/><use transform="matrix(0.04938271604938272,0,0,0.04938271604938272,88.59259259259261,0)" xlink:href="#T"/></g><path fill="#fff" d="M24 0v-248h52V0H24" id="aY"/><g id="w"><use transform="matrix(0.04938271604938272,0,0,0.04938271604938272,0,0)" xlink:href="#ae"/><use transform="matrix(0.04938271604938272,0,0,0.04938271604938272,12.790123456790125,0)" xlink:href="#af"/><use transform="matrix(0.04938271604938272,0,0,0.04938271604938272,26.617283950617285,0)" xlink:href="#ac"/><use transform="matrix(0.04938271604938272,0,0,0.04938271604938272,41.38271604938272,0)" xlink:href="#ab"/><use transform="matrix(0.04938271604938272,0,0,0.04938271604938272,54.17283950617284,0)" xlink:href="#aY"/><use transform="matrix(0.04938271604938272,0,0,0.04938271604938272,59.111111111111114,0)" xlink:href="#Y"/><path fill="#fff" d="M-.9.95h73.7v1.87H-.9z"/></g><path fill="#fff" d="M76-54c-1 42 2 86-19 110H24C36 42 46 24 48 0H25v-54h51" id="aZ"/><g id="x"><use transform="matrix(0.04938271604938272,0,0,0.04938271604938272,0,0)" xlink:href="#aY"/><use transform="matrix(0.04938271604938272,0,0,0.04938271604938272,4.938271604938272,0)" xlink:href="#ae"/><use transform="matrix(0.04938271604938272,0,0,0.04938271604938272,17.7283950617284,0)" xlink:href="#aZ"/></g><path fill="#fff" d="M114-157C55-157 80-60 75 0H25v-261h50l-1 109c12-26 28-41 61-42 86-1 58 113 63 194h-50c-7-57 23-157-34-157" id="ba"/><g id="y"><use transform="matrix(0.04938271604938272,0,0,0.04938271604938272,0,0)" xlink:href="#ab"/><use transform="matrix(0.04938271604938272,0,0,0.04938271604938272,12.790123456790125,0)" xlink:href="#au"/><use transform="matrix(0.04938271604938272,0,0,0.04938271604938272,23.60493827160494,0)" xlink:href="#ax"/><use transform="matrix(0.04938271604938272,0,0,0.04938271604938272,29.481481481481485,0)" xlink:href="#ba"/><use transform="matrix(0.04938271604938272,0,0,0.04938271604938272,40.2962962962963,0)" xlink:href="#aZ"/></g><path fill="#fff" d="M185-48c-13 30-37 53-82 52C43 2 14-33 14-96s30-98 90-98c62 0 83 45 84 108H66c0 31 8 55 39 56 18 0 30-7 34-22zm-45-69c5-46-57-63-70-21-2 6-4 13-4 21h74" id="bb"/><g id="z"><use transform="matrix(0.04938271604938272,0,0,0.04938271604938272,0,0)" xlink:href="#ab"/><use transform="matrix(0.04938271604938272,0,0,0.04938271604938272,12.790123456790125,0)" xlink:href="#aF"/><use transform="matrix(0.04938271604938272,0,0,0.04938271604938272,22.66666666666667,0)" xlink:href="#aF"/><use transform="matrix(0.04938271604938272,0,0,0.04938271604938272,32.543209876543216,0)" xlink:href="#bb"/><use transform="matrix(0.04938271604938272,0,0,0.04938271604938272,42.41975308641976,0)" xlink:href="#aq"/><use transform="matrix(0.04938271604938272,0,0,0.04938271604938272,52.2962962962963,0)" xlink:href="#aq"/><use transform="matrix(0.04938271604938272,0,0,0.04938271604938272,62.17283950617284,0)" xlink:href="#aZ"/></g><path fill="#fff" d="M24 0v-54h51V0H24" id="bc"/><g id="A"><use transform="matrix(0.04938271604938272,0,0,0.04938271604938272,0,0)" xlink:href="#bc"/><use transform="matrix(0.04938271604938272,0,0,0.04938271604938272,4.938271604938272,0)" xlink:href="#bc"/><use transform="matrix(0.04938271604938272,0,0,0.04938271604938272,9.876543209876544,0)" xlink:href="#bc"/></g><path fill="#333" d="M108 0H70L1-190h34L89-25l56-165h34" id="bd"/><g id="B"><use transform="matrix(0.04938271604938272,0,0,0.04938271604938272,0,0)" xlink:href="#aN"/><use transform="matrix(0.04938271604938272,0,0,0.04938271604938272,11.851851851851853,0)" xlink:href="#aJ"/><use transform="matrix(0.04938271604938272,0,0,0.04938271604938272,17.728395061728396,0)" xlink:href="#aH"/><use transform="matrix(0.04938271604938272,0,0,0.04938271604938272,21.62962962962963,0)" xlink:href="#bd"/><use transform="matrix(0.04938271604938272,0,0,0.04938271604938272,30.518518518518523,0)" xlink:href="#aK"/><use transform="matrix(0.04938271604938272,0,0,0.04938271604938272,40.39506172839506,0)" xlink:href="#aU"/><use transform="matrix(0.04938271604938272,0,0,0.04938271604938272,45.333333333333336,0)" xlink:href="#aS"/></g><path fill="#333" d="M160-131c35 5 61 23 61 61C221 17 115-2 30 0v-248c76 3 177-17 177 60 0 33-19 50-47 57zm-97-11c50-1 110 9 110-42 0-47-63-36-110-37v79zm0 115c55-2 124 14 124-45 0-56-70-42-124-44v89" id="be"/><path fill="#333" d="M232-93c-1 65-40 97-104 97C67 4 28-28 28-90v-158h33c8 89-33 224 67 224 102 0 64-133 71-224h33v155" id="bf"/><g id="C"><use transform="matrix(0.04938271604938272,0,0,0.04938271604938272,0,0)" xlink:href="#aQ"/><use transform="matrix(0.04938271604938272,0,0,0.04938271604938272,12.790123456790125,0)" xlink:href="#be"/><use transform="matrix(0.04938271604938272,0,0,0.04938271604938272,24.641975308641978,0)" xlink:href="#bf"/><use transform="matrix(0.04938271604938272,0,0,0.04938271604938272,37.4320987654321,0)" xlink:href="#aP"/></g><path fill="#333" d="M212-179c-10-28-35-45-73-45-59 0-87 40-87 99 0 60 29 101 89 101 43 0 62-24 78-52l27 14C228-24 195 4 139 4 59 4 22-46 18-125c-6-104 99-153 187-111 19 9 31 26 39 46" id="bg"/><path fill="#333" d="M106-169C34-169 62-67 57 0H25v-261h32l-1 103c12-21 28-36 61-36 89 0 53 116 60 194h-32v-121c2-32-8-49-39-48" id="bh"/><g id="D"><use transform="matrix(0.04938271604938272,0,0,0.04938271604938272,0,0)" xlink:href="#bg"/><use transform="matrix(0.04938271604938272,0,0,0.04938271604938272,12.790123456790125,0)" xlink:href="#aK"/><use transform="matrix(0.04938271604938272,0,0,0.04938271604938272,22.66666666666667,0)" xlink:href="#aV"/><use transform="matrix(0.04938271604938272,0,0,0.04938271604938272,31.555555555555557,0)" xlink:href="#bh"/><use transform="matrix(0.04938271604938272,0,0,0.04938271604938272,41.4320987654321,0)" xlink:href="#aS"/></g><g id="E"><use transform="matrix(0.04938271604938272,0,0,0.04938271604938272,0,0)" xlink:href="#aR"/><use transform="matrix(0.04938271604938272,0,0,0.04938271604938272,16.39506172839506,0)" xlink:href="#aJ"/><use transform="matrix(0.04938271604938272,0,0,0.04938271604938272,22.271604938271604,0)" xlink:href="#aH"/><use transform="matrix(0.04938271604938272,0,0,0.04938271604938272,26.172839506172835,0)" xlink:href="#aU"/><use transform="matrix(0.04938271604938272,0,0,0.04938271604938272,31.111111111111107,0)" xlink:href="#aS"/></g><path fill="#333" d="M233-177c-1 41-23 64-60 70L243 0h-38l-65-103H63V0H30v-248c88 3 205-21 203 71zM63-129c60-2 137 13 137-47 0-61-80-42-137-45v92" id="bi"/><path fill="#333" d="M85-194c31 0 48 13 60 33l-1-100h32l1 261h-30c-2-10 0-23-3-31C134-8 116 4 85 4 32 4 16-35 15-94c0-66 23-100 70-100zm9 24c-40 0-46 34-46 75 0 40 6 74 45 74 42 0 51-32 51-76 0-42-9-74-50-73" id="bj"/><g id="F"><use transform="matrix(0.04938271604938272,0,0,0.04938271604938272,0,0)" xlink:href="#bi"/><use transform="matrix(0.04938271604938272,0,0,0.04938271604938272,12.790123456790125,0)" xlink:href="#aS"/><use transform="matrix(0.04938271604938272,0,0,0.04938271604938272,22.66666666666667,0)" xlink:href="#aK"/><use transform="matrix(0.04938271604938272,0,0,0.04938271604938272,32.543209876543216,0)" xlink:href="#bj"/></g><path fill="#fff" d="M135-150c-39-12-60 13-60 57V0H25l-1-190h47c2 13-1 29 3 40 6-28 27-53 61-41v41" id="bk"/><g id="G"><use transform="matrix(0.04938271604938272,0,0,0.04938271604938272,0,0)" xlink:href="#ac"/><use transform="matrix(0.04938271604938272,0,0,0.04938271604938272,14.765432098765434,0)" xlink:href="#aw"/><use transform="matrix(0.04938271604938272,0,0,0.04938271604938272,25.58024691358025,0)" xlink:href="#ap"/><use transform="matrix(0.04938271604938272,0,0,0.04938271604938272,36.39506172839506,0)" xlink:href="#aD"/><use transform="matrix(0.04938271604938272,0,0,0.04938271604938272,41.333333333333336,0)" xlink:href="#ax"/><use transform="matrix(0.04938271604938272,0,0,0.04938271604938272,47.20987654320988,0)" xlink:href="#aw"/><use transform="matrix(0.04938271604938272,0,0,0.04938271604938272,58.0246913580247,0)" xlink:href="#bk"/></g><path fill="#333" d="M117-194c89-4 53 116 60 194h-32v-121c0-31-8-49-39-48C34-167 62-67 57 0H25l-1-190h30c1 10-1 24 2 32 11-22 29-35 61-36" id="bl"/><path fill="#333" d="M135-143c-3-34-86-38-87 0 15 53 115 12 119 90S17 21 10-45l28-5c4 36 97 45 98 0-10-56-113-15-118-90-4-57 82-63 122-42 12 7 21 19 24 35" id="bm"/><g id="H"><use transform="matrix(0.04938271604938272,0,0,0.04938271604938272,0,0)" xlink:href="#bg"/><use transform="matrix(0.04938271604938272,0,0,0.04938271604938272,12.790123456790125,0)" xlink:href="#aT"/><use transform="matrix(0.04938271604938272,0,0,0.04938271604938272,22.66666666666667,0)" xlink:href="#bl"/><use transform="matrix(0.04938271604938272,0,0,0.04938271604938272,32.543209876543216,0)" xlink:href="#aU"/><use transform="matrix(0.04938271604938272,0,0,0.04938271604938272,37.48148148148149,0)" xlink:href="#aJ"/><use transform="matrix(0.04938271604938272,0,0,0.04938271604938272,43.35802469135803,0)" xlink:href="#aT"/><use transform="matrix(0.04938271604938272,0,0,0.04938271604938272,53.23456790123457,0)" xlink:href="#aW"/><use transform="matrix(0.04938271604938272,0,0,0.04938271604938272,57.135802469135804,0)" xlink:href="#aW"/><use transform="matrix(0.04938271604938272,0,0,0.04938271604938272,61.037037037037045,0)" xlink:href="#bm"/></g><path fill="#333" d="M115-194c55 1 70 41 70 98S169 2 115 4C84 4 66-9 55-30l1 105H24l-1-265h31l2 30c10-21 28-34 59-34zm-8 174c40 0 45-34 45-75s-6-73-45-74c-42 0-51 32-51 76 0 43 10 73 51 73" id="bn"/><g id="I"><use transform="matrix(0.04938271604938272,0,0,0.04938271604938272,0,0)" xlink:href="#bn"/><use transform="matrix(0.04938271604938272,0,0,0.04938271604938272,9.876543209876544,0)" xlink:href="#aJ"/><use transform="matrix(0.04938271604938272,0,0,0.04938271604938272,15.753086419753087,0)" xlink:href="#aT"/><use transform="matrix(0.04938271604938272,0,0,0.04938271604938272,25.629629629629633,0)" xlink:href="#aV"/><use transform="matrix(0.04938271604938272,0,0,0.04938271604938272,34.51851851851852,0)" xlink:href="#aS"/><use transform="matrix(0.04938271604938272,0,0,0.04938271604938272,44.39506172839506,0)" xlink:href="#bm"/><use transform="matrix(0.04938271604938272,0,0,0.04938271604938272,53.28395061728394,0)" xlink:href="#bm"/><use transform="matrix(0.04938271604938272,0,0,0.04938271604938272,62.172839506172835,0)" xlink:href="#aS"/><use transform="matrix(0.04938271604938272,0,0,0.04938271604938272,72.04938271604938,0)" xlink:href="#bm"/></g><path fill="#fff" d="M240-174c0 40-23 61-54 70L253 0h-59l-57-94H76V0H24v-248c93 4 217-23 216 74zM76-134c48-2 112 12 112-38 0-48-66-32-112-35v73" id="bo"/><g id="J"><use transform="matrix(0.05,0,0,0.05,0,0)" xlink:href="#bo"/><use transform="matrix(0.05,0,0,0.05,12.950000000000001,0)" xlink:href="#bb"/><use transform="matrix(0.05,0,0,0.05,22.950000000000003,0)" xlink:href="#at"/><use transform="matrix(0.05,0,0,0.05,38.95,0)" xlink:href="#aw"/><use transform="matrix(0.05,0,0,0.05,49.900000000000006,0)" xlink:href="#ax"/><use transform="matrix(0.05,0,0,0.05,55.85,0)" xlink:href="#bb"/></g><path fill="#fff" d="M128 0H69L1-190h53L99-40l48-150h52" id="bp"/><g id="K"><use transform="matrix(0.05,0,0,0.05,0,0)" xlink:href="#Z"/><use transform="matrix(0.05,0,0,0.05,12,0)" xlink:href="#bb"/><use transform="matrix(0.05,0,0,0.05,22,0)" xlink:href="#bk"/><use transform="matrix(0.05,0,0,0.05,29,0)" xlink:href="#bp"/><use transform="matrix(0.05,0,0,0.05,39,0)" xlink:href="#bb"/><use transform="matrix(0.05,0,0,0.05,49,0)" xlink:href="#bk"/></g><g id="L"><use transform="matrix(0.04938271604938272,0,0,0.04938271604938272,0,0)" xlink:href="#am"/><use transform="matrix(0.04938271604938272,0,0,0.04938271604938272,10.469135802469136,0)" xlink:href="#V"/><use transform="matrix(0.04938271604938272,0,0,0.04938271604938272,24.296296296296298,0)" xlink:href="#V"/><use transform="matrix(0.04938271604938272,0,0,0.04938271604938272,38.123456790123456,0)" xlink:href="#ak"/><use transform="matrix(0.04938271604938272,0,0,0.04938271604938272,48.93827160493827,0)" xlink:href="#T"/></g><path fill="#333" d="M137-138c1-29-70-34-71-4 15 46 118 7 119 86 1 83-164 76-172 9l43-7c4 19 20 25 44 25 33 8 57-30 24-41C81-84 22-81 20-136c-2-80 154-74 161-7" id="bq"/><path fill="#333" d="M190-63c-7 42-38 67-86 67-59 0-84-38-90-98-12-110 154-137 174-36l-49 2c-2-19-15-32-35-32-30 0-35 28-38 64-6 74 65 87 74 30" id="br"/><path fill="#333" d="M115-3C79 11 28 4 28-45v-112H4v-33h27l15-45h31v45h36v33H77v99c-1 23 16 31 38 25v30" id="bs"/><path fill="#333" d="M25 0v-261h50V0H25" id="bt"/><g id="M"><use transform="matrix(0.04938271604938272,0,0,0.04938271604938272,0,0)" xlink:href="#bq"/><use transform="matrix(0.04938271604938272,0,0,0.04938271604938272,9.876543209876544,0)" xlink:href="#bq"/><use transform="matrix(0.04938271604938272,0,0,0.04938271604938272,19.75308641975309,0)" xlink:href="#bq"/><use transform="matrix(0.04938271604938272,0,0,0.04938271604938272,29.629629629629633,0)" xlink:href="#br"/><use transform="matrix(0.04938271604938272,0,0,0.04938271604938272,39.50617283950618,0)" xlink:href="#bs"/><use transform="matrix(0.04938271604938272,0,0,0.04938271604938272,45.38271604938272,0)" xlink:href="#bt"/></g><path fill="#333" d="M-4 44V30h207v14H-4" id="bu"/><path fill="#333" d="M133-34C117-15 103 5 69 4 32 3 11-16 11-54c-1-60 55-63 116-61 1-26-3-47-28-47-18 1-26 9-28 27l-52-2c7-38 36-58 82-57s74 22 75 68l1 82c-1 14 12 18 25 15v27c-30 8-71 5-69-32zm-48 3c29 0 43-24 42-57-32 0-66-3-65 30 0 17 8 27 23 27" id="bv"/><path fill="#333" d="M114-157C55-157 80-60 75 0H25v-261h50l-1 109c12-26 28-41 61-42 86-1 58 113 63 194h-50c-7-57 23-157-34-157" id="bw"/><path fill="#333" d="M185-48c-13 30-37 53-82 52C43 2 14-33 14-96s30-98 90-98c62 0 83 45 84 108H66c0 31 8 55 39 56 18 0 30-7 34-22zm-45-69c5-46-57-63-70-21-2 6-4 13-4 21h74" id="bx"/><g id="N"><use transform="matrix(0.04938271604938272,0,0,0.04938271604938272,0,0)" xlink:href="#bq"/><use transform="matrix(0.04938271604938272,0,0,0.04938271604938272,9.876543209876544,0)" xlink:href="#bq"/><use transform="matrix(0.04938271604938272,0,0,0.04938271604938272,19.75308641975309,0)" xlink:href="#bq"/><use transform="matrix(0.04938271604938272,0,0,0.04938271604938272,29.629629629629633,0)" xlink:href="#bu"/><use transform="matrix(0.04938271604938272,0,0,0.04938271604938272,39.50617283950618,0)" xlink:href="#br"/><use transform="matrix(0.04938271604938272,0,0,0.04938271604938272,49.38271604938272,0)" xlink:href="#bv"/><use transform="matrix(0.04938271604938272,0,0,0.04938271604938272,59.25925925925927,0)" xlink:href="#br"/><use transform="matrix(0.04938271604938272,0,0,0.04938271604938272,69.13580246913581,0)" xlink:href="#bw"/><use transform="matrix(0.04938271604938272,0,0,0.04938271604938272,79.95061728395062,0)" xlink:href="#bx"/></g><path fill="#333" d="M110-194c64 0 96 36 96 99 0 64-35 99-97 99-61 0-95-36-95-99 0-62 34-99 96-99zm-1 164c35 0 45-28 45-65 0-40-10-65-43-65-34 0-45 26-45 65 0 36 10 65 43 65" id="by"/><path fill="#333" d="M128 0H69L1-190h53L99-40l48-150h52" id="bz"/><path fill="#333" d="M135-150c-39-12-60 13-60 57V0H25l-1-190h47c2 13-1 29 3 40 6-28 27-53 61-41v41" id="bA"/><path fill="#333" d="M25-224v-37h50v37H25zM25 0v-190h50V0H25" id="bB"/><path fill="#333" d="M88-194c31-1 46 15 58 34l-1-101h50l1 261h-48c-2-10 0-23-3-31C134-8 116 4 84 4 32 4 16-41 15-95c0-56 19-97 73-99zm17 164c33 0 40-30 41-66 1-37-9-64-41-64s-38 30-39 65c0 43 13 65 39 65" id="bC"/><g id="O"><use transform="matrix(0.04938271604938272,0,0,0.04938271604938272,0,0)" xlink:href="#bq"/><use transform="matrix(0.04938271604938272,0,0,0.04938271604938272,9.876543209876544,0)" xlink:href="#bq"/><use transform="matrix(0.04938271604938272,0,0,0.04938271604938272,19.75308641975309,0)" xlink:href="#bq"/><use transform="matrix(0.04938271604938272,0,0,0.04938271604938272,29.629629629629633,0)" xlink:href="#bu"/><use transform="matrix(0.04938271604938272,0,0,0.04938271604938272,39.50617283950618,0)" xlink:href="#by"/><use transform="matrix(0.04938271604938272,0,0,0.04938271604938272,50.320987654320994,0)" xlink:href="#bz"/><use transform="matrix(0.04938271604938272,0,0,0.04938271604938272,60.19753086419754,0)" xlink:href="#bx"/><use transform="matrix(0.04938271604938272,0,0,0.04938271604938272,70.07407407407408,0)" xlink:href="#bA"/><use transform="matrix(0.04938271604938272,0,0,0.04938271604938272,76.98765432098766,0)" xlink:href="#bA"/><use transform="matrix(0.04938271604938272,0,0,0.04938271604938272,83.90123456790124,0)" xlink:href="#bB"/><use transform="matrix(0.04938271604938272,0,0,0.04938271604938272,88.83950617283952,0)" xlink:href="#bC"/><use transform="matrix(0.04938271604938272,0,0,0.04938271604938272,99.65432098765433,0)" xlink:href="#bx"/></g><g id="P"><use transform="matrix(0.04938271604938272,0,0,0.04938271604938272,0,0)" xlink:href="#bq"/><use transform="matrix(0.04938271604938272,0,0,0.04938271604938272,9.876543209876544,0)" xlink:href="#bq"/><use transform="matrix(0.04938271604938272,0,0,0.04938271604938272,19.75308641975309,0)" xlink:href="#bq"/><use transform="matrix(0.04938271604938272,0,0,0.04938271604938272,29.629629629629633,0)" xlink:href="#bu"/><use transform="matrix(0.04938271604938272,0,0,0.04938271604938272,39.50617283950618,0)" xlink:href="#bq"/><use transform="matrix(0.04938271604938272,0,0,0.04938271604938272,49.38271604938272,0)" xlink:href="#bx"/><use transform="matrix(0.04938271604938272,0,0,0.04938271604938272,59.25925925925927,0)" xlink:href="#bx"/><use transform="matrix(0.04938271604938272,0,0,0.04938271604938272,69.13580246913581,0)" xlink:href="#bC"/></g><path fill="#333" d="M24 0v-54h51V0H24" id="bD"/><g id="Q"><use transform="matrix(0.04938271604938272,0,0,0.04938271604938272,0,0)" xlink:href="#bD"/><use transform="matrix(0.04938271604938272,0,0,0.04938271604938272,4.938271604938272,0)" xlink:href="#bD"/><use transform="matrix(0.04938271604938272,0,0,0.04938271604938272,9.876543209876544,0)" xlink:href="#bD"/></g></defs></g></svg>